<svg width="154" height="80" viewBox="0 0 154 80" fill="none" xmlns="http://www.w3.org/2000/svg">
<path d="M81.4675 71.4264C81.2536 71.4264 81.0379 71.3524 80.8619 71.2031C80.4665 70.8696 80.4172 70.2775 80.7503 69.8822L114.526 29.9166C114.859 29.5192 115.451 29.47 115.847 29.8049C116.242 30.138 116.292 30.7303 115.959 31.1258L82.1828 71.0929C81.9973 71.3124 81.7343 71.4264 81.4675 71.4264Z" fill="black"/>
<path d="M12.6631 60.3165C12.4626 60.3165 12.2601 60.2521 12.0898 60.1199C11.681 59.8019 11.6053 59.2114 11.9232 58.8026L54.7158 3.62491C55.0337 3.21428 55.6241 3.14048 56.0328 3.45839C56.4416 3.7763 56.5154 4.3648 56.1994 4.77353L13.4049 59.9512C13.2214 60.1916 12.9432 60.3165 12.6631 60.3165Z" fill="black"/>
<path d="M144.689 66.0842C144.417 66.0842 144.148 65.969 143.963 65.7421L115.366 30.9309C115.037 30.5297 115.096 29.9393 115.495 29.61C115.896 29.2808 116.486 29.3394 116.816 29.7406L145.412 64.5512C145.741 64.9503 145.685 65.5432 145.283 65.8721C145.109 66.0163 144.897 66.0842 144.689 66.0842Z" fill="black"/>
<path d="M77.6431 69.0625C77.259 69.0625 76.9013 68.828 76.7613 68.4475L53.9761 6.1776C53.7982 5.69128 54.048 5.15197 54.5343 4.9741C55.0206 4.79433 55.558 5.04599 55.7378 5.53231L78.5231 67.802C78.7009 68.2885 78.4511 68.828 77.9648 69.0063L77.6431 69.0625Z" fill="black"/>
<path d="M152.446 66.6748C151.602 70.9606 147.445 73.7495 143.16 72.9061C138.876 72.062 136.087 67.9027 136.931 63.6183C137.775 59.3339 141.932 56.5451 146.216 57.3892C150.501 58.2326 153.29 62.3906 152.446 66.6748Z" fill="#D0E2F2"/>
<path d="M152.446 66.6748H152.454H152.446ZM144.674 58.1744C143.306 58.1744 141.968 58.5793 140.806 59.3591C139.26 60.3978 138.21 61.9745 137.851 63.8002C137.491 65.6259 137.864 67.4843 138.901 69.0307C139.938 70.5748 141.514 71.6252 143.342 71.9844C145.166 72.3422 147.024 71.9711 148.571 70.934C150.117 69.897 151.167 68.3211 151.526 66.4929C151.886 64.6665 151.513 62.8105 150.476 61.2649C149.439 59.7185 147.861 58.6681 146.035 58.3087C145.583 58.2201 145.127 58.1744 144.674 58.1744ZM144.708 73.9942C144.133 73.9942 143.554 73.9388 142.979 73.8256C138.193 72.8832 135.067 68.2227 136.009 63.4365C136.467 61.1184 137.8 59.119 139.76 57.8018C141.722 56.4845 144.078 56.0115 146.398 56.4698C148.716 56.9251 150.718 58.2578 152.033 60.2196C153.35 62.1806 153.824 64.5378 153.367 66.8559C152.91 69.1739 151.577 71.1764 149.617 72.4936C148.141 73.4812 146.444 73.9942 144.708 73.9942Z" fill="black"/>
<path d="M123.115 31.2279C122.271 35.5121 118.114 38.3014 113.83 37.4574C109.545 36.6134 106.756 32.456 107.6 28.1719C108.444 23.8858 112.601 21.0965 116.886 21.9405C121.17 22.7845 123.959 26.9419 123.115 31.2279Z" fill="black"/>
<path d="M115.343 22.7277C113.975 22.7277 112.637 23.1326 111.476 23.9123C109.93 24.9492 108.879 26.5256 108.52 28.3516C107.778 32.123 110.24 35.7941 114.011 36.5358C115.835 36.8954 117.694 36.5245 119.24 35.4856C120.786 34.4486 121.836 32.8723 122.195 31.0463C122.555 29.2202 122.182 27.3619 121.145 25.8159C120.108 24.2699 118.53 23.2216 116.704 22.862C116.25 22.7712 115.796 22.7277 115.343 22.7277ZM115.377 38.5474C114.802 38.5474 114.223 38.4906 113.648 38.3771C108.862 37.4347 105.736 32.7758 106.679 27.9902C107.136 25.6721 108.467 23.6701 110.429 22.353C112.391 21.0379 114.749 20.5629 117.067 21.0208C119.385 21.4769 121.387 22.8091 122.703 24.7714C124.02 26.7337 124.493 29.0915 124.037 31.4096C123.579 33.7258 122.248 35.7278 120.286 37.0449C118.81 38.0326 117.113 38.5474 115.377 38.5474Z" fill="black"/>
<path d="M87.0213 72.6808C86.1773 76.9665 82.0199 79.7561 77.7357 78.9119C73.4497 78.0678 70.6604 73.9108 71.5044 69.6249C72.3483 65.3407 76.5057 62.5509 80.7918 63.3951C85.076 64.2392 87.8652 68.3964 87.0213 72.6808Z" fill="white"/>
<path d="M79.2477 64.1824C77.8796 64.1824 76.5417 64.5851 75.3798 65.3672C73.8338 66.4021 72.7855 67.9802 72.4259 69.8059C71.6823 73.5773 74.146 77.2487 77.9174 77.9901C79.7435 78.3503 81.5998 77.9769 83.1459 76.9405C84.6919 75.9035 85.7421 74.3268 86.1016 72.501C86.8434 68.7298 84.3796 65.0581 80.6102 64.3147C80.156 64.2259 79.7 64.1824 79.2477 64.1824ZM79.2666 80C78.7008 80 78.1294 79.9453 77.5541 79.8316C72.7685 78.889 69.6424 74.2284 70.5847 69.443C71.0408 67.1264 72.373 65.1248 74.3353 63.8075C76.2976 62.4926 78.6554 62.0195 80.9735 62.4755C85.7572 63.4179 88.8833 68.0771 87.9409 72.8626C87.1121 77.0729 83.4051 80 79.2666 80Z" fill="black"/>
<path d="M60.9851 10.3747C60.1411 14.6589 55.9837 17.4482 51.6995 16.6042C47.4154 15.7602 44.6261 11.6028 45.4701 7.31677C46.314 3.03259 50.4714 0.243326 54.7556 1.08729C59.0398 1.93126 61.829 6.08867 60.9851 10.3747Z" fill="white"/>
<path d="M53.2134 1.87452C51.8453 1.87452 50.5074 2.27948 49.3455 3.05911C47.7995 4.09609 46.7493 5.67237 46.3897 7.49845C46.0302 9.32452 46.403 11.1828 47.44 12.7288C48.477 14.2748 50.0551 15.325 51.8812 15.6846C53.7054 16.0422 55.5636 15.6694 57.1096 14.6343C58.6557 13.5955 59.7059 12.0192 60.0654 10.1931C60.425 8.36701 60.0522 6.50877 59.0152 4.96465C57.9782 3.41674 56.4019 2.36841 54.5739 2.00887C54.1217 1.91804 53.6657 1.87452 53.2134 1.87452ZM53.2455 17.6942C52.6722 17.6942 52.095 17.6374 51.5179 17.5239C49.1998 17.0678 47.1996 15.7357 45.8826 13.7733C44.5655 11.811 44.0925 9.45321 44.5504 7.13703C45.4909 2.35139 50.1479 -0.774708 54.9373 0.167662C57.2554 0.623707 59.2574 1.9559 60.5725 3.91822C61.8896 5.88054 62.3627 8.23645 61.9066 10.5545C61.4487 12.8726 60.1184 14.8747 58.1561 16.1917C56.682 17.1795 54.9827 17.6942 53.2455 17.6942Z" fill="black"/>
<path d="M16.6049 64.773C15.7609 69.0572 11.6036 71.8463 7.31938 71.0021C3.03521 70.1601 0.24594 66.0008 1.08991 61.7164C1.93388 57.433 6.09128 54.6432 10.3755 55.4873C14.6596 56.3315 17.4489 60.4887 16.6049 64.773Z" fill="black"/>
<path d="M8.83323 56.2724C7.46509 56.2724 6.12722 56.6774 4.96534 57.4572C3.41933 58.4944 2.3691 60.0726 2.00957 61.8982C1.65003 63.7249 2.02282 65.5824 3.0598 67.1288C4.09679 68.6744 5.67496 69.7233 7.50104 70.0825C9.32711 70.4426 11.1835 70.0692 12.7295 69.0321C14.2755 67.9958 15.3257 66.4192 15.6853 64.5912C16.0448 62.7653 15.672 60.9071 14.635 59.3629C13.5981 57.8166 12.0217 56.7661 10.1938 56.407C9.74152 56.3182 9.28549 56.2724 8.83323 56.2724ZM8.86538 72.0923C8.29201 72.0923 7.71486 72.0376 7.1377 71.9239C4.81963 71.4678 2.81948 70.1356 1.50244 68.1731C0.185397 66.2106 -0.287687 63.8534 0.170251 61.5353C0.626296 59.2172 1.95847 57.2171 3.92079 55.8998C5.88122 54.5826 8.23904 54.1095 10.5571 54.5656C12.8752 55.0239 14.8772 56.3559 16.1924 58.3163C17.5094 60.2788 17.9825 62.6368 17.5265 64.9549C17.0685 67.273 15.7382 69.2746 13.7759 70.5896C12.2999 71.5793 10.6025 72.0923 8.86538 72.0923Z" fill="black"/>
<path d="M79.7202 75.6432L79.5234 75.5732L79.478 75.1341L84.2202 69.2869L84.6592 69.2415L84.7046 69.6805L79.9625 75.5277L79.7202 75.6432Z" fill="black"/>
<path d="M75.3226 75.0396L75.1258 74.9695L75.0804 74.5305L81.8945 66.1306L82.3355 66.0852L82.3809 66.5261L75.5648 74.9241L75.3226 75.0396Z" fill="black"/>
<path d="M74.229 70.9995L74.0132 70.9143L74 70.4734L78.1877 66.0133L78.6305 66L78.6437 66.4409L74.4561 70.9011L74.229 70.9995Z" fill="black"/>
<path d="M6.96743 68.2323L6.74981 68.1428L6.74602 67.7C8.83512 65.5712 10.8353 63.3042 12.6898 60.964L13.1288 60.9121L13.1799 61.3513C11.3103 63.7114 9.29684 65.9934 7.1907 68.1392L6.96743 68.2323Z" fill="black"/>
<path d="M4.5395 66.1256L4.32377 66.0384L4.31243 65.5978C6.63618 63.1572 8.87856 60.5832 10.9771 57.9488L11.4161 57.8979L11.4654 58.3369C9.35543 60.9861 7.10169 63.5748 4.76469 66.0295L4.5395 66.1256Z" fill="black"/>
<path d="M3.53098 62.5908L3.32473 62.5132L3.29634 62.0727C4.50174 60.7045 5.78283 59.3665 7.10555 58.0988L7.54834 58.1077L7.5389 58.5513C6.22753 59.8057 4.95967 61.1303 3.76563 62.4852L3.53098 62.5908Z" fill="black"/>
</svg>
