<svg width="204" height="400" viewBox="0 0 204 400" fill="none" xmlns="http://www.w3.org/2000/svg">
<path d="M178.304 17.1921C175.811 12.3095 176.409 6.21975 173.576 1.52736C173.329 1.119 172.999 0.687663 172.525 0.637893C171.746 0.55622 171.301 1.49927 171.177 2.27134C170.638 5.61484 171.534 8.99792 172.101 12.3376C172.93 17.2189 173.059 22.2175 172.449 27.3604C171.958 29.9714 173.363 32.5122 174.54 34.8935C176.547 38.9606 178.012 43.2931 178.896 47.965C182.609 48.7626 186.402 47.3385 189.919 45.9079C191.245 45.3694 192.589 44.813 193.599 43.9579C193.852 38.2548 193.796 32.539 193.43 26.8423C193.33 25.2905 193.208 23.7361 192.869 22.2188C192.608 21.0498 192.18 19.8477 191.254 19.0858C190.33 18.324 188.789 18.2066 187.935 19.1892C187.693 18.2946 186.87 17.6336 185.97 17.4052C185.07 17.1767 184.111 17.326 183.234 17.6285C183.009 17.7051 182.771 17.8072 182.653 18.0139C181.523 17.1512 179.902 16.984 178.617 17.5953C178.55 17.3784 178.483 17.1602 178.304 17.1921Z" fill="white"/>
<path d="M193.4 46.4119L193.378 46.4106C193.029 46.3991 192.754 46.1069 192.767 45.7572C193.021 38.2624 192.803 30.6757 192.117 23.209C192.012 22.0655 191.888 21.051 191.422 20.2215C191.016 19.5005 190.17 18.842 189.334 18.9811C188.65 19.0947 188.031 19.6753 187.387 20.8124C186.351 22.6372 185.64 24.6102 185.273 26.675C185.162 27.2939 185.089 27.9384 185.299 28.4539C185.453 28.833 185.888 29.1826 186.241 29.0843C186.448 29.0256 186.659 28.8215 186.856 28.6083C187.931 27.4445 188.747 26.0292 189.216 24.5145C189.318 24.1814 189.674 23.9938 190.008 24.0972C190.343 24.2005 190.529 24.554 190.427 24.8884C189.903 26.5805 188.991 28.1642 187.787 29.4659C187.465 29.8156 187.095 30.1589 186.585 30.3018C185.516 30.603 184.496 29.8398 184.125 28.9299C183.794 28.117 183.881 27.2594 184.024 26.4542C184.418 24.2465 185.177 22.1396 186.285 20.1896C186.818 19.2491 187.692 17.9704 189.127 17.733C190.394 17.525 191.79 18.2932 192.526 19.6026C193.116 20.6503 193.262 21.8039 193.379 23.0941C194.07 30.6132 194.289 38.2522 194.032 45.8006C194.021 46.1413 193.74 46.4119 193.4 46.4119Z" fill="black"/>
<path d="M183.399 30.1552C183.185 30.1552 182.969 30.1143 182.759 30.0326C182.207 29.817 181.76 29.3627 181.391 28.6429C180.829 27.5416 180.557 26.194 180.56 24.5235C180.565 22.4894 180.932 20.4922 181.652 18.5882C181.815 18.1568 182.026 17.6668 182.454 17.3082C182.772 17.0428 183.188 16.8705 183.725 16.7812C185.407 16.5055 187.218 17.1576 188.335 18.444C188.564 18.7081 188.536 19.1076 188.271 19.336C188.007 19.5644 187.606 19.5363 187.378 19.2722C186.541 18.3112 185.187 17.8237 183.931 18.0305C183.624 18.0803 183.408 18.162 183.268 18.2768C183.074 18.4402 182.949 18.7413 182.837 19.0348C182.171 20.7959 181.831 22.6438 181.827 24.5274C181.825 25.9911 182.051 27.1498 182.52 28.0674C182.738 28.4924 182.974 28.7578 183.221 28.8548C183.417 28.9301 183.575 28.8663 183.674 28.7986C183.845 28.6799 183.95 28.4707 183.947 28.2537C183.943 27.904 184.223 27.6182 184.574 27.6131H184.581C184.928 27.6131 185.21 27.8913 185.214 28.2384C185.223 28.8803 184.916 29.4788 184.393 29.8387C184.09 30.048 183.748 30.1552 183.399 30.1552" fill="black"/>
<path d="M180.61 30.2483C179.966 30.2483 179.316 29.9025 178.873 29.3052C178.488 28.7871 178.309 28.1797 178.159 27.6028C177.67 25.7167 177.322 23.7795 177.126 21.8423C177.047 21.0601 176.979 20.1527 177.186 19.2722C177.429 18.2321 178.034 17.3962 178.846 16.9789C180.232 16.2643 181.82 16.8858 182.894 17.4154C183.207 17.5698 183.336 17.9488 183.181 18.2627C183.025 18.5754 182.647 18.7043 182.332 18.5499C181.018 17.9003 180.095 17.7587 179.426 18.1032C178.953 18.347 178.576 18.8919 178.42 19.5606C178.258 20.2522 178.315 21.0039 178.387 21.7147C178.576 23.5881 178.912 25.4615 179.385 27.2851C179.509 27.7611 179.641 28.2154 179.89 28.5523C180.071 28.7935 180.384 29.0194 180.679 28.9785C180.904 28.9479 181.271 28.6595 181.339 28.4987C181.265 28.1835 181.443 27.8581 181.757 27.7547C182.09 27.645 182.448 27.8249 182.557 28.1567C182.666 28.4859 182.609 28.8573 182.395 29.2006C182.075 29.711 181.413 30.1551 180.852 30.2317L180.61 30.2483" fill="black"/>
<path d="M172.483 27.7661L172.408 27.7623C172.061 27.7214 171.813 27.4075 171.854 27.0604C172.424 22.1932 172.297 17.2749 171.476 12.4434C171.373 11.8347 171.259 11.2234 171.144 10.6134C170.627 7.85824 170.093 5.00986 170.552 2.17044C170.739 1.00787 171.441 -0.110028 172.591 0.00865337C173.364 0.0890506 173.833 0.727135 174.118 1.20059C175.673 3.77457 176.321 6.86157 176.947 9.84775C177.487 12.4205 178.046 15.0825 179.182 17.3081C179.341 17.6195 179.217 17.9998 178.905 18.158C178.594 18.3175 178.212 18.1937 178.052 17.8824C176.84 15.5075 176.263 12.7612 175.706 10.1068C175.101 7.224 174.476 4.2429 173.032 1.85268C172.807 1.48132 172.614 1.28354 172.458 1.26695C172.186 1.23887 171.891 1.82589 171.802 2.3708C171.379 4.99328 171.893 7.73189 172.389 10.3799C172.506 10.9988 172.621 11.6152 172.727 12.2316C173.567 17.183 173.697 22.2213 173.112 27.2072C173.075 27.53 172.801 27.7661 172.483 27.7661" fill="black"/>
<path d="M178.309 30.1194C177.95 28.6021 178.152 26.9571 178.87 25.5738C179.321 24.7035 179.971 23.9276 180.265 22.9921C180.56 22.058 180.36 20.8482 179.483 20.4092C178.93 20.1336 178.259 20.2369 177.684 20.4615C176.171 21.0562 175.087 22.386 174.159 23.7183C173.582 24.5465 173.031 25.4143 172.759 26.3841C172.516 27.2507 172.504 28.1656 172.575 29.0628C172.617 29.6179 172.697 30.1934 173.003 30.6592C173.427 31.305 174.198 31.6214 174.937 31.8499C175.707 32.0885 176.547 32.271 177.307 32.003C178.066 31.7337 178.497 30.9042 178.309 30.1194" fill="white"/>
<path d="M178.885 49.6163C178.585 49.6163 178.319 49.4045 178.263 49.0995C177.365 44.2833 175.887 39.5769 173.872 35.1104L173.666 34.6561C172.567 32.2339 171.32 29.4877 171.946 26.7223C172.356 24.9102 173.51 23.4018 174.659 22.0133C175.446 21.0613 176.248 20.1706 177.395 19.7482C178.667 19.2811 180.408 19.6346 181.004 21.023C181.584 22.377 180.727 23.6697 180.036 24.7085C179.911 24.8987 179.786 25.0862 179.671 25.2713C178.347 27.4152 178.534 30.395 180.117 32.3565C180.337 32.6283 180.293 33.0277 180.02 33.2459C179.747 33.4654 179.348 33.422 179.13 33.1502C177.222 30.7855 176.996 27.1919 178.593 24.6077C178.714 24.4112 178.846 24.2121 178.98 24.0092C179.582 23.1031 180.151 22.2468 179.839 21.522C179.558 20.8673 178.549 20.6721 177.833 20.9362C176.983 21.2476 176.308 22.0044 175.635 22.8185C174.542 24.1419 173.531 25.4576 173.182 27.0017C172.65 29.3524 173.753 31.7835 174.821 34.1341L175.028 34.591C177.085 39.1494 178.593 43.9528 179.508 48.8685C179.572 49.2118 179.346 49.5423 179.002 49.6061L178.885 49.6163" fill="black"/>
<path d="M181.798 31.8945C180.984 31.8945 180.155 31.6635 179.426 31.2679C179.12 30.6388 178.923 29.956 178.838 29.258C178.85 29.2733 178.861 29.2899 178.873 29.3052C179.316 29.9025 179.966 30.2483 180.61 30.2483L180.852 30.2317C181.262 30.1756 181.728 29.9229 182.073 29.5911C182.281 29.7889 182.51 29.9356 182.76 30.0326C182.969 30.1143 183.185 30.1551 183.399 30.1551C183.748 30.1551 184.091 30.0479 184.394 29.8386C184.469 29.7876 184.539 29.7315 184.604 29.6702C184.993 30.0837 185.528 30.3683 186.105 30.3683C186.263 30.3683 186.423 30.3478 186.585 30.3019C187.095 30.159 187.465 29.8157 187.787 29.466C188.923 28.2371 189.8 26.7568 190.335 25.1705C190.573 25.2522 190.775 25.4372 190.834 25.6886C190.959 26.0561 190.749 26.4492 190.669 26.8104C190.552 27.1881 190.392 27.5493 190.216 27.904C190.176 28.2652 189.903 28.5715 189.707 28.8713L189.683 28.9045L189.538 29.1712L189.353 29.3563C188.898 29.9509 188.376 30.4997 187.748 30.9106C187.243 31.259 186.686 31.5257 186.077 31.6342C185.627 31.6623 185.406 31.6699 185.258 31.6699C185.176 31.6699 185.116 31.6674 185.051 31.6661C184.985 31.6635 184.916 31.661 184.817 31.661C184.737 31.661 184.64 31.6623 184.51 31.6661C184.255 31.661 184.073 31.6584 183.927 31.6584C183.435 31.6584 183.355 31.698 182.311 31.8601C182.183 31.8792 182.053 31.8869 181.923 31.8933H181.922C181.881 31.8933 181.84 31.8945 181.798 31.8945ZM186.116 29.101C186.085 29.101 186.054 29.0985 186.024 29.0934C186.185 29.0602 186.237 29.0666 186.415 29.004C186.357 29.0398 186.299 29.0679 186.241 29.0845C186.2 29.0959 186.158 29.101 186.116 29.101" fill="#DEDEDE"/>
<path d="M186.106 30.3684C185.528 30.3684 184.993 30.0838 184.604 29.6704C184.736 29.5491 184.849 29.41 184.939 29.2581C185.166 29.253 185.406 29.2326 185.699 29.179C185.847 29.1331 185.947 29.1089 186.024 29.0935C186.054 29.0986 186.085 29.1012 186.116 29.1012C186.158 29.1012 186.2 29.0961 186.241 29.0846C186.299 29.068 186.357 29.0399 186.415 29.0042C186.544 28.9595 186.741 28.8778 187.094 28.7183C187.223 28.6277 187.443 28.4695 187.525 28.3814C188.164 27.7842 187.967 27.9488 188.372 27.5124L188.416 27.4639C188.652 27.2457 188.61 27.1818 188.776 27.0887C188.874 26.8717 188.967 26.6548 189.051 26.4328C189.244 26.004 189.26 25.4221 189.739 25.1987C189.84 25.1477 189.951 25.1247 190.063 25.1247C190.155 25.1247 190.248 25.14 190.335 25.1707C189.801 26.7569 188.923 28.2372 187.787 29.4662C187.465 29.8158 187.095 30.1591 186.585 30.302C186.423 30.348 186.263 30.3684 186.106 30.3684" fill="black"/>
<path d="M183.399 30.1552C183.185 30.1552 182.969 30.1143 182.76 30.0326C182.51 29.9357 182.281 29.7889 182.073 29.5911C182.106 29.5592 182.138 29.526 182.17 29.4916C182.352 29.4456 182.533 29.3946 182.717 29.3537C183.297 29.2669 183.711 29.2466 184.057 29.2466C184.194 29.2466 184.321 29.2504 184.442 29.2529C184.565 29.2555 184.684 29.2593 184.804 29.2593C184.849 29.2593 184.895 29.2593 184.939 29.258C184.849 29.4099 184.736 29.549 184.604 29.6702C184.539 29.7315 184.469 29.7876 184.394 29.8387C184.091 30.048 183.748 30.1552 183.399 30.1552" fill="black"/>
<path d="M180.61 30.2483C179.966 30.2483 179.317 29.9025 178.873 29.3052C178.861 29.2899 178.85 29.2733 178.838 29.258C178.808 28.9964 178.791 28.7335 178.791 28.4706C178.86 28.4566 178.932 28.4489 179.006 28.4489C179.102 28.4489 179.203 28.4617 179.308 28.4898C179.769 28.5804 180.056 29.0194 180.461 29.2427L180.484 29.2542C181.353 29.5847 181.223 29.5503 181.67 29.6026C181.839 29.5745 182.004 29.5349 182.17 29.4915C182.138 29.526 182.106 29.5592 182.073 29.5911C181.728 29.9229 181.262 30.1756 180.852 30.2317L180.61 30.2483" fill="black"/>
<path d="M179.426 31.2679C179.045 31.0599 178.692 30.8073 178.383 30.5189C177.532 29.9267 177.93 28.6557 178.791 28.4706C178.791 28.7335 178.808 28.9964 178.838 29.258C178.923 29.9561 179.119 30.6388 179.426 31.2679Z" fill="black"/>
<path d="M181.65 31.9008L181.817 31.8956L181.65 31.9008Z" fill="#DEDEDE"/>
<path d="M181.817 31.8958L181.923 31.8932L181.817 31.8958Z" fill="#DEDEDE"/>
<path d="M173.408 23.6289C173.426 23.2601 173.44 22.8926 173.45 22.5238C174.42 20.9822 175.909 19.0807 176.268 18.5154C176.612 17.9934 176.611 17.2099 177.047 16.7849C177.17 16.6803 177.315 16.6177 177.466 16.5935C177.618 16.9674 177.781 17.335 177.959 17.6935C177.597 18.1211 177.329 18.6621 177.186 19.2721C177.139 19.4738 177.106 19.6754 177.084 19.8783C176.1 20.3364 175.373 21.1494 174.659 22.0133C174.23 22.5327 173.801 23.0674 173.408 23.6289Z" fill="#DEDEDE"/>
<path d="M177.084 19.8782C177.106 19.6753 177.139 19.4736 177.186 19.272C177.33 18.662 177.597 18.1209 177.959 17.6934C177.989 17.7572 178.02 17.8198 178.052 17.8823C178.121 18.015 178.23 18.1146 178.356 18.172C178.194 18.6939 177.974 19.198 177.68 19.6587C177.583 19.6842 177.488 19.7149 177.395 19.748C177.289 19.7876 177.185 19.831 177.084 19.8782" fill="black"/>
<path d="M172.957 24.3204C172.818 24.1354 172.754 23.8917 172.832 23.6198C172.984 23.2982 173.2 22.9231 173.451 22.5236C173.44 22.8924 173.426 23.26 173.408 23.6288C173.251 23.8547 173.1 24.0856 172.957 24.3204ZM178.356 18.172C178.23 18.1145 178.121 18.015 178.052 17.8823C178.02 17.8198 177.989 17.7572 177.959 17.6934C177.781 17.3348 177.619 16.9673 177.466 16.5934C177.516 16.5857 177.565 16.5806 177.615 16.5806C177.955 16.5806 178.295 16.7657 178.441 17.0962C178.586 17.382 178.51 17.6985 178.41 17.9857C178.393 18.0482 178.374 18.1094 178.356 18.172Z" fill="black"/>
<path d="M173.713 24.6919C173.422 24.6919 173.131 24.5502 172.957 24.3205C173.1 24.0857 173.251 23.8547 173.408 23.6289C173.801 23.0674 174.23 22.5327 174.659 22.0133C175.373 21.1493 176.1 20.3364 177.084 19.8782C177.185 19.831 177.289 19.7877 177.395 19.7481C177.488 19.7149 177.583 19.6843 177.68 19.6587C177.611 19.7685 177.537 19.8757 177.459 19.9803C176.34 21.3586 175.334 22.8249 174.395 24.3295C174.223 24.5821 173.968 24.6919 173.713 24.6919" fill="black"/>
<path d="M80.4824 191.923C74.4771 182.494 60.1931 165.319 53.1062 156.67C54.1584 152.771 70.5033 137.591 78.7167 127.83C82.9934 166.912 79.9927 176.75 86.8508 183.139C96.11 191.766 137.282 193.275 142.315 188.404C145.62 185.206 148.177 179.783 148.658 175.818C150.595 159.819 147.41 139.819 146.807 123.717C156.391 132.325 178.657 148.676 190.782 145.782C198.234 144.004 200.051 135.731 200.749 132.662C206.909 105.587 200.77 73.1076 196.738 46.1796C190.084 47.6013 182.201 50.2442 175.445 48.4601C176.959 70.0359 178.952 98.5348 178.019 112.149C164.181 103.269 154.568 94.9284 138.563 89.4257C127.342 85.5679 89.6841 88.9624 83.2377 90.8703C69.2542 95.0075 29.6398 139.089 28.6745 153.248C27.5161 170.248 61.8783 194.778 69.639 204.551C71.2142 200.62 76.7439 194.051 80.4824 191.923" fill="white"/>
<path d="M120.645 88.276C105.818 88.276 87.7764 90.1877 83.4166 91.4766C77.1236 93.3385 64.3164 104.287 51.5489 118.72C38.4604 133.515 29.7293 147.086 29.3073 153.291C28.4904 165.268 46.0013 181.305 58.7868 193.013C63.2489 197.101 67.1599 200.683 69.4779 203.367C71.4341 199.426 76.1647 193.965 79.6001 191.723C74.0027 183.108 61.9844 168.477 54.7427 159.661L52.6165 157.071C52.4861 156.912 52.4413 156.702 52.495 156.505C53.1714 153.995 59.1716 147.747 66.1205 140.513C70.4803 135.972 74.9897 131.276 78.2308 127.424C78.3945 127.229 78.6566 127.153 78.9008 127.225C79.1437 127.299 79.3189 127.51 79.3457 127.761C80.8697 141.683 81.4783 152.018 81.922 159.565C82.7211 173.122 83.0509 178.733 87.2829 182.678C91.988 187.06 105.312 189.439 116.213 190.203C128.617 191.072 139.648 190.105 141.874 187.951C144.894 185.027 147.541 179.778 148.029 175.742C149.337 164.937 148.3 152.36 147.298 140.199C146.82 134.397 146.367 128.917 146.174 123.74C146.165 123.487 146.308 123.251 146.538 123.144C146.77 123.036 147.042 123.077 147.231 123.246C158.644 133.498 179.619 147.797 190.635 145.167C197.635 143.496 199.434 135.584 200.112 132.606L200.131 132.521C205.658 108.225 201.243 79.6123 197.348 54.3688C196.96 51.8535 196.578 49.3765 196.211 46.9429C195.216 47.1637 194.2 47.4062 193.136 47.6614C187.714 48.9567 181.604 50.4179 176.138 49.2744C177.613 70.3245 179.577 98.6741 178.65 112.191C178.635 112.414 178.503 112.613 178.302 112.714C178.103 112.814 177.865 112.802 177.676 112.681C174.266 110.492 171.113 108.338 168.063 106.254C158.557 99.7562 150.346 94.1463 138.356 90.0244C134.661 88.7533 128.054 88.276 120.645 88.276M69.639 205.182C69.4472 205.182 69.2631 205.096 69.1417 204.944C67.0193 202.27 62.8065 198.413 57.9288 193.946C44.9542 182.064 27.185 165.79 28.0429 153.205C28.5773 145.357 40.0458 129.812 50.5989 117.883C60.5575 106.626 75.0332 92.6379 83.0573 90.2643C89.6738 88.3066 127.496 84.9529 138.769 88.8273C150.92 93.0054 159.595 98.9344 168.779 105.21C171.548 107.102 174.403 109.053 177.452 111.03C178.216 97.0176 176.254 69.0611 174.813 48.5049C174.798 48.3007 174.884 48.1029 175.041 47.9728C175.198 47.8426 175.409 47.7967 175.607 47.849C180.976 49.2668 187.28 47.7597 192.841 46.4299C194.149 46.1173 195.384 45.8225 196.605 45.5621C196.777 45.5251 196.955 45.5609 197.098 45.6604C197.243 45.7599 197.339 45.9144 197.364 46.0866C197.761 48.7334 198.177 51.4324 198.601 54.1761C202.513 79.5319 206.947 108.271 201.367 132.801L201.348 132.885C200.623 136.074 198.697 144.544 190.929 146.397C178.989 149.248 157.951 134.296 147.502 125.178C147.72 129.89 148.129 134.86 148.561 140.094C149.568 152.319 150.61 164.961 149.287 175.894C148.759 180.254 146.013 185.706 142.756 188.858C139.795 191.724 126.876 192.218 116.123 191.464C110.729 191.086 92.6439 189.402 86.4186 183.602C81.8146 179.312 81.4758 173.553 80.6575 159.639C80.2292 152.372 79.6487 142.514 78.2436 129.358C75.0805 133.009 70.9968 137.261 67.0346 141.387C61.0357 147.635 54.8399 154.086 53.8209 156.541L55.7221 158.858C63.1363 167.885 75.5433 182.989 81.0181 191.585C81.1101 191.731 81.1395 191.908 81.0973 192.076C81.0564 192.245 80.9477 192.388 80.7969 192.473C77.318 194.451 71.787 200.896 70.2272 204.786C70.1428 204.995 69.9535 205.144 69.7298 205.176L69.639 205.182" fill="black"/>
<path d="M112.201 106.597C114.797 118.193 117.247 129.837 119.548 141.527C119.938 143.507 120.327 145.533 120.193 147.559C120.002 150.414 118.8 152.973 117.628 155.419C116.196 158.406 114.764 161.394 112.815 164.369C110.306 158.986 108.046 153.419 106.103 147.757C105.209 134.776 109.19 122.05 109.257 109.032C109.261 108.227 109.259 107.381 109.568 106.679C109.877 105.979 110.622 105.511 112.201 106.597Z" fill="white"/>
<path d="M106.73 147.632C108.506 152.798 110.581 157.979 112.904 163.049C114.529 160.42 115.811 157.743 117.056 155.146C118.143 152.878 119.374 150.308 119.56 147.517C119.692 145.536 119.285 143.472 118.927 141.649C116.652 130.1 114.2 118.44 111.638 106.985C110.934 106.544 110.584 106.568 110.462 106.604C110.414 106.617 110.27 106.657 110.147 106.934C109.899 107.5 109.895 108.253 109.892 108.98V109.035C109.86 114.885 109.036 120.745 108.238 126.413C107.263 133.356 106.253 140.533 106.73 147.632ZM112.816 165L112.77 164.999C112.541 164.982 112.337 164.843 112.24 164.635C109.689 159.164 107.424 153.555 105.504 147.962L105.47 147.8C104.972 140.543 105.995 133.27 106.983 126.237C107.776 120.611 108.594 114.793 108.623 109.028L108.624 108.975C108.628 108.157 108.632 107.23 108.988 106.425C109.225 105.887 109.615 105.528 110.117 105.386C110.802 105.192 111.602 105.418 112.56 106.077C112.692 106.167 112.785 106.304 112.819 106.46C115.405 118.005 117.877 129.762 120.171 141.406C120.544 143.303 120.968 145.455 120.824 147.601C120.624 150.635 119.335 153.321 118.199 155.692C116.783 158.648 115.318 161.704 113.346 164.714C113.229 164.893 113.028 165 112.816 165" fill="black"/>
<path d="M108.444 98.6025C109.338 97.8087 110.642 97.7398 111.726 98.0665C113.321 98.5476 114.704 99.3184 115.151 100.92C115.265 101.331 114.632 103.151 114.279 103.821C113.861 104.614 112.749 106.097 111.678 106.291C110.763 106.458 109.853 105.998 109.101 105.452C107.744 104.463 106.56 102.912 106.797 101.25C106.941 100.253 107.558 99.3899 108.444 98.6025" fill="white"/>
<path d="M108.444 98.6025H108.448H108.444ZM110.501 98.517C109.922 98.517 109.324 98.6676 108.865 99.0746C108.004 99.8403 107.533 100.581 107.425 101.34C107.172 103.111 108.93 104.543 109.475 104.94C110.295 105.537 110.978 105.777 111.564 105.67C112.304 105.534 113.291 104.339 113.718 103.527C114.051 102.895 114.534 101.424 114.531 101.058C114.204 99.9335 113.28 99.1959 111.542 98.6714C111.23 98.577 110.87 98.517 110.501 98.517ZM111.284 106.96C110.489 106.96 109.647 106.631 108.728 105.962C106.888 104.623 105.932 102.828 106.17 101.161C106.323 100.093 106.929 99.1015 108.022 98.1303C108.991 97.2689 110.445 97.0188 111.909 97.4616C113.285 97.8764 115.18 98.6689 115.761 100.75C115.975 101.518 115.047 103.724 114.841 104.115C114.388 104.973 113.17 106.664 111.791 106.914C111.624 106.945 111.455 106.96 111.284 106.96" fill="black"/>
<path d="M120.082 66.9885C119.685 74.921 119.978 82.8867 120.955 90.7682C121.035 91.4254 121.118 92.1145 120.879 92.7322C120.634 93.3664 120.085 93.8297 119.541 94.2367C115.783 97.0532 110.962 98.6446 106.322 97.9057C101.681 97.1668 97.3746 93.8514 96.4579 88.882C97.7313 82.2729 100.035 73.0042 101.48 62.4607C107.263 64.3634 113.248 65.6523 120.082 66.9885Z" fill="white"/>
<path d="M97.1036 88.8821C98.0714 93.8131 102.467 96.6525 106.422 97.2817C110.615 97.9478 115.259 96.6564 119.16 93.7315C119.605 93.3984 120.096 93.0015 120.287 92.5051C120.472 92.0291 120.397 91.428 120.326 90.8461C119.369 83.1267 119.066 75.2771 119.423 67.5041C112.607 66.1642 107.226 64.9646 102.004 63.2954C100.981 70.5056 99.5584 77.1888 98.4064 82.5945C97.9244 84.8546 97.4692 86.9921 97.1036 88.8821M108.625 98.7186C107.814 98.7186 107.011 98.6561 106.221 98.531C100.905 97.6837 96.7302 93.8527 95.834 88.9957L95.8353 88.7621C96.2073 86.8313 96.6727 84.6453 97.1662 82.3316C98.354 76.7587 99.8307 69.8241 100.852 62.3753C100.878 62.1889 100.985 62.0243 101.145 61.9248C101.305 61.8253 101.5 61.8023 101.678 61.861C107.203 63.677 112.863 64.9327 120.204 66.3683C120.512 66.4283 120.73 66.7065 120.714 67.0204C120.321 74.8994 120.613 82.8625 121.584 90.6904C121.671 91.3936 121.769 92.1886 121.47 92.9607C121.172 93.7315 120.55 94.2725 119.922 94.7434C116.474 97.3264 112.468 98.7186 108.625 98.7186" fill="black"/>
<path d="M91.9405 101.848C91.7334 101.848 91.5301 101.747 91.4087 101.561C90.2682 99.816 89.1878 98.0065 88.1982 96.1829C88.032 95.8753 88.1458 95.4912 88.4539 95.3253C88.7621 95.1594 89.1457 95.273 89.3131 95.5805C90.2861 97.3748 91.3486 99.1537 92.4699 100.869C92.6616 101.161 92.5786 101.553 92.2858 101.744C92.1796 101.813 92.0594 101.848 91.9405 101.848" fill="black"/>
<path d="M86.8521 100.527C86.6156 100.527 86.3892 100.395 86.2793 100.168L84.7259 96.937C84.5737 96.6231 84.708 96.2441 85.0225 96.0935C85.337 95.9429 85.7167 96.0756 85.8689 96.3896L87.4223 99.6208C87.5745 99.936 87.4415 100.314 87.1257 100.466L86.8521 100.527Z" fill="black"/>
<path d="M108.801 98.0104C106.76 101.171 104.721 104.332 102.215 107.617C98.1672 101.341 94.0606 94.8634 91.7963 87.7514C93.1809 86.936 96.1318 84.5406 97.5178 83.7252C97.248 85.3114 96.5256 86.7918 96.78 87.2588C96.9424 87.5562 104.83 94.9655 108.801 98.0104Z" fill="white"/>
<path d="M92.5506 88.0244C94.788 94.7829 98.6953 100.985 102.256 106.512C104.382 103.664 106.2 100.869 107.954 98.1532C104.097 95.0994 96.4936 88.0563 96.2226 87.5612C95.9489 87.0584 96.1446 86.4037 96.4386 85.4121L96.5141 85.162C96.0461 85.4976 95.536 85.8741 95.0348 86.2454C94.1143 86.9269 93.2359 87.5777 92.5506 88.0244M102.215 108.249H102.191C101.984 108.241 101.794 108.133 101.682 107.959C97.8706 102.051 93.5517 95.3546 91.1915 87.9414C91.102 87.6607 91.2196 87.3557 91.4741 87.2051C92.1376 86.8146 93.2269 86.0094 94.2805 85.2284C95.4081 84.3938 96.4744 83.6051 97.1955 83.1801C97.4078 83.0551 97.6737 83.064 97.877 83.2044C98.0803 83.3435 98.1838 83.5885 98.1416 83.831C98.0227 84.5316 97.8272 85.1914 97.6545 85.7733C97.5318 86.1842 97.3681 86.7342 97.3592 86.9627C98.2452 87.9108 105.511 94.6897 109.187 97.5087C109.448 97.7091 109.512 98.0766 109.333 98.3523C107.322 101.47 105.243 104.693 102.719 108C102.599 108.157 102.412 108.249 102.215 108.249" fill="black"/>
<path d="M78.5237 30.8927C79.9889 36.8855 81.4784 42.2351 84.2516 49.9774C85.571 53.6591 87.6474 57.6854 89.95 60.9421C91.0343 62.4747 91.8359 63.1945 93.8074 63.9104C93.7665 62.2642 95.3992 61.302 95.5194 59.6519C95.6664 57.6216 94.2216 55.9741 95.2701 54.0956C97.2684 50.516 98.5048 46.6748 98.9011 42.8106C99.2259 39.6381 98.9548 36.3533 97.2262 33.6032C95.4976 30.8531 92.0839 28.7398 88.2547 28.8202C85.3358 28.8802 80.6384 28.8623 78.5237 30.8927" fill="#D0E2F2"/>
<path d="M79.2308 31.1159C80.6679 36.9607 82.1305 42.175 84.8487 49.7642C86.1695 53.4523 88.2177 57.3943 90.4679 60.5783C91.336 61.806 91.9664 62.4453 93.2858 63.0221C93.4597 62.3917 93.8036 61.8557 94.1182 61.3657C94.4902 60.785 94.8418 60.2388 94.8879 59.6059C94.939 58.9002 94.7651 58.234 94.5823 57.527C94.2921 56.4078 93.9622 55.1394 94.7165 53.7867C96.6855 50.2619 97.8809 46.5471 98.2696 42.7454C98.6429 39.1046 98.1264 36.2243 96.6893 33.94C94.9313 31.144 91.6199 29.3893 88.2675 29.4518L87.8047 29.4607C85.1402 29.5105 81.1767 29.5858 79.2308 31.1159M93.8075 64.542L93.5901 64.5037C91.4077 63.7125 90.5434 62.8779 89.4323 61.307C87.1181 58.0337 85.0137 53.9819 83.6546 50.1905C80.8597 42.3881 79.3842 37.0794 77.9088 31.0419C77.8551 30.8237 77.9216 30.5939 78.084 30.437C80.269 28.3377 84.7899 28.2522 87.7817 28.1961L88.2407 28.1872C92.0329 28.0991 95.7739 30.1027 97.7633 33.2675C99.3564 35.8006 99.9343 38.9425 99.5315 42.8743C99.1237 46.8482 97.8771 50.7264 95.825 54.403C95.3162 55.3116 95.5348 56.1501 95.8097 57.2093C96.0002 57.9481 96.2176 58.7853 96.1523 59.6977C96.082 60.651 95.6064 61.3925 95.1858 62.0472C94.7766 62.6839 94.4237 63.2327 94.4404 63.8937C94.4455 64.103 94.347 64.3008 94.177 64.4233C94.0683 64.5012 93.9379 64.542 93.8075 64.542" fill="black"/>
<path d="M125.304 36.3125C125.8 41.6966 127.65 46.8714 128.457 52.2159C129.264 57.5591 128.906 63.3694 125.39 68.0465C122.296 72.1646 116.834 74.9912 111.193 75.3958C105.552 75.8003 99.8803 73.77 96.4526 70.1202C93.2294 66.6874 91.5289 58.4281 90.515 54.3189C88.0871 55.0591 85.218 54.6903 83.4689 53.201C81.7199 51.7105 81.3517 49.1059 82.8425 47.3027C84.3333 45.4995 86.4863 44.9406 89.3196 46.8969C88.6496 43.4883 88.7532 40.0491 88.7928 38.4679C88.9002 34.1801 88.0781 27.9589 90.7375 25.7537C92.2436 24.5043 95.6023 23.1184 97.4805 22.3285C99.3894 21.5258 101.904 21.6981 104.371 21.8704C106.099 21.9916 107.804 22.1116 109.258 21.8972C112.789 21.3752 116.645 22.534 119.746 23.879C123.458 25.4882 124.932 32.285 125.304 36.3125" fill="white"/>
<path d="M90.5152 53.686L90.8284 53.7677C90.9793 53.8545 91.0893 53.9987 91.1302 54.1671C91.235 54.5908 91.3475 55.0591 91.4677 55.5619C92.4663 59.7388 94.1373 66.7308 96.9156 69.6876C100.224 73.211 105.676 75.1572 111.147 74.7654C116.624 74.3723 121.888 71.6529 124.884 67.6675C127.792 63.7957 128.785 58.6285 127.83 52.3103C127.483 50.0082 126.927 47.6881 126.39 45.4434C125.685 42.4993 124.957 39.4544 124.673 36.3712C124.244 31.7261 122.632 25.8201 119.495 24.4597C115.575 22.7586 112.162 22.1078 109.352 22.5225C107.837 22.7459 106.066 22.6221 104.354 22.5034C101.97 22.3375 99.5021 22.1639 97.7275 22.9117L97.514 23.0011C95.646 23.7846 92.5212 25.0978 91.143 26.2399C89.2699 27.793 89.3453 31.9328 89.4131 35.5864C89.431 36.6112 89.4489 37.5798 89.4272 38.4846L89.4233 38.5892C89.3837 40.1857 89.2993 43.5075 89.9424 46.7744C89.9923 47.0283 89.8836 47.2849 89.6675 47.4265C89.4514 47.5669 89.1727 47.5643 88.9592 47.4176C86.6834 45.8454 84.7899 45.9423 83.3311 47.7047C82.0947 49.2016 82.3351 51.4043 83.8796 52.72C85.4126 54.0242 88.0054 54.4236 90.3298 53.7141L90.5152 53.686M109.761 76.0798C104.428 76.0798 99.2541 74.0278 95.9912 70.5528C92.9828 67.351 91.3297 60.433 90.2352 55.8555C90.1713 55.5913 90.1112 55.3374 90.0524 55.0949C87.5029 55.6704 84.7605 55.1319 83.0575 53.6822C80.9811 51.9134 80.6717 48.9349 82.3543 46.9007C83.3311 45.719 85.3461 44.1379 88.4695 45.6616C88.0515 42.7354 88.1205 39.9802 88.1563 38.5573L88.1589 38.4526C88.1819 37.5759 88.164 36.6201 88.1461 35.6094C88.0732 31.6712 87.9914 27.2085 90.3324 25.2662C91.8564 24.0041 95.0898 22.6463 97.0217 21.8347L97.2352 21.7453C99.2899 20.8814 101.91 21.0652 104.442 21.2413C106.162 21.3612 107.787 21.4748 109.167 21.2706C112.215 20.8227 115.86 21.5041 120 23.2997C124.7 25.3377 125.769 34.4494 125.935 36.2551C126.211 39.2477 126.928 42.2479 127.622 45.1499C128.166 47.4201 128.728 49.767 129.084 52.1215C130.09 58.7881 129.017 64.2742 125.898 68.4268C122.687 72.6968 117.071 75.6089 111.238 76.0262C110.746 76.062 110.253 76.0798 109.761 76.0798Z" fill="black"/>
<path d="M107.759 29.8923C108.498 32.2251 112.5 35.2584 114.847 35.2891C117.194 35.3197 117.972 34.1712 118.709 31.8563C120.938 33.5025 122.651 35.2304 124.83 35.8442C128.159 36.7822 131.965 34.4149 132.729 30.9298C133.495 27.4446 131.072 23.5115 127.7 22.765C129.948 23.0968 131.948 20.6746 131.783 18.3151C131.616 15.9555 129.773 13.9698 127.65 13.1148C125.525 12.2597 123.174 12.3478 120.865 12.2215C121.521 9.86058 120.189 7.20876 118.161 5.91219C116.133 4.6169 113.593 4.48928 111.282 4.98187C109.765 5.30601 108.26 5.90455 107.139 7.00969C106.016 8.11483 105.336 9.79296 105.555 11.5081C103.284 9.11661 99.8344 7.67839 96.7927 8.69675C93.751 9.71512 91.745 13.7184 91.7424 16.3511C90.065 14.6296 87.9516 13.2794 85.6336 13.6099C81.0334 14.2671 80.3404 18.287 82.8706 23.1555C80.302 22.1627 76.7285 23.5447 75.8783 27.2213C75.2441 29.9586 76.5968 34.1061 78.6361 36.0241C80.6754 37.9422 87.3724 39.1405 91.6555 35.4665C94.0361 33.4246 95.0206 30.8404 95.5525 28.4477C97.1123 30.6529 98.2464 32.1638 101.736 32.9754C104.282 33.5676 107.136 32.3246 107.759 29.8923" fill="#D0E2F2"/>
<path d="M81.1562 23.4757C80.4185 23.4757 79.6616 23.6595 78.9789 24.0206C77.7221 24.6842 76.8411 25.8723 76.4959 27.3628C75.9206 29.8462 77.148 33.755 79.0709 35.5633C80.9977 37.3755 87.3124 38.3568 91.2426 34.9865C93.6859 32.8911 94.5196 30.1729 94.9338 28.3097C94.9888 28.066 95.1818 27.8758 95.4273 27.8273C95.6754 27.7788 95.926 27.8784 96.0704 28.0826C97.5075 30.1155 98.547 31.5843 101.879 32.3589C103.973 32.8464 106.588 31.9084 107.145 29.7352C107.214 29.4621 107.458 29.2681 107.741 29.2592C108.026 29.2502 108.277 29.4315 108.362 29.702C109.014 31.7579 112.776 34.6292 114.855 34.6573C116.652 34.6751 117.349 34.0371 118.105 31.6647C118.168 31.4695 118.32 31.3176 118.514 31.2551C118.708 31.1913 118.922 31.2257 119.087 31.3482C119.649 31.763 120.176 32.1815 120.685 32.5848C122.189 33.7793 123.488 34.8091 125.003 35.2354C126.382 35.6246 127.953 35.3796 129.313 34.5654C130.754 33.704 131.774 32.3283 132.11 30.7944C132.799 27.6538 130.589 24.0525 127.562 23.3825C127.23 23.3085 127.015 22.9844 127.076 22.65C127.139 22.3157 127.452 22.0911 127.792 22.1396C128.522 22.248 129.278 21.9813 129.916 21.3917C130.753 20.6171 131.227 19.4545 131.15 18.3596C130.993 16.1174 129.159 14.4036 127.413 13.7004C125.785 13.0457 124.008 12.9794 122.127 12.9092C121.695 12.8926 121.262 12.876 120.831 12.8531C120.639 12.8416 120.463 12.7458 120.35 12.5902C120.239 12.4345 120.203 12.2367 120.254 12.0516C120.799 10.0915 119.752 7.68083 117.82 6.44425C116.147 5.37611 113.873 5.07748 111.416 5.6007C109.769 5.95292 108.48 6.57696 107.584 7.46006C106.539 8.48863 106.002 10.0085 106.182 11.4289C106.218 11.6994 106.074 11.9623 105.826 12.0797C105.579 12.1971 105.284 12.1422 105.094 11.9431C102.75 9.47252 99.5698 8.43374 96.9948 9.29514C94.1782 10.2395 92.378 14.1049 92.3755 16.351C92.3755 16.6087 92.2195 16.841 91.9804 16.9367C91.7413 17.0337 91.4677 16.9763 91.2874 16.7925C89.3862 14.84 87.5144 13.9786 85.7232 14.2364C84.1237 14.4648 83.0318 15.1259 82.4769 16.2017C81.6727 17.7637 82.0116 20.1296 83.4333 22.8644C83.5548 23.0979 83.519 23.3812 83.3425 23.5778C83.1674 23.773 82.8886 23.8407 82.6419 23.7449C82.1752 23.565 81.6702 23.4757 81.1562 23.4757M84.7579 38.4742C81.9208 38.4742 79.3599 37.5733 78.2015 36.4847C75.9628 34.3778 74.5883 29.9828 75.2608 27.0783C75.6904 25.224 76.8002 23.7411 78.3856 22.9027C79.4289 22.3514 80.6129 22.1255 81.7393 22.2416C80.6269 19.623 80.4837 17.3055 81.3506 15.6223C82.0921 14.1828 83.5432 13.2704 85.5442 12.9832C87.439 12.714 89.3504 13.3954 91.2401 15.011C91.7669 12.2073 93.8189 9.02461 96.5908 8.09685C99.2412 7.20865 102.392 7.98327 104.933 10.0672C105.112 8.75916 105.726 7.51237 106.694 6.55909C107.765 5.50499 109.264 4.76611 111.151 4.36412C113.937 3.76944 116.548 4.13058 118.502 5.37993C120.644 6.74796 121.893 9.32066 121.625 11.6228C121.809 11.6305 121.992 11.6382 122.174 11.6445C124.082 11.716 126.055 11.79 127.887 12.5276C130.425 13.5498 132.244 15.8571 132.414 18.2703C132.518 19.7391 131.89 21.2909 130.778 22.3195C130.488 22.5875 130.178 22.8083 129.856 22.9805C132.45 24.5987 134.029 27.9639 133.349 31.0649C132.937 32.9383 131.703 34.6101 129.965 35.6514C128.306 36.643 126.372 36.9352 124.659 36.4541C122.898 35.9577 121.439 34.8002 119.896 33.5751C119.61 33.3492 119.319 33.1183 119.02 32.8873C118.265 34.8462 117.207 35.9462 114.838 35.922C112.634 35.8939 109.297 33.6223 107.796 31.3661C106.604 33.2076 104.102 34.1762 101.591 33.5917C98.5546 32.8847 97.1994 31.6992 95.8326 29.9075C95.2778 31.7898 94.2536 34.0728 92.0686 35.9449C89.9206 37.7889 87.2344 38.4742 84.7579 38.4742" fill="black"/>
<path d="M121.001 44.5512C121.017 43.8825 120.457 43.3261 119.75 43.3083C119.044 43.2917 118.458 43.82 118.441 44.4887C118.426 45.1574 118.984 45.7138 119.691 45.7317C120.398 45.7483 120.984 45.2199 121.001 44.5512Z" fill="black"/>
<path d="M103.322 47.0769C103.339 46.4082 102.779 45.8518 102.072 45.8352C101.366 45.8173 100.779 46.3456 100.763 47.0156C100.747 47.6843 101.306 48.2394 102.013 48.2573C102.72 48.2739 103.306 47.7456 103.322 47.0769Z" fill="black"/>
<path d="M109.87 67.6559C108.089 67.6559 106.309 66.9757 105.027 65.7225C104.777 65.4775 104.772 65.0768 105.018 64.828C105.263 64.5778 105.663 64.574 105.914 64.8177C107.387 66.2585 109.771 66.7753 111.71 66.076C112.039 65.956 112.403 66.1271 112.521 66.455C112.64 66.7843 112.47 67.1467 112.14 67.2654C111.41 67.5283 110.639 67.6559 109.87 67.6559" fill="black"/>
<path d="M112.354 60.7162C112.226 60.7162 112.098 60.7111 111.973 60.7034C110.566 60.6128 109.303 59.999 108.511 59.0177C108.291 58.7458 108.333 58.3477 108.605 58.1282C108.878 57.9087 109.276 57.9521 109.496 58.2226C110.059 58.9194 111.015 59.3737 112.053 59.4413C112.983 59.5 114.001 59.2793 115.076 58.7828C115.431 58.6195 115.824 58.4115 116.045 58.1065C116.311 57.7389 116.361 57.1634 116.179 56.5687C116.018 56.0429 115.718 55.5504 115.398 55.0297L115.243 54.7745C113.35 51.6352 112.188 48.0453 111.881 44.3943C111.851 44.0459 112.111 43.7396 112.46 43.7115C112.805 43.6784 113.115 43.94 113.144 44.2884C113.434 47.748 114.535 51.1477 116.329 54.1223L116.48 54.3699C116.826 54.9352 117.183 55.5197 117.391 56.1986C117.693 57.1851 117.577 58.1511 117.072 58.8479C116.679 59.389 116.112 59.6991 115.608 59.9314C114.479 60.452 113.386 60.7162 112.354 60.7162" fill="black"/>
<path d="M90.0037 50.3501C89.7224 50.3501 89.4654 50.1612 89.3912 49.8767C89.0831 48.7026 88.9399 48.0722 88.6816 46.9262C88.6037 46.5855 88.8185 46.2473 89.1598 46.1694C89.5012 46.0929 89.84 46.3073 89.9167 46.648C90.1737 47.7799 90.3144 48.4027 90.6174 49.5563C90.7056 49.8945 90.5036 50.2404 90.1648 50.3297L90.0037 50.3501" fill="black"/>
<path d="M84.9765 35.9832L84.823 35.964C82.2238 35.3195 80.1551 32.9204 79.9032 30.2583C79.8712 29.91 80.127 29.6024 80.4747 29.5692C80.8238 29.5361 81.1332 29.7926 81.1651 30.1397C81.3671 32.2849 83.0343 34.217 85.1286 34.7364C85.4687 34.8206 85.6746 35.1639 85.5902 35.5033C85.5186 35.7905 85.2603 35.9832 84.9765 35.9832Z" fill="black"/>
<path d="M124.394 38.1859C123.445 38.0723 122.608 37.507 121.79 37.045C120.845 36.4439 119.927 35.8046 119.021 35.1461C118.787 35.4869 118.533 35.8123 118.236 36.0994C117.486 36.7426 116.519 37.0016 115.546 37.0016C115.015 37.0016 114.479 36.9238 113.976 36.7898C112.59 36.4274 112.038 36.0598 111.225 35.6119C110.423 35.1244 109.652 34.5808 108.962 33.944C108.713 34.4915 108.371 34.9981 107.935 35.4116C107.323 35.9565 106.536 36.347 105.714 36.4223L105.821 36.4184L105.58 36.4567C105.336 36.4861 105.092 36.4988 104.848 36.4988C104.055 36.4988 103.263 36.3585 102.492 36.176C101.022 35.8199 99.5902 35.2303 98.3577 34.346C97.5982 33.7704 96.8771 33.117 96.3478 32.3207C96.3081 32.2544 96.2928 32.2288 96.2915 32.2288C96.2902 32.2288 96.3491 32.3348 96.4015 32.4024C96.1765 32.1166 95.977 31.8128 95.7826 31.5078C95.6676 31.3292 95.532 31.1428 95.5512 30.9221C95.5461 30.8697 95.5474 30.82 95.5512 30.7715C95.5934 30.6528 95.6344 30.5341 95.6727 30.418C95.7545 30.2929 95.8709 30.1947 96.0038 30.1283C97.3156 31.7962 98.6811 32.9142 101.591 33.5918C102.086 33.7066 102.579 33.7615 103.063 33.7615C104.584 33.7615 106.005 33.2166 107.013 32.2888C107.088 32.2684 107.163 32.2582 107.24 32.2582C107.244 32.2582 107.249 32.2582 107.252 32.2582L107.364 32.1918L107.383 32.1229L107.388 32.077L107.348 31.9506C107.512 31.7669 107.662 31.5716 107.796 31.3662C109.297 33.6224 112.634 35.894 114.838 35.922C114.865 35.922 114.891 35.922 114.916 35.922C117.23 35.922 118.272 34.8245 119.02 32.8874C119.319 33.1183 119.61 33.3493 119.896 33.5752C121.439 34.8003 122.898 35.9578 124.659 36.4542C124.666 36.4555 124.674 36.458 124.682 36.4606C124.733 37.008 124.799 37.5555 124.877 38.1017C124.731 38.1514 124.57 38.1808 124.394 38.1859" fill="#DEDEDE"/>
<path d="M124.877 38.1017C124.799 37.5555 124.733 37.008 124.682 36.4606C125.054 36.5627 125.436 36.6303 125.823 36.6609C125.858 37.2722 125.523 37.8822 124.877 38.1017" fill="black"/>
<path d="M124.375 35.0212C123.51 34.6741 122.701 34.1381 121.86 33.5026C122.677 34.045 123.528 34.5274 124.375 35.0212Z" fill="#96B9D7"/>
<path d="M125.823 36.6608C125.436 36.6301 125.054 36.5625 124.682 36.4604C124.674 36.4579 124.666 36.4553 124.659 36.454C122.898 35.9576 121.439 34.8002 119.896 33.5751C119.61 33.3492 119.32 33.1182 119.02 32.8872C118.272 34.8244 117.23 35.9219 114.916 35.9219C114.891 35.9219 114.865 35.9219 114.838 35.9219C112.634 35.8938 109.297 33.6223 107.796 31.366C107.662 31.5715 107.512 31.7668 107.349 31.9505L107.32 31.865C107.205 31.3329 107.662 30.7395 108.205 30.7395C108.213 30.7395 108.222 30.7395 108.229 30.7407C108.258 30.7382 108.284 30.7369 108.31 30.7369C108.821 30.7369 109.209 31.2001 109.329 31.6825C109.462 31.8344 109.601 31.9799 109.75 32.1177C110.358 32.6141 111.017 33.0493 111.671 33.4819C111.797 33.5674 112.143 33.7665 112.202 33.8073L112.286 33.8545C112.997 34.231 114.402 34.804 115.587 34.804C115.589 34.804 115.59 34.804 115.591 34.804H115.609C115.884 34.7785 116.155 34.7223 116.42 34.647L116.652 34.5449L116.754 34.4709L116.98 34.2591L117.035 34.1914L117.105 34.0906C117.324 34.023 117.533 33.9183 117.712 33.7792C117.528 32.9344 118.106 31.9492 119.078 31.9492C119.161 31.9492 119.248 31.9556 119.336 31.9709C120.166 32.11 120.781 32.8808 121.515 33.2688C121.629 33.3479 121.744 33.4257 121.86 33.5023C122.701 34.1378 123.511 34.6738 124.375 35.0209C124.569 35.1345 124.762 35.2481 124.955 35.3629C125.517 35.6513 125.795 36.1567 125.823 36.6608M103.063 33.7614C102.58 33.7614 102.086 33.7065 101.591 33.5917C98.6813 32.914 97.3158 31.7961 96.004 30.1282C96.1012 30.0797 96.206 30.0478 96.3147 30.0325C96.6778 30.3273 97.0512 30.6067 97.4322 30.876C97.4782 30.9449 97.5562 31.0496 97.7377 31.2869C97.8387 31.4069 97.9487 31.5205 98.0574 31.6353C98.2555 31.4784 98.5087 31.3775 98.8206 31.3737C99.9573 31.6047 99.7859 31.7629 100.456 31.9595C102.251 32.6256 102.737 32.7353 104.23 32.8298C104.239 32.8298 104.248 32.8298 104.258 32.8298C104.598 32.8298 104.872 32.9651 105.074 33.168C105.473 33.0327 106.069 32.7813 106.566 32.521L106.763 32.4087C106.838 32.3538 106.924 32.3142 107.014 32.2887C106.005 33.2164 104.584 33.7614 103.063 33.7614M95.5514 30.7714C95.5629 30.6374 95.6077 30.5187 95.6729 30.4179C95.6345 30.534 95.5936 30.6527 95.5514 30.7714Z" fill="black"/>
<path d="M87.7381 42.5376C87.7164 42.5376 87.6959 42.5376 87.6729 42.5363C87.4134 42.5146 87.1986 42.3793 87.0106 42.2122C87.0132 42.2173 87.0132 42.2186 87.0093 42.2186C86.9595 42.2186 86.3816 41.8485 86.2307 41.7847C85.5428 41.3993 84.263 40.8467 83.0024 40.2916C82.5229 40.0963 82.0371 39.9126 81.5474 39.7454C81.3659 39.1367 81.192 38.5356 81.0232 37.9409C82.1253 38.2714 83.4102 38.4744 84.7578 38.4744C85.8753 38.4744 87.0336 38.3353 88.1677 38.0124C88.1651 38.1617 88.1626 38.3084 88.1588 38.4527L88.1562 38.5573C88.1345 39.4391 88.0986 40.8327 88.1754 42.461C88.0539 42.5108 87.9094 42.5376 87.7381 42.5376" fill="#96B9D7"/>
<path d="M81.5475 39.7452C81.3698 39.6853 81.1921 39.6278 81.0131 39.5717L80.8545 39.5359L80.673 39.4938C80.2293 39.3573 79.9788 38.857 80.136 38.4206C80.2626 38.0569 80.5324 37.9229 80.8443 37.8859C80.9031 37.905 80.9632 37.9229 81.0233 37.9408C81.1921 38.5354 81.366 39.1365 81.5475 39.7452" fill="black"/>
<path d="M88.1754 42.4609C88.0987 40.8326 88.1345 39.439 88.1563 38.5572L88.1588 38.4525C88.1626 38.3083 88.1652 38.1616 88.1677 38.0123C88.3518 37.96 88.536 37.9025 88.7175 37.8413C88.8083 37.9944 88.8531 38.1769 88.83 38.376C88.761 38.9975 88.683 39.6215 88.6984 40.2468C88.8083 41.0087 88.9272 42.1572 88.1754 42.4609" fill="black"/>
<path d="M84.7578 38.4742C83.4103 38.4742 82.1253 38.2713 81.0232 37.9408C80.9631 37.9229 80.9031 37.9051 80.8442 37.8859C80.9171 37.877 80.9938 37.8732 81.0705 37.8732C81.2649 37.8732 81.4643 37.8961 81.6484 37.9127C82.4846 37.9765 83.3233 37.9255 84.1595 37.9701C84.6671 38.002 85.1746 38.0518 85.6835 38.0518C85.7922 38.0518 85.9021 38.0493 86.0108 38.0442H85.9942C86.0939 38.0416 86.1821 38.0378 86.1975 38.0378C86.2116 38.0378 86.1617 38.0403 85.998 38.0467C85.9993 38.0467 86.0006 38.0467 86.0019 38.0467C86.1438 38.0467 86.287 38.034 86.4302 38.0212C86.5734 38.0072 86.7153 37.9944 86.8559 37.9944C86.902 37.9944 86.9467 37.9957 86.9915 37.9982C87.0439 37.84 87.1244 37.6945 87.2651 37.5784C87.4364 37.4201 87.6448 37.35 87.8532 37.35C88.1984 37.35 88.5436 37.5426 88.7175 37.8412C88.5359 37.9025 88.3518 37.9599 88.1677 38.0123C87.0336 38.3351 85.8753 38.4742 84.7578 38.4742" fill="black"/>
<path d="M118.933 86.1716C118.664 86.0746 118.41 85.8768 118.168 85.7467C116.825 85.1137 115.469 84.445 114.097 83.738C108.892 81.053 104.196 78.1842 99.9866 75.2899C99.9675 75.281 99.9495 75.2733 99.9316 75.2644C100.03 74.7654 100.13 74.2613 100.228 73.7509C103.041 75.2491 106.369 76.0799 109.761 76.0799C110.253 76.0799 110.746 76.062 111.238 76.0263C114.051 75.8259 116.812 75.0436 119.277 73.8109C119.277 77.6789 119.438 81.552 119.761 85.4059C119.504 85.7518 119.19 86.0006 118.933 86.1716" fill="#DEDEDE"/>
<path d="M119.761 85.4056C119.438 81.5517 119.277 77.6786 119.277 73.8106C119.374 73.7621 119.469 73.7136 119.565 73.6638C119.582 74.2789 119.606 75.2092 119.614 75.4848C119.725 79.6732 119.781 81.7737 119.845 82.0366C120.107 83.1277 120.46 83.9151 120.076 84.8505C119.991 85.0585 119.882 85.2423 119.761 85.4056ZM99.9316 75.2641C99.2015 74.9119 99.2553 73.9152 99.8293 73.5311C99.961 73.6064 100.094 73.6791 100.228 73.7506C100.13 74.261 100.03 74.7651 99.9316 75.2641" fill="black"/>
<path d="M109.761 76.0798C106.369 76.0798 103.041 75.2491 100.228 73.7509C100.094 73.6794 99.961 73.6067 99.8293 73.5314C99.9112 73.4765 100.004 73.4344 100.108 73.4076C100.907 73.8734 101.766 74.2281 102.663 74.4999L102.775 74.5638L102.803 74.5433C104.653 75.0844 106.636 75.295 108.523 75.4264C108.893 75.4673 109.262 75.5017 109.628 75.5234C109.628 75.5234 110.023 75.5439 110.426 75.5464C110.427 75.5464 110.428 75.5464 110.43 75.5464C111.137 75.5464 114.741 74.7399 119.552 73.1804C119.555 73.2774 119.56 73.4523 119.565 73.6641C119.469 73.7139 119.374 73.7623 119.277 73.8108C116.812 75.0436 114.051 75.8259 111.238 76.0262C110.746 76.062 110.253 76.0798 109.761 76.0798" fill="black"/>
<path d="M112.941 107.001C112.901 106.823 112.862 106.646 112.821 106.468C112.845 106.452 112.868 106.437 112.891 106.42C112.96 106.604 112.98 106.807 112.941 107.001Z" fill="#DEDEDE"/>
<path d="M110.334 109.41C110.177 109.41 110.024 109.364 109.889 109.285C109.89 109.202 109.89 109.119 109.891 109.035V108.98C109.895 108.253 109.899 107.5 110.147 106.934C110.177 106.871 110.206 106.819 110.234 106.777C110.595 106.9 110.944 106.96 111.284 106.96C111.381 106.96 111.477 106.955 111.573 106.945C111.594 106.957 111.616 106.971 111.638 106.985C111.725 107.375 111.812 107.764 111.899 108.153C111.647 108.38 111.481 108.544 111.377 108.681C111.156 108.965 110.964 109.328 110.568 109.376C110.489 109.399 110.411 109.41 110.334 109.41" fill="#DEDEDE"/>
<path d="M109.889 109.285C109.581 109.105 109.364 108.753 109.376 108.387C109.232 107.528 109.343 107.396 109.139 106.944C109.054 106.671 109.078 106.44 109.17 106.26C109.536 106.489 109.89 106.661 110.234 106.777C110.206 106.819 110.177 106.87 110.147 106.934C109.899 107.5 109.895 108.253 109.892 108.98V109.035C109.89 109.119 109.89 109.202 109.889 109.285ZM111.899 108.153C111.812 107.764 111.725 107.375 111.638 106.985C111.616 106.971 111.595 106.957 111.573 106.944C111.646 106.937 111.719 106.927 111.791 106.914C112.149 106.849 112.496 106.687 112.821 106.468C112.862 106.646 112.901 106.823 112.941 107.001C112.895 107.219 112.771 107.426 112.551 107.581C112.288 107.811 112.073 107.997 111.899 108.153" fill="black"/>
<path d="M111.284 106.96C110.944 106.96 110.595 106.9 110.234 106.777C109.89 106.661 109.536 106.489 109.17 106.261C109.311 105.981 109.613 105.824 109.92 105.824C110.278 105.824 110.643 106.039 110.77 106.522C111.059 106.215 111.363 105.888 111.73 105.799C111.822 105.774 111.912 105.762 111.997 105.762C112.423 105.762 112.753 106.054 112.891 106.42C112.868 106.437 112.845 106.452 112.821 106.469C112.496 106.687 112.149 106.849 111.791 106.914C111.719 106.927 111.646 106.937 111.573 106.945C111.477 106.955 111.381 106.96 111.284 106.96" fill="black"/>
<path d="M103.055 108.528C102.79 108.528 102.565 108.403 102.409 108.218C102.531 108.18 102.639 108.105 102.719 108C104.029 106.284 105.218 104.59 106.342 102.922C106.622 103.773 107.181 104.607 107.976 105.344C107.073 105.97 106.203 106.636 105.333 107.307C104.459 107.913 103.777 108.327 103.298 108.494C103.213 108.517 103.133 108.528 103.055 108.528" fill="#DEDEDE"/>
<path d="M107.976 105.344C107.181 104.607 106.622 103.774 106.342 102.922C106.519 102.659 106.694 102.398 106.866 102.138C107.301 102.319 107.59 102.85 107.355 103.322C107.274 103.477 107.19 103.631 107.104 103.784L107.34 103.697C107.421 103.674 107.501 103.664 107.577 103.664C108.359 103.664 108.78 104.777 108.07 105.279C108.039 105.301 108.007 105.323 107.976 105.344Z" fill="black"/>
<path d="M102.409 108.218C102.095 107.846 102.062 107.224 102.54 106.877C102.748 106.444 103.238 106.176 103.524 105.791C104.224 105.02 104.991 104.016 105.172 103.642C105.332 103.376 105.501 103.115 105.638 102.837C105.758 102.546 105.92 102.245 106.237 102.135C106.341 102.091 106.446 102.071 106.548 102.071C106.659 102.071 106.767 102.095 106.866 102.137C106.694 102.398 106.519 102.659 106.342 102.922C105.218 104.59 104.029 106.284 102.719 108C102.639 108.105 102.531 108.18 102.409 108.218" fill="black"/>
<path d="M120.668 105.642C120.549 105.642 120.427 105.616 120.303 105.558C119.666 105.283 118.942 105.129 117.808 104.796C117.16 104.636 116.488 104.623 115.83 104.531C115.66 104.503 115.517 104.447 115.397 104.372C115.306 104.405 115.213 104.422 115.121 104.422C114.983 104.422 114.847 104.386 114.726 104.322C114.768 104.249 114.806 104.179 114.841 104.115C115.033 103.749 115.853 101.806 115.789 100.924C115.807 100.923 115.825 100.921 115.843 100.921C116.191 100.921 116.528 101.138 116.688 101.448L116.779 101.455C117.161 101.515 117.422 101.829 117.706 102.065C118.178 102.479 118.143 102.582 118.215 102.723L118.224 102.738L118.394 103.066C118.786 103.172 119.174 103.297 119.559 103.435C120.139 103.653 120.833 103.74 121.301 104.166C121.875 104.737 121.363 105.642 120.668 105.642" fill="#DEDEDE"/>
<path d="M114.726 104.322C114.346 104.126 114.098 103.661 114.319 103.17C114.507 102.723 114.664 102.266 114.887 101.835C114.992 101.609 115.034 101.335 115.244 101.179C115.408 101.014 115.599 100.935 115.789 100.924C115.853 101.806 115.033 103.749 114.841 104.115C114.806 104.179 114.768 104.249 114.726 104.322Z" fill="black"/>
<path d="M111.275 377.539C110.053 383.277 109.044 389.074 108.251 394.908C108.141 395.716 108.082 398.207 108.626 398.738C109.048 399.149 130.733 399.921 142.159 398.738C142.391 396.374 141.377 392.231 139.636 390.923C137.463 389.292 126.166 389.487 124.009 387.831C120.735 385.317 120.691 379.939 121.002 375.451C117.498 375.225 113.955 375.817 111.275 377.539" fill="white"/>
<path d="M109.077 398.294H109.081H109.077ZM109.021 398.193C111.198 398.552 130.498 399.222 141.557 398.162C141.602 395.859 140.62 392.454 139.254 391.428C138.313 390.722 134.851 390.349 131.797 390.021C128.223 389.637 124.848 389.273 123.623 388.332C120.305 385.785 120.048 380.768 120.328 376.051C117.03 375.937 114.047 376.594 111.839 377.932C110.65 383.548 109.654 389.286 108.879 394.994C108.747 395.965 108.805 397.677 109.021 398.193M125.8 400C124.081 400 122.527 399.986 121.256 399.968C118.022 399.924 114.878 399.831 112.405 399.709C108.52 399.518 108.387 399.388 108.183 399.191C107.24 398.271 107.618 394.858 107.623 394.824C108.415 388.996 109.435 383.136 110.655 377.407C110.689 377.241 110.79 377.097 110.932 377.006C113.522 375.342 117.115 374.568 121.043 374.819C121.21 374.83 121.368 374.907 121.479 375.035C121.589 375.161 121.645 375.327 121.634 375.494C121.337 379.79 121.383 385.017 124.395 387.331C125.338 388.053 128.841 388.43 131.932 388.762C135.462 389.143 138.795 389.501 140.016 390.417C142.061 391.953 143.025 396.408 142.79 398.799C142.76 399.099 142.524 399.336 142.225 399.367C137.291 399.878 130.834 400 125.8 400" fill="black"/>
<path d="M38.6203 375.405C39.8439 381.153 34.7425 398.206 34.1978 398.738C33.7759 399.149 12.0905 399.921 0.665458 398.738C0.432763 396.374 1.44665 392.231 3.18802 390.923C5.36027 389.292 16.6575 389.487 18.8144 387.831C22.0887 385.317 28.9558 379.893 28.6464 375.405C32.1496 375.179 35.9405 373.685 38.6203 375.405Z" fill="white"/>
<path d="M1.2663 398.162C12.2835 399.218 31.4758 398.557 33.7771 398.197C34.7105 396.161 38.9667 381.255 38.05 375.802C36.37 374.875 34.1492 375.242 31.8056 375.627C30.9771 375.764 30.1256 375.903 29.2805 375.987C28.9979 380.811 21.9314 386.235 19.2017 388.332C17.9769 389.273 14.6015 389.637 11.0267 390.021C7.97228 390.349 4.51125 390.722 3.56896 391.428C2.20348 392.454 1.22156 395.86 1.2663 398.162M17.0231 400C11.9895 400 5.53409 399.879 0.600188 399.367C0.29973 399.336 0.0644727 399.099 0.0350662 398.799C-0.201465 396.408 0.762565 391.954 2.80696 390.417C4.02797 389.501 7.36241 389.143 10.8912 388.762C13.9827 388.43 17.4859 388.053 18.4282 387.329C20.8728 385.453 28.3101 379.743 28.0135 375.449C28.002 375.28 28.0582 375.115 28.1694 374.989C28.2794 374.861 28.4367 374.785 28.6054 374.773C29.5797 374.711 30.6063 374.542 31.5985 374.379C34.1786 373.954 36.8469 373.515 38.9629 374.873C39.1048 374.965 39.2045 375.109 39.2391 375.274C40.5112 381.249 35.4316 398.418 34.6401 399.19C34.4369 399.388 34.3039 399.518 30.4184 399.709C27.9457 399.831 24.8017 399.924 21.567 399.968C20.2962 399.986 18.7427 400 17.0231 400" fill="black"/>
<path d="M79.9391 193.014C82.1957 195.849 84.1531 198.98 85.2041 202.446C86.2551 205.911 86.3446 209.746 84.9638 213.093C84.1672 215.025 82.9168 216.733 81.6127 218.365C80.1321 220.219 78.5659 222.006 76.9204 223.716C75.3619 225.337 73.3315 227.015 71.1286 226.555C70.8742 226.502 70.6121 226.411 70.4395 226.217C69.9907 225.712 70.396 224.929 70.8039 224.39C72.8879 221.629 74.9732 218.869 77.1416 216.337C75.2378 218.694 73.2305 220.968 71.1286 223.151C70.3103 224 69.2415 224.908 68.0959 224.623C67.6446 223.518 68.3184 222.303 68.9679 221.301C70.4804 218.967 71.9916 216.633 73.5042 214.299C72.0287 216.428 70.4126 218.461 68.67 220.377C68.2365 220.853 67.5551 221.36 67.0181 221.003C66.609 220.73 66.6077 220.136 66.6972 219.653C67.2879 216.461 69.735 213.998 71.5173 211.284C73.2996 208.569 74.3697 204.726 72.2704 202.249C72.0607 202.001 71.8126 201.753 71.7679 201.432C71.7218 201.103 71.9021 200.789 72.0786 200.507C73.4044 198.386 74.8927 196.365 76.5266 194.47C77.4255 193.425 79.0569 191.907 79.9391 193.014" fill="white"/>
<path d="M75.8809 218.849C74.3262 220.776 72.7996 222.797 71.3101 224.77C70.9201 225.288 70.814 225.685 70.9137 225.797C70.9406 225.828 71.0211 225.885 71.2589 225.936C73.2343 226.346 75.1751 224.616 76.4639 223.278C78.0889 221.589 79.6539 219.803 81.1178 217.972C82.3516 216.425 83.6007 214.736 84.3768 212.853C85.6119 209.862 85.6899 206.23 84.598 202.629C83.6928 199.644 82.0064 196.627 79.4429 193.409C79.347 193.287 79.269 193.262 79.1808 193.261L79.1706 193.259C78.7052 193.259 77.8575 193.895 77.006 194.883C75.3989 196.75 73.9221 198.755 72.6167 200.841C72.54 200.965 72.3789 201.223 72.3956 201.344C72.4096 201.441 72.5477 201.602 72.6704 201.743L72.7536 201.84C75.1329 204.648 73.8608 208.868 72.0478 211.63C71.5709 212.357 71.0429 213.07 70.534 213.761C69.0918 215.713 67.7302 217.557 67.3197 219.768C67.2392 220.207 67.3069 220.435 67.3696 220.476C67.4604 220.536 67.8069 220.385 68.2007 219.953C69.919 218.063 71.5287 216.04 72.9824 213.939C73.1793 213.655 73.568 213.581 73.8556 213.772C74.1433 213.965 74.2239 214.352 74.0359 214.643L69.4996 221.643C68.969 222.464 68.505 223.313 68.5945 224.041C69.3271 224.004 70.0776 223.329 70.6708 222.713C72.122 221.206 73.5398 219.642 74.9028 218.042C75.4845 217.322 76.0701 216.614 76.6595 215.925C76.8845 215.662 77.2796 215.629 77.5468 215.85C77.8128 216.071 77.8524 216.465 77.635 216.733C77.061 217.444 76.4754 218.149 75.8809 218.849M71.8726 227.265C71.5862 227.265 71.2947 227.236 70.9994 227.174C70.7053 227.113 70.2796 226.989 69.9663 226.637C69.7221 226.364 69.4447 225.843 69.7234 225.034C69.1762 225.287 68.5804 225.397 67.9424 225.237C67.7455 225.189 67.5844 225.048 67.509 224.862C67.0346 223.701 67.5345 222.486 68.0204 221.631C67.5358 221.823 67.0653 221.794 66.6664 221.529C66.3468 221.317 65.8456 220.774 66.0744 219.538C66.536 217.04 68.0498 214.992 69.5137 213.009C70.0124 212.334 70.5289 211.635 70.9879 210.937C72.5618 208.539 73.715 204.932 71.787 202.657L71.7115 202.57C71.4865 202.31 71.2052 201.986 71.14 201.52C71.0595 200.943 71.3612 200.459 71.5415 200.172C72.8801 198.03 74.3952 195.974 76.0458 194.058C76.859 193.114 78.0582 191.995 79.1731 191.995H79.2051C79.6922 192.005 80.1167 192.221 80.4363 192.62C83.0995 195.967 84.8575 199.122 85.81 202.263C86.9876 206.142 86.8942 210.074 85.5492 213.334C84.7118 215.364 83.4013 217.141 82.1087 218.759C80.6217 220.623 79.0299 222.437 77.378 224.154C76.0509 225.532 74.1024 227.265 71.8726 227.265" fill="black"/>
<path d="M120.243 83.3971C118.825 88.1648 115.435 94.9054 111.592 97.7563C114.007 99.4778 117.101 102.256 122.122 105.268C122.952 96.8745 124.273 92.7895 124.627 86.2582C123.476 85.5678 121.657 84.0671 120.243 83.3971" fill="white"/>
<path d="M112.631 97.7321C113.157 98.1251 113.714 98.5577 114.329 99.0363C116.214 100.501 118.52 102.294 121.595 104.203C121.969 100.736 122.426 97.9796 122.834 95.5231C123.338 92.4935 123.774 89.8621 123.973 86.5951C123.589 86.345 123.159 86.04 122.71 85.721C122.036 85.2412 121.296 84.7141 120.62 84.3172C119.079 89.0556 115.999 94.8225 112.631 97.7321V97.7321ZM122.122 105.899L121.796 105.81C118.224 103.667 115.632 101.652 113.551 100.034C112.679 99.3566 111.926 98.7709 111.224 98.2706C111.059 98.1532 110.96 97.9643 110.958 97.7627C110.956 97.5598 111.051 97.3696 111.213 97.2484C114.792 94.594 118.159 88.1814 119.635 83.2172C119.688 83.0398 119.816 82.8943 119.984 82.819C120.153 82.7438 120.346 82.7463 120.514 82.8254C121.439 83.2631 122.504 84.0212 123.445 84.6899C124.005 85.0893 124.536 85.4658 124.953 85.7159C125.155 85.8371 125.272 86.0579 125.26 86.2927C125.069 89.8034 124.613 92.5509 124.085 95.7311C123.641 98.3995 123.138 101.425 122.752 105.329C122.732 105.545 122.601 105.735 122.407 105.832L122.122 105.899" fill="black"/>
<path d="M86.8509 184.09C80.0963 197.998 39.6611 326.12 20.2106 379.657C29.1041 379.657 40.2735 379.419 44.8903 379.657C65.6641 335.103 96.8146 265.823 113.096 220.543C114.722 228.129 111.483 277.878 111.592 290.665C111.685 301.665 105.452 366.352 104.482 379.657C105.482 380.59 129.466 379.657 129.466 379.657C137.672 332.436 144.093 270.1 145.719 222.201C146.109 210.739 147.161 200.346 146.476 182.537C134.585 188.95 106.454 191.677 86.8509 184.09" fill="#D0E2F2"/>
<path d="M105.149 379.219C107.607 379.658 120.544 379.364 128.929 379.045C137.115 331.753 143.453 270.249 145.086 222.179C145.184 219.269 145.324 216.475 145.471 213.518C145.894 205.04 146.33 196.28 145.879 183.557C132.933 189.957 105.79 191.852 87.1755 184.89C83.3079 193.391 70.4061 232.4 56.7654 273.648C44.3686 311.129 30.3366 353.556 21.1144 379.024C23.9016 379.02 26.8845 378.995 29.7791 378.971C35.7167 378.92 41.3397 378.872 44.4952 379.005C59.0488 347.78 94.3865 270.704 112.5 220.329C112.596 220.064 112.853 219.895 113.138 219.912C113.42 219.931 113.657 220.135 113.716 220.411C114.763 225.296 113.852 246.731 113.049 265.644C112.587 276.562 112.186 285.991 112.226 290.66C112.29 298.302 109.331 331.56 107.171 355.847C106.263 366.051 105.474 374.916 105.149 379.219M111.341 380.706C104.678 380.706 104.309 380.363 104.05 380.119C103.909 379.989 103.836 379.803 103.85 379.611C104.149 375.506 104.964 366.343 105.909 355.735C108.067 331.475 111.023 298.25 110.958 290.672C110.918 285.969 111.32 276.525 111.784 265.59C112.446 249.97 113.251 231.017 112.773 223.296C94.3136 273.945 59.674 349.448 45.4643 379.925C45.3556 380.158 45.1114 380.298 44.857 380.289C41.8396 380.133 35.9865 380.182 29.7894 380.235C26.5777 380.262 23.256 380.29 20.2105 380.29C20.0034 380.29 19.8103 380.189 19.6914 380.021C19.5725 379.852 19.5444 379.635 19.6147 379.442C28.824 354.093 43.0287 311.143 55.561 273.251C70.1274 229.208 82.707 191.172 86.2805 183.813C86.425 183.517 86.7728 183.381 87.0796 183.501C105.831 190.757 133.744 188.684 146.174 181.981C146.367 181.876 146.6 181.879 146.789 181.987C146.979 182.096 147.1 182.294 147.109 182.513C147.621 195.833 147.171 204.856 146.738 213.581C146.589 216.533 146.451 219.321 146.353 222.223C144.711 270.516 138.328 332.355 130.09 379.766C130.039 380.059 129.789 380.279 129.49 380.29C129.43 380.293 123.418 380.525 117.361 380.64C114.929 380.686 112.951 380.706 111.341 380.706" fill="black"/>
<path d="M180.398 48.4207C180.071 48.4207 179.743 48.4143 179.42 48.4002C179.397 48.2841 179.374 48.168 179.351 48.0518C179.94 48.1501 180.532 48.1948 181.123 48.1948C184.11 48.1948 187.103 47.0539 189.919 45.9079C190.92 45.5008 191.933 45.0835 192.804 44.5361C192.792 44.9432 192.779 45.3502 192.767 45.7573C192.758 46.0228 192.914 46.2563 193.144 46.3584C193.043 46.3814 192.942 46.4056 192.841 46.4299C188.868 47.3806 184.517 48.4207 180.398 48.4207ZM178.01 47.8196C177.944 47.6511 177.906 47.4712 177.897 47.2913C177.935 47.4674 177.973 47.6435 178.01 47.8196Z" fill="#DEDEDE"/>
<path d="M181.123 48.1947C180.532 48.1947 179.94 48.15 179.351 48.0518C179.204 47.3154 179.043 46.5829 178.869 45.853C179.135 45.7611 179.414 45.7343 179.697 45.7343C179.897 45.7343 180.1 45.7483 180.303 45.7611C180.507 45.7751 180.71 45.7879 180.911 45.7879C181.033 45.7879 181.154 45.7841 181.273 45.7713C182.619 45.7509 183.954 45.5722 185.288 45.405C186.951 45.1689 188.604 44.8627 190.243 44.5003C191.246 44.2731 191.186 44.245 191.486 44.1327C191.804 43.9706 192.153 43.843 192.507 43.843C192.611 43.843 192.716 43.8532 192.82 43.8788C192.815 44.097 192.809 44.3165 192.804 44.536C191.933 45.0835 190.92 45.5008 189.919 45.9079C187.103 47.0538 184.11 48.1947 181.123 48.1947" fill="#DEDEDE"/>
<path d="M179.42 48.4003C179.053 48.385 178.689 48.3595 178.327 48.325C178.19 48.1795 178.083 48.006 178.01 47.8196C177.973 47.6435 177.936 47.4674 177.897 47.2913C177.87 46.7119 178.152 46.1262 178.813 45.8735C178.832 45.8671 178.851 45.8595 178.869 45.8531C179.043 46.583 179.204 47.3155 179.351 48.0519C179.374 48.168 179.397 48.2841 179.42 48.4003" fill="black"/>
<path d="M180.518 48.7958C180.145 48.7958 179.77 48.7868 179.397 48.769C179.391 48.769 179.384 48.769 179.378 48.769C178.935 48.769 178.579 48.5929 178.327 48.3249C178.689 48.3593 179.053 48.3848 179.42 48.4002C179.743 48.4142 180.071 48.4206 180.398 48.4206C184.517 48.4206 188.868 47.3805 192.841 46.4298C192.942 46.4055 193.043 46.3813 193.144 46.3583C193.378 46.3022 193.61 46.2473 193.839 46.1925C193.655 46.5268 193.342 46.7986 192.9 46.9186C191.754 47.0334 190.619 47.3307 188.684 47.7621C186.001 48.3338 183.267 48.7958 180.518 48.7958" fill="black"/>
<path d="M73.031 202.065C72.9978 202.065 72.9645 202.064 72.9326 202.061C72.8751 201.987 72.8163 201.913 72.7536 201.84L72.6705 201.743C72.5477 201.602 72.4097 201.441 72.3956 201.344C72.379 201.223 72.5401 200.965 72.6168 200.841C73.9222 198.754 75.3989 196.75 77.006 194.883C77.8576 193.895 78.7052 193.259 79.1706 193.259L79.1808 193.261C79.2691 193.262 79.347 193.287 79.4429 193.409C79.7216 193.757 79.9889 194.104 80.2471 194.45C80.1397 194.621 79.9876 194.77 79.7882 194.879C77.8601 196.239 75.7045 198.946 74.1101 201.45C73.8825 201.868 73.4581 202.065 73.031 202.065" fill="#DEDEDE"/>
<path d="M72.9325 202.061C72.416 202.025 71.9186 201.705 71.7844 201.147C71.553 200.379 72.2114 199.784 72.5681 199.175C73.9246 197.083 75.5561 195.167 77.3512 193.437C77.86 193.024 78.3561 192.344 79.0529 192.344C79.1271 192.344 79.2025 192.352 79.2817 192.368C80.3186 192.449 80.7316 193.677 80.2471 194.45C79.9888 194.104 79.7216 193.757 79.4428 193.409C79.347 193.287 79.269 193.262 79.1808 193.26L79.1705 193.259C78.7051 193.259 77.8575 193.895 77.006 194.882C75.3988 196.749 73.9221 198.754 72.6167 200.841C72.54 200.965 72.3789 201.222 72.3955 201.344C72.4096 201.441 72.5477 201.601 72.6704 201.743L72.7535 201.84C72.8162 201.913 72.875 201.987 72.9325 202.061" fill="black"/>
<path d="M111.198 191.521C107.878 191.521 104.568 191.23 101.265 190.887C96.1663 190.526 91.0393 189.215 86.7779 186.308C86.7165 186.274 86.6603 186.237 86.6091 186.197C86.815 185.702 87.0042 185.267 87.1755 184.89C95.3812 187.96 105.239 189.307 114.813 189.307C126.956 189.306 138.639 187.137 145.879 183.557C145.9 184.181 145.921 184.796 145.939 185.401C145.234 185.719 144.523 186.022 143.807 186.31C141.47 187.18 139.13 188.044 136.765 188.835C132.205 190.218 127.465 191.104 122.71 191.449C121.838 191.501 120.966 191.518 120.093 191.518C119.236 191.518 118.38 191.501 117.522 191.484C116.666 191.468 115.811 191.451 114.954 191.451C114.212 191.451 113.469 191.464 112.727 191.5C112.217 191.514 111.708 191.521 111.198 191.521" fill="#96B9D7"/>
<path d="M114.813 189.307C105.239 189.307 95.3814 187.96 87.1757 184.89C87.0043 185.267 86.8151 185.702 86.6093 186.197C85.6273 185.443 86.204 183.767 87.4109 183.767C87.4876 183.767 87.5682 183.774 87.65 183.788C88.3276 183.887 88.9772 184.569 89.6343 184.843C94.4186 187.541 99.5801 187.84 105.784 188.356C107.421 188.512 109.063 188.561 110.705 188.561C112.922 188.561 115.141 188.473 117.358 188.447C121.8 188.428 125.289 188.068 128.808 187.559C128.67 187.577 128.531 187.596 128.393 187.614C130.197 187.361 131.987 187.018 133.763 186.613C135.552 186.223 137.297 185.656 139.03 185.073C140.906 184.412 142.259 183.918 143.333 183.439C143.144 183.521 143.07 183.552 143.067 183.552C143.062 183.552 143.456 183.378 143.677 183.28C144.263 182.991 144.874 182.66 145.44 182.66C145.861 182.66 146.257 182.843 146.601 183.36C147.006 184.021 146.758 184.959 146.082 185.337C146.033 185.359 145.986 185.38 145.939 185.401C145.921 184.796 145.9 184.181 145.879 183.557C138.64 187.136 126.956 189.306 114.813 189.307" fill="black"/>
<path d="M32.8567 382.653C31.2163 382.653 29.5734 382.545 27.947 382.384C27.9394 382.384 27.9317 382.384 27.9253 382.384C27.3001 382.384 26.8245 382.074 26.5406 381.64C26.9153 381.185 27.2669 380.721 27.5852 380.253C28.3229 380.247 29.0594 380.242 29.7894 380.235C32.6994 380.21 35.5327 380.187 38.0322 380.184C37.9619 380.877 37.8673 381.604 37.7548 382.351C37.5093 382.393 37.2523 382.397 37.0017 382.406C36.5056 382.427 36.0134 382.509 35.5186 382.549C34.6351 382.621 33.7465 382.653 32.8567 382.653" fill="#DEDEDE"/>
<path d="M37.7548 382.351C37.8673 381.605 37.9619 380.877 38.0322 380.184C38.1639 380.184 38.2943 380.184 38.4235 380.184C38.6856 380.184 38.9438 380.184 39.1982 380.184C39.3644 380.881 39.1433 381.668 38.3621 382.134C38.1729 382.253 37.967 382.315 37.7548 382.351ZM26.5407 381.64C26.2773 381.238 26.1763 380.73 26.2709 380.263C26.7082 380.261 27.1467 380.257 27.5852 380.253C27.2669 380.721 26.9153 381.185 26.5407 381.64Z" fill="black"/>
<path d="M27.6095 378.988C27.7847 378.951 27.9624 378.939 28.1427 378.939C28.3459 378.939 28.5518 378.955 28.7589 378.978C28.3766 378.982 27.9931 378.984 27.6095 378.988ZM33.8475 378.937C34.8601 378.895 35.8715 378.857 36.8828 378.849L36.9659 378.83C37.1436 378.783 37.3136 378.761 37.476 378.761C37.7394 378.761 37.9811 378.818 38.1971 378.919C36.8342 378.919 35.3703 378.927 33.8475 378.937" fill="#96B9D7"/>
<path d="M26.2709 380.263C26.3719 379.763 26.6953 379.309 27.2822 379.085C27.3896 379.042 27.4996 379.01 27.6095 378.988C27.9931 378.984 28.3766 378.982 28.7589 378.978C28.8523 378.988 28.9456 379 29.0402 379.011C29.3406 379.048 29.6424 379.085 29.9403 379.085C30.049 379.085 30.1564 379.08 30.2638 379.069C31.4592 379.046 32.6534 378.988 33.8475 378.937C35.3703 378.927 36.8342 378.92 38.1971 378.92C38.7098 379.159 39.0704 379.645 39.1982 380.184C38.9438 380.184 38.6855 380.184 38.4234 380.184C38.2943 380.184 38.1639 380.184 38.0322 380.184C35.5326 380.187 32.6994 380.21 29.7894 380.235C29.0594 380.242 28.3229 380.247 27.5852 380.253C27.1467 380.257 26.7081 380.261 26.2709 380.263" fill="black"/>
<path d="M109.772 381.749C109.675 381.403 109.689 381.026 109.834 380.7C109.881 380.7 109.929 380.7 109.978 380.701C109.909 381.049 109.84 381.399 109.772 381.749Z" fill="#DEDEDE"/>
<path d="M119.709 383.207C119.482 383.207 119.25 383.187 119.02 383.168C118.79 383.149 118.561 383.129 118.336 383.129C118.276 383.129 118.216 383.129 118.156 383.134C115.837 383.084 113.516 383.03 111.202 382.844C111.195 382.844 111.189 382.844 111.183 382.844C111.069 382.844 110.961 382.832 110.86 382.81C110.993 382.108 111.13 381.406 111.27 380.706C111.293 380.706 111.317 380.706 111.341 380.706C112.951 380.706 114.929 380.686 117.361 380.64C118.353 380.621 119.342 380.599 120.306 380.575C120.365 381.421 120.469 382.248 120.632 383.038C120.612 383.047 120.591 383.056 120.57 383.063C120.295 383.174 120.005 383.207 119.709 383.207" fill="#DEDEDE"/>
<path d="M120.633 383.038C120.469 382.248 120.365 381.421 120.307 380.575C120.588 380.568 120.868 380.561 121.143 380.554C121.762 381.294 121.69 382.586 120.633 383.038M110.861 382.81C110.296 382.689 109.916 382.251 109.773 381.749C109.84 381.399 109.909 381.049 109.978 380.701C110.38 380.704 110.81 380.706 111.27 380.706C111.13 381.406 110.994 382.108 110.861 382.81" fill="black"/>
<path d="M111.341 380.706C111.317 380.706 111.293 380.706 111.27 380.706C110.809 380.706 110.38 380.704 109.978 380.701C109.93 380.7 109.881 380.7 109.834 380.7C109.972 380.386 110.23 380.118 110.621 379.969C110.804 379.864 111.006 379.839 111.212 379.839C111.373 379.839 111.536 379.854 111.693 379.857C112.355 379.878 113.02 379.898 113.684 379.903C114.127 379.903 114.57 379.902 115.013 379.902C116.661 379.902 118.309 379.915 119.955 380.017C119.961 380.017 119.969 380.017 119.975 380.017C120.478 380.017 120.875 380.234 121.143 380.554C120.868 380.561 120.588 380.568 120.306 380.575C119.342 380.599 118.353 380.621 117.361 380.64C114.929 380.686 112.951 380.706 111.341 380.706" fill="black"/>
<path d="M108.399 102.55L108.259 102.496L108.242 102.199C109.073 101.273 109.856 100.288 110.569 99.266L110.863 99.2137L110.916 99.5072C110.193 100.543 109.399 101.543 108.557 102.479L108.399 102.55" fill="black"/>
<path d="M109.549 103.93L109.391 103.861L109.408 103.563C110.514 102.569 111.436 101.404 112.145 100.099L112.432 100.014L112.518 100.3C111.784 101.647 110.832 102.851 109.691 103.877L109.549 103.93" fill="black"/>
<path d="M111.37 104.696L111.214 104.628L111.228 104.33C111.855 103.754 112.408 103.101 112.868 102.387L113.159 102.324L113.223 102.616C112.743 103.36 112.167 104.041 111.513 104.641L111.37 104.696" fill="black"/>
<path d="M110.212 111.424L110.085 111.382L110.044 111.086C110.536 110.435 111.055 109.789 111.587 109.165L111.885 109.142L111.909 109.439C111.382 110.056 110.868 110.695 110.381 111.34L110.212 111.424" fill="black"/>
<path d="M110.078 114.892L109.953 114.85L109.909 114.556L111.785 112.039L112.08 111.996L112.124 112.292L110.248 114.807L110.078 114.892" fill="black"/>
<path d="M109.893 118.856L109.789 118.829L109.709 118.542C110.538 117.071 111.44 115.617 112.391 114.221L112.684 114.166L112.74 114.458C111.797 115.844 110.9 117.289 110.077 118.749L109.893 118.856Z" fill="black"/>
<path d="M109.225 124.072L109.126 124.046L109.04 123.76C110.26 121.507 111.561 119.256 112.908 117.07L113.198 117.001L113.267 117.29C111.926 119.47 110.628 121.713 109.411 123.961L109.225 124.072" fill="black"/>
<path d="M108.776 129.192L108.681 129.169L108.589 128.886C110.102 125.918 111.78 122.992 113.572 120.187L113.864 120.122L113.928 120.413C112.143 123.208 110.473 126.123 108.966 129.077L108.776 129.192" fill="black"/>
<path d="M108.087 134.31L107.979 134.281L107.906 133.991L114.044 123.754L114.334 123.681L114.407 123.97L108.269 134.208L108.087 134.31" fill="black"/>
<path d="M107.767 138.932L107.648 138.895L107.593 138.602C110.11 134.932 112.532 131.124 114.79 127.285L115.08 127.21L115.154 127.498C112.891 131.346 110.464 135.161 107.942 138.841L107.767 138.932" fill="black"/>
<path d="M107.662 143.459L107.541 143.421L107.488 143.128C110.329 139.032 113.075 134.793 115.653 130.528L115.943 130.455L116.014 130.745C113.433 135.019 110.68 139.266 107.836 143.367L107.662 143.459" fill="black"/>
<path d="M107.66 147.874L107.535 147.834L107.492 147.538C110.613 143.352 113.497 138.924 116.064 134.375L116.352 134.295L116.432 134.582C113.856 139.147 110.963 143.59 107.83 147.79L107.66 147.874" fill="black"/>
<path d="M109.016 151.213L108.897 151.176L108.842 150.882L116.917 139.137L117.211 139.083L117.266 139.377L109.189 151.121L109.016 151.213Z" fill="black"/>
<path d="M110.362 154.523L110.249 154.491L110.183 154.2C112.571 150.414 115.118 146.659 117.757 143.044L118.051 142.998L118.098 143.293C115.466 146.901 112.923 150.646 110.541 154.425L110.362 154.523" fill="black"/>
<path d="M111.618 157.026L111.491 156.984L111.449 156.689C113.794 153.558 116.118 150.349 118.359 147.147L118.653 147.095L118.706 147.388C116.462 150.594 114.134 153.807 111.786 156.941L111.618 157.026" fill="black"/>
<path d="M112.755 160.202L112.64 160.169L112.578 159.876L116.276 154.198L116.569 154.136L116.632 154.427L112.932 160.106L112.755 160.202" fill="black"/>
</svg>
