<svg width="231" height="260" viewBox="0 0 231 260" fill="none" xmlns="http://www.w3.org/2000/svg">
<path d="M30.4728 2.86102e-05C34.08 2.86102e-05 37.0074 2.92496 37.0074 6.53456C37.0074 10.1442 34.08 13.0691 30.4728 13.0691C26.8632 13.0691 23.9384 10.1442 23.9384 6.53456C23.9384 2.92496 26.8632 2.86102e-05 30.4728 2.86102e-05Z" fill="black"/>
<path d="M4.63474 192.051C3.54122 192.051 2.65087 192.939 2.65087 194.035C2.65087 195.129 3.54122 196.016 4.63474 196.016C5.72826 196.016 6.61849 195.129 6.61849 194.035C6.61849 192.939 5.72826 192.051 4.63474 192.051ZM4.63474 198.397C2.22995 198.397 0.272675 196.44 0.272675 194.035C0.272675 191.628 2.22995 189.67 4.63474 189.67C7.03952 189.67 8.99917 191.628 8.99917 194.035C8.99917 196.44 7.03952 198.397 4.63474 198.397Z" fill="black"/>
<path d="M169.084 104.156C168.994 104.156 168.903 104.146 168.811 104.124C168.169 103.974 167.775 103.333 167.925 102.694C172.739 82.2296 165.76 78.4748 158.197 76.3822C155.683 75.6878 151.767 75.5668 147.397 78.9563C143.974 81.6151 139.873 87.7093 138.961 94.8051C138.879 95.4583 138.289 95.9228 137.628 95.8333C136.977 95.751 136.518 95.1559 136.6 94.5027C137.456 87.8472 141.296 80.6836 145.938 77.0789C149.955 73.9628 154.532 72.8983 158.833 74.0886C167.741 76.5539 175.287 81.7917 170.24 103.239C170.112 103.786 169.623 104.156 169.084 104.156Z" fill="black"/>
<path d="M53.5432 224.879L94.56 76.6507L217.182 110.584L176.165 258.809L53.5432 224.879Z" fill="white"/>
<path d="M55.007 224.049L175.336 257.346L215.719 111.414L95.39 78.1168L55.007 224.049ZM176.168 260C176.062 260 175.955 259.985 175.849 259.957L53.224 226.026C52.9216 225.941 52.6627 225.74 52.5079 225.464C52.3531 225.19 52.3119 224.865 52.3966 224.559L93.4134 76.3338C93.4957 76.0313 93.6989 75.7725 93.9723 75.6176C94.2481 75.4604 94.5722 75.4193 94.8771 75.504L217.499 109.437C218.133 109.611 218.503 110.267 218.329 110.901L177.312 259.126C177.167 259.654 176.688 260 176.168 260Z" fill="black"/>
<path d="M189.636 97.8511C185.366 96.4262 127.554 80.3112 122.825 79.1402C118.588 94.4544 123.594 98.6519 137.207 102.912C158.381 109.541 171.583 113.1 177.69 112.173C185.397 111.002 188.833 105.411 189.636 97.8511Z" fill="#D0E2F2"/>
<path d="M123.669 80.5893C120.253 93.8882 124.283 97.6212 137.563 101.778C158.383 108.295 171.595 111.895 177.513 110.995C183.759 110.047 187.308 106.019 188.334 98.6905C180.232 96.2422 132.502 82.9384 123.669 80.5893ZM175.584 113.501C168.53 113.501 155.749 109.964 136.851 104.049C122.754 99.6365 117.216 94.9454 121.678 78.8208C121.849 78.2015 122.483 77.8289 123.11 77.9837C127.612 79.099 185.758 95.3011 190.013 96.7236C190.543 96.9002 190.879 97.4228 190.819 97.9768C189.87 106.892 185.392 112.207 177.868 113.349C177.188 113.453 176.426 113.501 175.584 113.501Z" fill="black"/>
<path d="M181.067 161.021C181.031 161.021 180.994 161.017 180.96 161.007L121.68 144.604C121.47 144.546 121.346 144.328 121.405 144.115C121.463 143.907 121.68 143.779 121.893 143.84L181.171 160.242C181.381 160.3 181.507 160.521 181.447 160.731C181.401 160.905 181.241 161.021 181.067 161.021Z" fill="black"/>
<path d="M174.728 183.927C174.692 183.927 174.658 183.923 174.622 183.913L115.344 167.51C115.133 167.452 115.008 167.232 115.068 167.021C115.124 166.811 115.341 166.685 115.554 166.745L174.834 183.149C175.045 183.206 175.168 183.425 175.11 183.637C175.062 183.811 174.902 183.927 174.728 183.927Z" fill="black"/>
<path d="M168.39 206.833C168.353 206.833 168.32 206.829 168.283 206.819L109.006 190.416C108.795 190.358 108.669 190.138 108.73 189.928C108.785 189.717 109.003 189.591 109.216 189.652L168.496 206.055C168.707 206.112 168.83 206.33 168.772 206.543C168.724 206.717 168.564 206.833 168.39 206.833Z" fill="black"/>
<path d="M103.325 143.053C103.224 143.053 103.122 143.041 103.021 143.015C102.653 142.915 102.353 142.649 102.215 142.294L98.7166 133.255C98.477 132.641 98.7819 131.951 99.3964 131.716C100.011 131.479 100.698 131.782 100.935 132.394L103.843 139.906L111.662 133.524C112.17 133.107 112.92 133.185 113.336 133.693C113.75 134.203 113.675 134.953 113.167 135.367L104.078 142.785C103.862 142.961 103.596 143.053 103.325 143.053Z" fill="black"/>
<path d="M96.7009 166.987C96.5993 166.987 96.4978 166.975 96.3962 166.949C96.0284 166.852 95.7284 166.583 95.5929 166.228L92.0922 157.189C91.8551 156.575 92.16 155.888 92.7721 155.651C93.3866 155.414 94.076 155.716 94.3107 156.328L97.2187 163.84L105.038 157.458C105.548 157.042 106.296 157.119 106.712 157.627C107.128 158.138 107.051 158.888 106.543 159.301L97.4533 166.721C97.2404 166.896 96.9719 166.987 96.7009 166.987Z" fill="black"/>
<path d="M90.0791 190.924C89.9775 190.924 89.8759 190.909 89.7767 190.883C89.4066 190.786 89.1066 190.517 88.9711 190.162L85.4704 181.123C85.2309 180.511 85.5357 179.822 86.1478 179.585C86.7647 179.345 87.4518 179.652 87.6889 180.262L90.5969 187.774L98.416 181.392C98.9241 180.976 99.6742 181.054 100.09 181.564C100.504 182.071 100.429 182.822 99.9209 183.235L90.8316 190.655C90.6163 190.83 90.3501 190.924 90.0791 190.924Z" fill="black"/>
<path d="M218.372 19.7754C212.871 19.7754 208.395 24.2487 208.395 29.7502C208.395 35.2517 212.871 39.7274 218.372 39.7274C223.874 39.7274 228.35 35.2517 228.35 29.7502C228.35 24.2487 223.874 19.7754 218.372 19.7754ZM218.372 42.1055C211.56 42.1055 206.017 36.5629 206.017 29.7502C206.017 22.9374 211.56 17.3948 218.372 17.3948C225.185 17.3948 230.728 22.9374 230.728 29.7502C230.728 36.5629 225.185 42.1055 218.372 42.1055Z" fill="black"/>
</svg>
