<svg width="116" height="80" viewBox="0 0 116 80" fill="none" xmlns="http://www.w3.org/2000/svg">
<path d="M63.1744 31.5816C76.7716 25.8876 85.5611 27.3282 89.5365 29.3946C91.1137 30.2157 96.7044 34.3356 101.037 51.0125C101.212 51.6859 101.402 52.48 100.937 52.9724C96.0151 50.3565 87.216 43.4094 77.1464 39.0814C71.9019 36.8277 75.0452 41.3288 71.03 40.2234C69.3719 39.7675 67.6501 39.4006 66.1953 38.4699C64.742 37.5392 62.3263 34.0609 63.1744 31.5816Z" fill="white"/>
<path d="M80.5517 28.3574C85.2307 28.3574 88.0436 29.5057 89.1729 30.0934C90.2577 30.6572 95.8881 34.3261 100.275 51.211C100.315 51.3635 100.369 51.5715 100.405 51.7748C98.9089 50.9092 97.1046 49.7275 95.0716 48.395C90.2052 45.2042 84.1507 41.2351 77.4577 38.3587C74.5083 37.0913 73.5299 37.6519 72.8327 39.0464C72.5659 39.5801 72.4547 39.8009 71.2381 39.4641C70.9982 39.399 70.7553 39.3339 70.5139 39.2704C69.0987 38.894 67.7614 38.5382 66.621 37.806C65.3917 37.0198 63.4619 34.1403 63.8336 32.1597C70.9173 29.2405 76.4524 28.3574 80.5517 28.3574ZM100.937 53.7586C101.147 53.7586 101.356 53.6744 101.507 53.514C102.287 52.6928 101.981 51.5175 101.8 50.8155C97.3588 33.7241 91.568 29.5645 89.8987 28.6973C87.61 27.5061 78.8999 24.1437 62.8695 30.8557C62.6614 30.9431 62.501 31.1146 62.4295 31.3274C61.4432 34.2102 64.0337 38.0188 65.7712 39.1322C67.1197 39.9962 68.6397 40.3997 70.1088 40.7904C70.3471 40.8555 70.5853 40.9174 70.8204 40.9825C73.0995 41.6083 73.7778 40.6744 74.24 39.7516C74.5036 39.2243 74.6783 38.8765 76.8352 39.804C83.4027 42.628 89.3936 46.5558 94.2093 49.7117C96.7013 51.346 98.8549 52.7564 100.567 53.6664L100.937 53.7586Z" fill="black"/>
<path d="M50.0267 50.0309C49.1548 64.6398 53.3097 71.3662 56.6022 74.3886C57.9093 75.5894 63.8447 80.4431 81.1473 78.9215C81.8461 78.8596 82.6641 78.7738 82.977 78.1735C78.8459 74.4474 69.302 68.5454 61.8228 60.5834C57.9284 56.4348 63.2586 57.8675 60.8667 54.4844C59.8788 53.0884 58.9544 51.6017 57.5837 50.5535C56.2131 49.5068 52.0994 48.4109 50.0267 50.0309Z" fill="white"/>
<path d="M81.6555 78.0702C81.4507 78.1052 81.2362 78.1243 81.0774 78.137C65.2423 79.5315 59.0576 75.5751 57.1342 73.8089C53.8195 70.7642 50.0458 64.246 50.7907 50.4645C52.5537 49.4512 55.9462 50.293 57.1072 51.1793C58.1809 52.0004 58.9639 53.1297 59.793 54.324C59.936 54.5305 60.0789 54.7354 60.2234 54.9387C60.9413 55.9536 60.7825 56.1172 60.3568 56.5524C59.2593 57.6753 59.0529 58.7823 61.2495 61.1218C66.2207 66.4155 72.0179 70.7483 76.6763 74.2298C78.614 75.6783 80.3357 76.9648 81.6555 78.0702ZM74.8513 80C76.789 80 78.9046 79.9095 81.2171 79.7062C81.9414 79.6426 83.1549 79.5346 83.6742 78.5372C83.8394 78.2196 83.7695 77.8288 83.5043 77.589C82.0653 76.293 80.0053 74.7524 77.6182 72.9687C73.009 69.5238 67.2738 65.237 62.3978 60.0434C60.8047 58.3471 61.0747 58.0708 61.4829 57.653C62.2087 56.9097 62.8711 55.9552 61.5083 54.0302C61.367 53.8301 61.2272 53.6284 61.0874 53.4266C60.225 52.1846 59.3324 50.8997 58.0617 49.9277C56.4242 48.6777 51.9454 47.531 49.5423 49.4099C49.3644 49.5497 49.2548 49.7593 49.2405 49.9849C48.3654 64.6478 52.471 71.6648 56.07 74.9699C57.8553 76.609 62.9901 80 74.8513 80Z" fill="black"/>
<path d="M12.8469 28.9434C30.2798 40.0868 47.7142 51.23 65.1486 62.3749C65.1486 62.3749 79.7719 42.1166 79.4558 41.332C63.23 27.973 47.7365 15.6226 31.1454 2.68934C27.7656 4.83827 23.3501 6.31377 21.0169 9.5189C19.7018 11.3264 18.7902 13.3895 17.8864 15.4368C16.9446 17.573 16.0028 19.7077 15.0594 21.8455C14.0556 24.1215 13.0407 26.4387 12.8469 28.9434Z" fill="white"/>
<path d="M78.5298 41.5893C77.3068 43.9193 69.9071 54.4241 64.9453 61.3108L13.6775 28.5401C13.9459 26.3197 14.8782 24.2089 15.7804 22.1632L18.6075 15.7545C19.4794 13.7771 20.3801 11.733 21.6539 9.9827C23.1754 7.89095 25.7627 6.52665 28.2642 5.20998C29.2092 4.71126 30.1812 4.19823 31.0945 3.64869C48.351 17.1045 63.4491 29.1801 78.5298 41.5893ZM65.147 63.1628C65.3932 63.1628 65.633 63.0468 65.7871 62.8356C65.8236 62.7847 69.4878 57.707 73.0661 52.5992C80.5437 41.9244 80.4008 41.5718 80.1864 41.0381L79.956 40.7237C64.5975 28.0795 49.2405 15.7974 31.6297 2.06996C31.3677 1.86349 31.004 1.84601 30.7228 2.02549C29.7333 2.65603 28.6628 3.21987 27.5304 3.81706C24.87 5.21791 22.1191 6.668 20.3816 9.05676C19.0077 10.942 18.0723 13.0655 17.167 15.1192L14.3398 21.5279C13.3217 23.8356 12.2671 26.2228 12.0607 28.8815C12.0384 29.1722 12.1767 29.4501 12.4228 29.6058L64.7245 63.0373C64.8548 63.1214 65.0025 63.1628 65.147 63.1628Z" fill="black"/>
<path d="M12.5912 28.7751C18.1883 19.9761 24.5303 10.7641 31.1454 2.68934C22.3814 1.83167 12.7041 1.4362 3.92414 0.792953C2.33746 0.67701 1.205 2.1509 1.74818 3.62799C4.95649 12.3555 9.41945 20.802 12.5912 28.7751Z" fill="black"/>
<path d="M29.6078 3.33578C24.2871 9.93822 18.6249 17.9081 12.7483 27.0677C11.4936 24.0278 10.0912 20.956 8.61726 17.7318C6.4858 13.0639 4.28119 8.23875 2.48644 3.35641C2.32444 2.91487 2.38488 2.45906 2.65489 2.1017C2.93125 1.73322 3.37277 1.53944 3.86672 1.57756C7.10996 1.8158 10.5453 2.02387 13.868 2.22558C19.1077 2.54324 24.511 2.87042 29.6078 3.33578ZM12.591 29.5613C12.8579 29.5613 13.1089 29.4263 13.255 29.1976C19.7368 19.0088 25.9611 10.259 31.7551 3.18964C31.9394 2.9641 31.9839 2.65601 31.8727 2.38759C31.7615 2.12076 31.5121 1.93493 31.223 1.90634C25.6768 1.36315 19.7208 1.00259 13.9617 0.653173C10.6454 0.453053 7.21475 0.245018 3.98103 0.00836563C2.96454 -0.0662823 1.99418 0.360956 1.39699 1.1535C0.80933 1.93493 0.663177 2.96096 1.00783 3.89963C2.82481 8.83756 5.04198 13.6913 7.18456 18.3846C8.87924 22.0933 10.4787 25.597 11.8589 29.0658C11.9685 29.3405 12.2226 29.5311 12.5164 29.5581L12.591 29.5613Z" fill="black"/>
<path d="M42.5269 19.5441C38.3434 16.6137 32.6844 17.4221 29.8858 21.3484C27.0889 25.2761 28.2102 30.8335 32.3922 33.7638C36.5741 36.6926 42.2346 35.8842 45.0315 31.958C47.8317 28.0318 46.7088 22.4729 42.5269 19.5441Z" fill="#D0E2F2"/>
<path d="M42.5269 19.5441H42.5206H42.5269ZM37.0013 18.5721C38.7373 18.5721 40.5178 19.0978 42.0743 20.1889C44.0072 21.5421 45.2825 23.5211 45.6685 25.7638C46.0211 27.8126 45.5684 29.8504 44.3915 31.5022C41.8471 35.071 36.6678 35.7953 32.8432 33.119C30.9119 31.7642 29.6365 29.7837 29.2505 27.541C28.8979 25.4937 29.3522 23.456 30.5275 21.8058C32.0364 19.6886 34.4712 18.5721 37.0013 18.5721ZM37.9146 36.3067C40.9371 36.3067 43.8594 34.9614 45.6732 32.4154C47.0963 30.4205 47.6443 27.9635 47.2202 25.4969C46.7628 22.8382 45.2571 20.4955 42.978 18.8993C38.4482 15.7259 32.2889 16.6201 29.2458 20.8925C27.8243 22.8858 27.2747 25.3428 27.6988 27.8078C28.1546 30.4682 29.6619 32.8125 31.9411 34.4087C33.7692 35.6888 35.8657 36.3067 37.9146 36.3067Z" fill="black"/>
<path d="M115.212 72.6336C115.46 72.6336 115.703 72.5177 115.857 72.2985C116.107 71.9427 116.021 71.4519 115.665 71.2026C105.157 63.8282 94.2235 56.7525 83.1707 50.1707C82.7975 49.9499 82.3162 50.0706 82.0923 50.4455C81.8699 50.8187 81.9922 51.3015 82.3654 51.5239C93.3848 58.085 104.284 65.1386 114.761 72.4907C114.898 72.5875 115.057 72.6336 115.212 72.6336Z" fill="black"/>
<path d="M91.2074 66.9634C91.4504 66.9634 91.6902 66.8507 91.8443 66.6379C92.1 66.2869 92.0221 65.7945 91.6695 65.5388C87.7545 62.6974 83.6981 59.9385 79.613 57.3385C79.2477 57.1051 78.7601 57.2131 78.5266 57.58C78.2931 57.9469 78.4011 58.4328 78.768 58.6663C82.8261 61.2488 86.8555 63.9902 90.7452 66.8126C90.885 66.9142 91.047 66.9634 91.2074 66.9634Z" fill="black"/>
<path d="M81.5778 69.2648C81.8176 69.2648 82.0526 69.1568 82.2067 68.9519C82.4688 68.6041 82.4005 68.1102 82.0527 67.8497C79.6639 66.0454 77.1846 64.2856 74.6815 62.6147C74.321 62.3733 73.8302 62.4718 73.5888 62.8323C73.3474 63.1944 73.4458 63.6837 73.808 63.9251C76.2841 65.5785 78.7411 67.3208 81.1045 69.106C81.2474 69.2124 81.4142 69.2648 81.5778 69.2648Z" fill="black"/>
<path d="M95.3783 46.2127L95.4132 46.2111C95.5562 46.1921 95.6578 46.0586 95.6388 45.9157L94.9669 40.9142C94.9479 40.7713 94.8144 40.6665 94.6731 40.6903C94.5285 40.7093 94.4285 40.8412 94.4476 40.9841L95.1178 45.9856L95.3783 46.2127Z" fill="black"/>
<path d="M91.5823 43.8414L91.6109 43.8398C91.7554 43.824 91.8587 43.6953 91.8428 43.5508L90.7627 33.5304C90.7469 33.3858 90.6166 33.281 90.4737 33.2969C90.3292 33.3128 90.2243 33.443 90.2402 33.586L91.3218 43.608L91.5823 43.8414Z" fill="black"/>
<path d="M87.5116 42.6169L87.5386 42.6153C87.6831 42.601 87.788 42.4708 87.7737 42.3278L86.5793 30.6318C86.565 30.4872 86.4363 30.3824 86.2918 30.3967C86.1488 30.411 86.044 30.5397 86.0583 30.6842L87.2511 42.3802L87.5116 42.6169Z" fill="black"/>
<path d="M83.3612 39.7119H83.3788C83.5233 39.7024 83.6329 39.5785 83.6234 39.4324C83.428 36.3591 83.0436 33.262 82.4813 30.2268L82.1764 30.0171L81.9668 30.3236C82.5242 33.3366 82.9054 36.4131 83.0992 39.4673L83.3612 39.7119Z" fill="black"/>
<path d="M79.1286 37.9378L79.1588 37.9362C79.3033 37.9203 79.4066 37.7901 79.3891 37.6456L78.5504 30.4126C78.5346 30.2681 78.4028 30.168 78.2599 30.1823C78.1169 30.1982 78.0136 30.3284 78.0295 30.4729L78.8681 37.7059L79.1286 37.9378Z" fill="black"/>
<path d="M74.8356 34.7645L74.8943 34.7565L75.0897 34.442L74.2495 30.8573L73.9334 30.662L73.7381 30.9781L74.5798 34.5612L74.8356 34.7645Z" fill="black"/>
<path d="M70.6472 76.7695L70.9077 76.5407C71.1507 74.6523 71.2586 72.7321 71.23 70.8309C71.2269 70.6864 71.1252 70.5705 70.9632 70.5736C70.8171 70.5752 70.7027 70.6943 70.7043 70.8389C70.7345 72.7146 70.6281 74.611 70.3867 76.4725C70.3676 76.617 70.4693 76.7488 70.6138 76.7679L70.6472 76.7695Z" fill="black"/>
<path d="M66.8305 76.6916L67.0878 76.4724C67.5103 73.9185 67.8216 71.3153 68.0138 68.7328C68.0249 68.5883 67.9169 68.4628 67.7723 68.4517C67.6294 68.4421 67.5008 68.5502 67.4912 68.6947C67.299 71.2613 66.9894 73.8486 66.5701 76.3867C66.5462 76.5296 66.6431 76.6646 66.786 76.6884L66.8305 76.6916Z" fill="black"/>
<path d="M62.6869 74.8747L62.9442 74.6571L64.442 66.0248C64.4658 65.8819 64.3705 65.7453 64.2275 65.7215C64.0894 65.6929 63.9496 65.7929 63.9242 65.9359L62.428 74.5681C62.4026 74.7095 62.4979 74.8461 62.6424 74.8699L62.6869 74.8747Z" fill="black"/>
<path d="M58.5954 72.6304L58.8479 72.4398C59.7945 69.0759 60.4552 65.6087 60.8094 62.132C60.8237 61.989 60.7189 61.8588 60.5744 61.8461C60.433 61.827 60.3028 61.935 60.2869 62.0795C59.9359 65.5245 59.2815 68.9631 58.3428 72.2969L58.5239 72.6209L58.5954 72.6304Z" fill="black"/>
<path d="M55.2236 68.466L55.4776 68.269C56.1796 65.5324 56.7943 62.7371 57.3026 59.9608L57.0913 59.6542C56.95 59.632 56.8118 59.7225 56.7848 59.8655C56.2797 62.6307 55.6683 65.4149 54.9694 68.1388L55.1584 68.458L55.2236 68.466Z" fill="black"/>
<path d="M52.398 62.3909L52.6537 62.186L53.6939 57.6419L53.497 57.3274L53.1826 57.526L52.1422 62.07L52.3392 62.3845L52.398 62.3909Z" fill="black"/>
<path d="M11.4763 28.116C10.6886 26.1862 9.83722 24.2422 8.94303 22.2537C9.04626 22.5507 9.14635 22.8461 9.24641 23.1431C9.72607 24.428 10.3009 25.67 10.8854 26.9089C11.0681 27.2901 11.2286 27.7682 11.4763 28.116Z" fill="#DEDEDE"/>
<path d="M62.7694 63.4566C62.987 63.4566 63.1919 63.3899 63.3698 63.2787C62.6503 62.5783 61.9419 61.8588 61.2495 61.1218C61.0192 60.8756 60.8158 60.6438 60.6363 60.4246L50.6954 54.0699C50.7017 56.1426 50.8209 58.0247 51.0289 59.7337C51.1417 59.829 51.2687 59.91 51.4133 59.9703C51.4959 60.1164 51.588 60.2578 51.7008 60.3833C51.8882 60.6088 52.1502 60.7359 52.4266 60.8296L53.1826 57.526L53.4971 57.3275L53.694 57.6419L52.9301 60.9773C53.5527 61.1441 54.1737 61.3172 54.7932 61.4935C55.3252 61.6221 55.8573 61.7682 56.3925 61.916C56.5291 61.233 56.6609 60.5485 56.7848 59.8655C56.8102 59.7369 56.923 59.6511 57.0485 59.6511C57.0627 59.6511 57.077 59.6527 57.0913 59.6543L57.3026 59.9608C57.1739 60.6581 57.0405 61.3585 56.8992 62.0589C57.9919 62.3639 59.091 62.6704 60.2012 62.8689C60.2314 62.6053 60.26 62.3432 60.287 62.0795C60.3012 61.9461 60.414 61.8429 60.5443 61.8429C60.5538 61.8429 60.5649 61.8445 60.5744 61.8461C60.719 61.8588 60.8238 61.989 60.8095 62.132C60.7809 62.4067 60.7507 62.6799 60.7189 62.9531C61.0874 63.0071 61.4559 63.0468 61.826 63.0706C62.0452 63.2263 62.2739 63.3629 62.5343 63.4312C62.6138 63.4486 62.6916 63.4566 62.7694 63.4566Z" fill="#DEDEDE"/>
<path d="M63.3698 63.2787C63.5128 63.1881 63.6382 63.069 63.7383 62.9324C63.8892 62.8594 64.0162 62.7625 64.1163 62.6497L60.6363 60.4245C60.8158 60.6437 61.0192 60.8756 61.2495 61.1218C61.942 61.8587 62.6503 62.5782 63.3698 63.2787ZM51.0289 59.7336C50.8209 58.0246 50.7017 56.1426 50.6954 54.0699L50.0077 53.6315C49.9235 53.8904 49.9235 54.1794 50.0315 54.451L50.0934 54.567L50.0823 54.602C50.0522 54.8037 50.0728 55.0022 50.111 55.1991L50.13 55.3564L50.1236 55.4088L50.1316 55.3786L50.1348 55.4009L50.0998 55.7645C50.0887 56.4809 50.1665 57.1924 50.2666 57.8992C50.3317 58.5663 50.5302 59.3064 51.0289 59.7336Z" fill="black"/>
<path d="M64.9453 61.3109C65.3773 60.7121 65.8252 60.0863 66.2874 59.4415C66.1126 58.9491 65.6045 58.7537 65.1995 58.4805C64.8119 58.2423 63.1775 57.1305 62.0054 56.3856C57.1167 53.2488 52.5123 50.2819 47.0344 46.9338C42.2346 43.8971 36.42 39.8358 32.4223 37.3534C29.7032 35.6269 23.142 30.743 20.5007 29.1817C18.798 28.0938 17.1178 26.901 15.2817 26.0449C14.7496 26.866 14.2143 27.6951 13.6775 28.5353C13.6775 28.5369 13.6775 28.5385 13.6775 28.5401L21.449 33.5066C22.6989 34.2086 23.7964 34.8471 24.5064 35.3664C24.8352 35.5586 25.1322 35.8159 25.4371 36.0574L26.2328 36.5656C26.3074 36.599 26.3853 36.6275 26.4663 36.6514L26.6203 36.6625C28.612 38.0554 30.1129 39.0306 31.6456 40.0264L64.9453 61.3109Z" fill="#DEDEDE"/>
<path d="M64.1162 62.6497C64.2576 62.4925 64.3513 62.3035 64.399 62.1018C64.7643 61.9017 65.0406 61.5363 65.0962 61.1218C65.1057 61.1218 65.1153 61.1218 65.1248 61.1218C65.9126 61.1218 66.6146 60.2784 66.2986 59.4716C66.2954 59.4621 66.2922 59.451 66.2874 59.4414C65.8252 60.0863 65.3774 60.712 64.9453 61.3108L31.6456 40.0264C32.8384 40.7999 34.0519 41.5877 35.5306 42.5962C40.8433 46.2762 46.334 49.6783 51.8389 53.0566C51.6055 52.9327 51.3624 52.8168 51.0956 52.8168C51.0638 52.8168 51.0321 52.8183 51.0003 52.8215C50.5127 52.8628 50.1458 53.2059 50.0076 53.6315L50.6954 54.0699L60.6363 60.4246L64.1162 62.6497ZM26.2328 36.5656L25.4371 36.0573C25.6881 36.2543 25.9453 36.4401 26.2328 36.5656ZM21.449 33.5066L13.6775 28.54C13.6775 28.5384 13.6775 28.5368 13.6775 28.5353C13.6616 28.5607 13.6442 28.5861 13.6283 28.6115C13.9889 28.9641 14.386 29.2786 14.8116 29.5518C16.6651 30.8843 19.2858 32.2931 21.449 33.5066Z" fill="black"/>
<path d="M12.7484 27.0677C13.3027 26.2005 13.857 25.3444 14.4097 24.5011C11.2046 17.0648 7.93912 10.186 4.28451 3.48506C3.90809 2.97205 4.09081 2.44158 2.96472 2.34628C2.76937 2.35899 2.59136 2.42887 2.44047 2.53687C2.37059 2.79734 2.38489 3.08004 2.48654 3.3564C4.28128 8.23874 6.48589 13.0639 8.61735 17.7318C10.0913 20.956 11.4937 24.0277 12.7484 27.0677Z" fill="#454545"/>
<path d="M13.6283 28.6115C13.6442 28.5861 13.6616 28.5607 13.6775 28.5353C14.2143 27.6951 14.7497 26.866 15.2817 26.0449C15.196 26.0052 15.1086 25.9655 15.0196 25.9258C14.8163 25.4493 14.613 24.9744 14.4097 24.5011C13.857 25.3445 13.3027 26.2005 12.7484 27.0677C11.4937 24.0278 10.0913 20.956 8.61736 17.7319C6.48591 13.0639 4.28129 8.23877 2.48655 3.35643C2.3849 3.08007 2.3706 2.79737 2.44048 2.5369C2.06724 2.80531 1.87348 3.31038 2.04978 3.76622C2.34519 4.35705 2.64229 4.94787 2.9393 5.53712C2.80747 5.85954 2.83127 6.28203 2.99328 6.65527C3.10287 6.93798 3.21406 7.21912 3.32365 7.50183L3.36971 7.69559L3.47767 7.8989C5.34071 12.6685 7.27207 17.4126 8.94293 22.2537C9.83712 24.2422 10.6885 26.1862 11.4763 28.116C11.6716 28.3908 11.9225 28.5845 12.2847 28.5845C12.4022 28.5845 12.5324 28.5623 12.6769 28.5178C12.9183 28.4194 13.0788 28.2891 13.1852 28.1382C13.325 28.3034 13.4743 28.4606 13.6283 28.6115Z" fill="black"/>
<path d="M60.7188 62.9531C60.7506 62.6799 60.7808 62.4067 60.8094 62.1319C60.8237 61.989 60.7189 61.8588 60.5744 61.846C60.5648 61.8445 60.5537 61.8429 60.5442 61.8429C60.414 61.8429 60.3012 61.9461 60.2869 62.0795C60.2599 62.3432 60.2313 62.6052 60.2011 62.8689C60.3742 62.8991 60.5457 62.9277 60.7188 62.9531Z" fill="black"/>
<path d="M56.8992 62.0589C57.0405 61.3585 57.1739 60.6581 57.3026 59.9608L57.0913 59.6542C57.077 59.6526 57.0627 59.6511 57.0484 59.6511C56.923 59.6511 56.8102 59.7368 56.7848 59.8655C56.6609 60.5484 56.5291 61.233 56.3925 61.9159C56.5609 61.9636 56.7292 62.0113 56.8992 62.0589Z" fill="black"/>
<path d="M52.93 60.9772L53.6939 57.6419L53.497 57.3274L53.1826 57.5259L52.4265 60.8295C52.5837 60.8835 52.7473 60.9264 52.903 60.9709C52.9109 60.9725 52.9205 60.9756 52.93 60.9772Z" fill="black"/>
<path d="M60.7745 60.2308C61.0286 60.2308 61.278 60.1069 61.4304 59.8782L75.5057 38.678C75.7471 38.3158 75.6471 37.8266 75.2865 37.5868C74.9228 37.347 74.4352 37.4439 74.1938 37.806L60.1186 59.0078C59.8787 59.3699 59.9772 59.8575 60.3394 60.0989C60.4728 60.1879 60.6236 60.2308 60.7745 60.2308Z" fill="black"/>
<path d="M37.9178 34.7343C38.7373 34.7343 39.5489 34.6168 40.3208 34.3865C40.3446 34.0387 40.2239 33.6829 39.9142 33.4351C39.749 33.2922 39.5441 33.2048 39.3313 33.1683L39.3583 33.1699L39.3012 33.1619L39.2583 33.1556C38.7611 33.1095 38.2704 33.0094 37.7955 32.8586C33.4055 31.2433 31.0167 28.6179 30.8642 23.6609C30.8357 23.1209 30.5021 22.7238 30.0748 22.5237C29.2394 24.0294 28.9472 25.7812 29.2505 27.541C29.6365 29.7837 30.9119 31.7643 32.8432 33.1191C34.3997 34.2086 36.1818 34.7343 37.9178 34.7343Z" fill="#7694AE"/>
<path d="M39.1662 35.5364C39.8253 35.5364 40.2796 34.9725 40.3209 34.3865C39.549 34.6168 38.7374 34.7343 37.9178 34.7343C36.1818 34.7343 34.3998 34.2086 32.8433 33.119C30.9119 31.7642 29.6365 29.7836 29.2506 27.541C28.9472 25.7812 29.2395 24.0294 30.0749 22.5237C29.8732 22.43 29.6508 22.3807 29.43 22.3807C28.9949 22.3807 28.5629 22.5745 28.3072 23.0097C27.8688 23.7133 28.0943 24.6408 28.0562 25.435C28.0927 27.0423 28.4088 28.6592 29.249 30.0489C31.1661 33.4875 35.1812 35.5364 39.0661 35.5364C39.0852 35.5364 39.1042 35.5364 39.1233 35.5364C39.1376 35.5364 39.1519 35.5364 39.1662 35.5364Z" fill="black"/>
</svg>
