<svg width="86" height="80" viewBox="0 0 86 80" fill="none" xmlns="http://www.w3.org/2000/svg">
<path d="M71.166 26.3909C67.701 17.6903 56.1961 4.51463 36.9586 4.51463C16.2487 4.51463 1.80685 19.679 0.737662 38.0614C-0.799129 64.4915 18.7772 79.3498 36.9586 79.3498C49.3778 79.3498 61.2452 73.1698 68.0163 62.784C74.7873 52.3969 74.8543 35.6511 71.166 26.3909Z" fill="white"/>
<path d="M36.9586 5.16618C17.4572 5.16618 2.49774 19.017 1.38784 38.0995C0.531438 52.8277 6.29244 62.2166 11.2785 67.4995C17.9931 74.616 27.353 78.6984 36.9586 78.6984C49.2372 78.6984 60.9286 72.4645 67.4712 62.4281C73.9126 52.5467 74.2698 35.9414 70.5618 26.6327C67.6038 19.2075 56.7754 5.16618 36.9586 5.16618ZM36.9586 80C26.9971 80 17.2904 75.7693 10.3301 68.3927C5.17072 62.9233 -0.79518 53.2152 0.0874893 38.0233C0.627337 28.75 4.51397 20.1926 11.0329 13.9259C17.7803 7.43725 26.9879 3.86452 36.9586 3.86452C57.4728 3.86452 68.7006 18.4417 71.7716 26.1506C75.5846 35.7221 75.4415 52.5861 68.5614 63.1387C61.7824 73.5403 49.6733 80 36.9586 80Z" fill="black"/>
<path d="M71.8739 23.4526C76.0522 19.7249 80.4077 16.1956 84.9196 12.8816C81.0724 12.3707 77.3197 12.0962 73.5644 11.8808C74.5193 8.11233 75.2286 4.382 75.9379 0.651669C71.5784 3.62543 67.8441 6.6097 63.0485 10.6119C62.401 14.0165 61.5407 17.6168 61.6983 21.3957C64.6917 22.4137 68.644 22.5792 71.8739 23.4526Z" fill="black"/>
<path d="M62.3353 20.9163C63.8406 21.3747 65.6099 21.6506 67.3253 21.9172C68.7925 22.1471 70.3057 22.3822 71.7019 22.7342C75.3955 19.4518 79.265 16.2928 83.2265 13.3269C79.7352 12.9171 76.3977 12.6951 73.5277 12.531C73.3333 12.5191 73.1546 12.4219 73.039 12.2656C72.9248 12.1093 72.8854 11.9084 72.934 11.7205C73.7496 8.50247 74.3946 5.25944 75.0014 2.09128C71.2566 4.72222 67.9085 7.40833 63.6436 10.964C63.5648 11.3738 63.4833 11.7875 63.4019 12.2039C62.8463 15.0121 62.2736 17.9137 62.3353 20.9163ZM71.874 24.1042L71.7045 24.0805C70.2846 23.697 68.6782 23.4461 67.1244 23.2044C65.1896 22.9023 63.1878 22.5897 61.4881 22.0118C61.2346 21.9251 61.0586 21.6913 61.0481 21.4233C60.9089 18.1041 61.5262 14.9767 62.1239 11.9517C62.2211 11.4605 62.317 10.9731 62.4089 10.4911C62.4365 10.3427 62.5153 10.2087 62.6309 10.1128C67.5026 6.04755 71.1817 3.10792 75.5715 0.113152C75.7895 -0.0352745 76.0745 -0.0379086 76.2952 0.106577C76.5159 0.251062 76.6275 0.513769 76.5776 0.77253C75.9248 4.20995 75.2523 7.74588 74.3867 11.2766C77.547 11.4644 81.2116 11.7323 85.0063 12.2354C85.269 12.2709 85.4844 12.4626 85.5514 12.7201C85.6171 12.9762 85.5199 13.2494 85.3058 13.4057C80.8268 16.6947 76.4541 20.2386 72.3074 23.9387C72.1866 24.0464 72.0316 24.1042 71.874 24.1042Z" fill="black"/>
<path d="M43.2752 17.8638C37.1989 16.5017 30.6131 17.4093 25.166 20.3607C19.7203 23.3121 15.4645 28.2785 13.4654 34.0158C12.1374 37.825 11.7867 41.902 11.9457 45.92C12.1663 51.4892 15.148 57.0874 19.4943 60.5931C24.8613 64.9224 30.0299 67.0988 36.1468 67.5034C44.4363 68.0511 52.8217 63.953 57.5424 57.312C62.2644 50.6709 63.2732 41.7576 60.4176 34.1787C57.5634 26.5998 51.252 19.6514 43.2752 17.8638Z" fill="white"/>
<path d="M37.6324 17.8966C33.4029 17.8966 29.1656 18.9342 25.476 20.9334C20.1773 23.8047 16.024 28.6502 14.0801 34.2299C12.9045 37.6043 12.4185 41.4187 12.5971 45.8951C12.806 51.1819 15.6063 56.6198 19.9028 60.0861C25.2185 64.3733 30.2413 66.4605 36.1902 66.8532C44.1775 67.3799 52.3527 63.488 57.0117 56.935C61.5617 50.537 62.6335 41.906 59.8094 34.4085C56.7674 26.3332 50.2209 20.0888 43.1333 18.4981C41.3325 18.0949 39.4831 17.8966 37.6324 17.8966ZM37.635 68.2035C37.124 68.2035 36.6131 68.1864 36.1035 68.1536C29.8709 67.7411 24.6222 65.566 19.0858 61.1001C14.5043 57.4039 11.5201 51.5982 11.2954 45.9463C11.1116 41.3044 11.6199 37.3324 12.8506 33.8017C14.8997 27.9198 19.2763 22.8117 24.856 19.788C30.4318 16.767 37.1976 15.8344 43.4183 17.228C50.9223 18.9106 57.8339 25.4741 61.0271 33.9488C64.0021 41.8469 62.8699 50.9428 58.073 57.6889C53.4548 64.1855 45.5633 68.2035 37.635 68.2035Z" fill="black"/>
<path d="M40.3606 29.4658C37.0886 28.7473 33.5409 29.2267 30.6079 30.7819C27.6748 32.3371 25.3828 34.9549 24.3057 37.9799C23.5912 39.9869 23.402 42.1371 23.4874 44.2545C23.6069 47.1901 25.2133 50.1415 27.5527 51.9896C30.4437 54.2712 33.227 55.4192 36.5212 55.632C40.9858 55.9209 45.5016 53.7602 48.0445 50.2598C50.5875 46.7593 51.1312 42.0609 49.5931 38.0652C48.0563 34.0696 44.657 30.4076 40.3606 29.4658Z" fill="#D0E2F2"/>
<path d="M37.3211 29.7903C35.0908 29.7903 32.8578 30.3262 30.9125 31.356C28.1253 32.835 25.9409 35.3293 24.919 38.198C24.2991 39.9371 24.0443 41.91 24.1375 44.2283C24.2478 46.9275 25.7111 49.7056 27.9572 51.4788C30.768 53.6986 33.4226 54.7796 36.5632 54.9819C40.7677 55.2564 45.0681 53.2507 47.5178 49.8776C49.907 46.5899 50.4692 42.1529 48.9862 38.2991C47.3838 34.1354 43.9437 30.9173 40.2213 30.1016C39.2716 29.8928 38.2957 29.7903 37.3211 29.7903ZM37.3211 56.3085C37.04 56.3085 36.7602 56.2993 36.4804 56.2822C33.0588 56.0603 30.1822 54.8939 27.1494 52.5007C24.6143 50.4989 22.9619 47.3491 22.8372 44.2821C22.736 41.793 23.0158 39.6613 23.6922 37.7619C24.8218 34.5898 27.2308 31.8354 30.3031 30.2067C33.3661 28.5819 37.0833 28.0802 40.5011 28.8302C44.7016 29.7509 48.4188 33.2002 50.2012 37.8316C51.8405 42.0925 51.2166 47.0024 48.5712 50.6421C46.0283 54.1425 41.6845 56.3085 37.3211 56.3085Z" fill="black"/>
<path d="M37.9279 41.8994C37.7493 41.8994 37.5706 41.8258 37.4419 41.6813C37.2028 41.4134 37.2265 41.0009 37.4958 40.7619C51.3479 28.4281 65.9356 16.5843 80.8517 5.56148C81.1406 5.34738 81.5478 5.40781 81.7619 5.69809C81.976 5.98706 81.9143 6.39423 81.6253 6.60833C66.7408 17.6089 52.1846 29.4264 38.3613 41.7352C38.2366 41.8455 38.0829 41.8994 37.9279 41.8994Z" fill="black"/>
<path d="M19.6191 56.8326L19.4247 56.7131C17.4794 52.8698 15.7797 48.857 14.3704 44.7891L14.5056 44.512L14.7815 44.646C16.183 48.6968 17.8761 52.6911 19.8122 56.5174L19.7163 56.8089L19.6191 56.8326Z" fill="black"/>
<path d="M26.3561 63.7613L26.1643 63.6457C21.7247 55.2393 17.9484 46.4073 14.9379 37.3915L15.0758 37.117L15.3503 37.2549C18.353 46.2471 22.1201 55.058 26.5479 63.4421L26.4573 63.735L26.3561 63.7613Z" fill="black"/>
<path d="M29.7659 64.6439L29.5676 64.5152C25.0531 54.3606 20.8092 43.9274 16.954 33.5075L17.0828 33.229L17.3612 33.3578C21.2124 43.7685 25.4524 54.1924 29.9642 64.3379L29.8539 64.6255L29.7659 64.6439Z" fill="black"/>
<path d="M22.1568 36.941L21.9598 36.8149C20.7842 34.247 19.7019 31.599 18.7404 28.9444L18.8705 28.666L19.1476 28.7973C20.1052 31.4401 21.1835 34.0775 22.3538 36.6336L22.2475 36.9213L22.1568 36.941Z" fill="black"/>
<path d="M24.4961 33.3985L24.2951 33.2645L21.2649 26.0481L21.3818 25.7644L21.6655 25.88L24.6957 33.0964L24.5802 33.3814L24.4961 33.3985Z" fill="black"/>
<path d="M26.8906 29.8586L26.691 29.7246L24.0679 23.4448L24.1848 23.1611L24.4686 23.278L27.0903 29.5578L26.9747 29.8415L26.8906 29.8586Z" fill="black"/>
<path d="M30.7183 27.757L30.5199 27.627C29.6189 25.5609 28.8058 23.4264 28.1044 21.2815L28.2436 21.007L28.5168 21.1462C29.2143 23.278 30.0221 25.4006 30.9179 27.4536L30.805 27.7386L30.7183 27.757Z" fill="black"/>
<path d="M34.375 26.433L34.1754 26.3003C33.3334 24.2986 32.6123 22.2233 32.0304 20.1309L32.1815 19.8642L32.4494 20.0153C33.0248 22.0893 33.7406 24.1475 34.576 26.1322L34.4604 26.4172L34.375 26.433Z" fill="black"/>
<path d="M38.4258 26.5591L38.217 26.4028L36.2402 19.6357L36.3873 19.3677L36.6565 19.5148L38.6334 26.2806L38.4862 26.5499L38.4258 26.5591Z" fill="black"/>
<path d="M42.8825 28.5753L42.6763 28.4242L40.0887 20.3226L40.2292 20.0494L40.5011 20.1899L43.0887 28.2929L42.9495 28.5648L42.8825 28.5753Z" fill="black"/>
<path d="M48.0143 30.5363L47.8107 30.3958L44.3155 21.0975L44.4416 20.8178L44.7214 20.9439L48.2166 30.2434L48.0905 30.5232L48.0143 30.5363Z" fill="black"/>
<path d="M34.35 66.0271L34.1609 65.9154C32.5821 63.073 31.2055 60.0874 30.0693 57.0415L30.1968 56.763L30.4765 56.8904C31.6048 59.9154 32.9722 62.8813 34.5405 65.7053L34.4551 65.9995L34.35 66.0271Z" fill="black"/>
<path d="M37.8045 65.851L37.6206 65.7486C36.0601 63.245 34.7571 60.5695 33.7497 57.7967L33.8784 57.5182L34.1569 57.6482C35.1551 60.3921 36.4437 63.0414 37.9884 65.52L37.92 65.8182L37.8045 65.851Z" fill="black"/>
<path d="M41.2011 65.3558L41.0068 65.2363C39.8233 62.8759 38.7239 60.4394 37.7375 57.9924L37.8583 57.7099L38.1407 57.8308C39.1219 60.266 40.2174 62.692 41.3942 65.0419L41.2984 65.3335L41.2011 65.3558Z" fill="black"/>
<path d="M50.0424 26.9505L49.8374 26.806L48.4635 22.9063L48.5975 22.6305L48.8733 22.7618L50.2473 26.6616L50.1146 26.9387L50.0424 26.9505Z" fill="black"/>
<path d="M59.4733 47.9192L59.2763 47.7931C56.8502 42.5549 54.5253 37.1814 52.3686 31.8236L52.4894 31.5399L52.7718 31.6608C54.9259 37.0119 57.2469 42.3789 59.6703 47.6119L59.5639 47.8995L59.4733 47.9192Z" fill="black"/>
<path d="M59.9146 40.3193L59.7241 40.205C57.9141 36.8293 56.2263 33.3341 54.7065 29.8166L54.8195 29.5315L55.1059 29.6445C56.619 33.1515 58.3016 36.6349 60.1063 40.0001L60.017 40.2943L59.9146 40.3193Z" fill="black"/>
<path d="M58.0416 52.791L57.8419 52.6596L49.8572 34.2641L49.9701 33.9791L50.2565 34.0907L58.2399 52.4875L58.127 52.7726L58.0416 52.791Z" fill="black"/>
<path d="M56.1593 56.1929L55.9623 56.0668L51.9456 47.3071L52.0533 47.0194L52.341 47.1271L56.3563 55.8855L56.2499 56.1732L56.1593 56.1929Z" fill="black"/>
<path d="M53.6138 58.7385L53.4168 58.6137L49.9478 51.1097L50.0542 50.822L50.3419 50.9271L53.8108 58.4311L53.7044 58.7188L53.6138 58.7385Z" fill="black"/>
<path d="M50.9789 60.8216L50.7819 60.6955L47.8554 54.3619L47.9618 54.0742L48.2508 54.1806L51.1759 60.5143L51.0695 60.8019L50.9789 60.8216Z" fill="black"/>
<path d="M48.1207 62.7669L47.9236 62.6421L44.9762 56.315L45.0812 56.0261L45.3689 56.1311L48.3164 62.4596L48.2113 62.7472L48.1207 62.7669Z" fill="black"/>
<path d="M44.6676 64.9368L44.4705 64.8107L41.4836 58.3378L41.59 58.0502L41.879 58.1566L44.8646 64.6282L44.7582 64.9171L44.6676 64.9368Z" fill="black"/>
<path d="M63.6449 21.9908C63.1813 21.9908 62.7636 21.6821 62.5784 21.2749C62.6677 21.2027 62.7544 21.133 62.8437 21.0621C63.4269 21.2184 64.0416 21.3524 64.6721 21.4732C64.5184 21.5915 64.3647 21.7097 64.2124 21.8292C64.0232 21.9408 63.8301 21.9908 63.6449 21.9908ZM75.0684 12.6229C74.6126 12.594 74.1674 12.5677 73.7313 12.5428C73.9178 12.3996 74.103 12.2591 74.2895 12.1172C74.5719 12.1592 74.8399 12.3142 75.0684 12.6229Z" fill="black"/>
<path d="M62.5783 21.2749C62.4194 20.9255 62.4312 20.5039 62.7307 20.1413C64.9203 18.2407 67.8901 16.3585 70.8126 14.1846C71.497 13.7079 72.159 13.1995 72.8288 12.703C73.2216 12.351 73.6826 12.1041 74.1226 12.1041C74.1778 12.1041 74.2343 12.1093 74.2894 12.1172C74.1029 12.2591 73.9177 12.3996 73.7312 12.5428C70.0758 15.3366 66.4439 18.179 62.8436 21.0621C62.7543 21.133 62.6676 21.2027 62.5783 21.2749Z" fill="black"/>
<path d="M48.3533 41.0259C48.3677 40.909 48.3769 40.8486 48.3782 40.8486C48.3795 40.8486 48.373 40.9064 48.3533 41.0259Z" fill="#7694AE"/>
<path d="M33.9205 51.991L33.7825 51.97L33.9205 51.991Z" fill="#7694AE"/>
<path d="M51.0879 42.0701C51.034 40.934 50.8396 39.8017 50.502 38.701C50.5927 38.7706 50.6728 38.8534 50.7385 38.9493C51.1535 39.4812 51.0511 40.2444 51.0971 40.8854C51.101 41.2781 51.0997 41.6748 51.0879 42.0701Z" fill="#DEDEDE"/>
<path d="M37.3409 55.0068C37.3409 54.9871 37.3422 54.966 37.3435 54.9463C37.1675 54.966 36.9915 54.9831 36.8129 54.9963C36.7301 54.9923 36.6461 54.987 36.5633 54.9818C33.4228 54.7795 30.7682 53.6985 27.9573 51.4787C27.2795 50.9441 26.6727 50.3176 26.1539 49.6293C26.3772 49.2825 26.7673 49.0422 27.1863 49.0422C27.4647 49.0422 27.755 49.1486 28.019 49.4007C29.6609 50.9231 30.8825 51.5641 33.7827 51.97L33.7196 51.9647C34.3658 52.0724 35.0659 52.1433 35.787 52.1433C36.608 52.1433 37.4565 52.0514 38.2787 51.8176C40.8112 51.0702 42.2783 50.3465 44.0962 48.8806C45.6356 47.4739 47.137 45.1214 47.7136 43.5649C48.0026 42.7729 48.1878 41.948 48.3375 41.1191L48.3533 41.0259L48.3441 41.1113C48.5161 40.3232 48.218 39.2632 48.9614 38.7246C49.0061 38.6852 49.0547 38.6511 49.1046 38.6209C50.4365 42.3985 49.8402 46.6805 47.5179 49.8776C45.218 53.0431 41.2906 55.0041 37.3409 55.0068Z" fill="#7694AE"/>
<path d="M38.3653 56.1679C37.9936 56.1679 37.6561 56.0011 37.3592 55.3509C37.3408 55.2235 37.3369 55.1106 37.3408 55.0068C41.2905 55.0042 45.2179 53.0431 47.5178 49.8776C49.8401 46.6805 50.4364 42.3985 49.1045 38.6209C49.291 38.5067 49.5104 38.4515 49.7323 38.4515C50.0082 38.4515 50.2853 38.5368 50.5021 38.701C50.8396 39.8017 51.034 40.934 51.0879 42.0702C51.0524 43.3127 50.9171 44.5566 50.5402 45.744C49.7573 48.2475 48.4136 50.5553 46.4998 52.3627C45.0156 53.8049 43.3514 55.2117 41.259 55.5992C40.0295 55.8698 40.4039 55.7831 39.3544 56.0024C39.0037 56.0523 38.6727 56.1679 38.3653 56.1679ZM35.9354 55.0278C35.7699 55.0278 35.6044 55.0252 35.4363 55.0173C32.0842 54.7034 28.7112 53.5514 26.318 51.1017C25.8582 50.6171 25.8845 50.047 26.1538 49.6293C26.6726 50.3176 27.2794 50.9441 27.9572 51.4787C30.7681 53.6985 33.4227 54.7795 36.5632 54.9818C36.646 54.9871 36.7301 54.9923 36.8128 54.9963C36.5238 55.0173 36.2309 55.0278 35.9354 55.0278Z" fill="black"/>
<path d="M37.6351 66.9005C37.153 66.9005 36.671 66.886 36.1902 66.8532C35.1421 66.7849 34.1228 66.6627 33.1258 66.4854C33.1876 66.3028 33.311 66.14 33.5002 66.0388C33.6328 65.9587 33.7826 65.9245 33.9349 65.9245C33.9875 65.9245 34.0413 65.9285 34.0952 65.9364C34.1359 65.9403 34.1766 65.9442 34.216 65.9482L34.35 66.027L34.4551 65.9994L34.463 65.9718C34.635 65.9876 34.8058 66.0007 34.9779 66.0099C35.3614 66.0322 35.7449 66.044 36.1298 66.044C36.4608 66.044 36.7905 66.0349 37.1215 66.0152L37.3619 65.9902L37.5733 65.96C38.7253 65.7695 39.8562 65.495 40.9713 65.164C40.9832 65.1877 40.995 65.2126 41.0068 65.2363L41.2012 65.3558L41.2984 65.3335L41.3943 65.0419C41.3943 65.0406 41.393 65.0379 41.3917 65.0366C42.3164 64.749 43.2292 64.4258 44.1329 64.0804L44.4705 64.8107L44.6675 64.9368L44.7582 64.9171L44.8645 64.6281L44.5414 63.9307C44.7306 63.8624 44.9184 63.7954 45.1076 63.731C44.9394 63.8282 44.7726 63.9254 44.6058 64.0226C46.2109 63.0874 45.9219 63.6456 47.6649 62.3518C47.6951 62.3308 47.7267 62.3098 47.7582 62.2875L47.9237 62.6421L48.1207 62.7669L48.2113 62.7472L48.3164 62.4595L48.1168 62.0287C48.8142 61.5059 49.6352 60.8058 50.4679 60.0164L50.7819 60.6955L50.9789 60.8216L51.0695 60.8019L51.1759 60.5142L50.7989 59.6973C51.5227 58.9945 52.2438 58.2327 52.89 57.4722L53.4167 58.6136L53.6137 58.7384L53.7044 58.7187L53.8108 58.431L53.1974 57.1044C53.6282 56.5777 54.017 56.0562 54.3414 55.5597C54.6238 55.1421 54.8892 54.7125 55.14 54.2751L55.9623 56.0667L56.1593 56.1928L56.2499 56.1731L56.3563 55.8855L55.4027 53.8049C55.7206 53.2217 56.0161 52.6241 56.2946 52.0199C56.6033 51.4669 56.4417 51.5286 56.6847 51.1267C56.7648 50.9323 56.845 50.7392 56.9238 50.5448L57.8419 52.6595L58.0416 52.7909L58.1269 52.7725L58.2399 52.4875L57.1497 49.9748C57.6225 48.7072 58.1217 47.441 58.5184 46.1459C58.7692 46.6962 59.0227 47.2453 59.2762 47.793L59.4733 47.9191L59.5639 47.8994L59.6703 47.6118C59.3459 46.913 59.024 46.2116 58.7049 45.5076C58.8165 45.1004 58.9176 44.6892 59.003 44.2728C59.2999 42.8792 59.3248 40.9169 59.0122 39.4615C58.9466 39.2474 58.9492 39.0373 59.0043 38.8442C59.2408 39.3 59.4811 39.7531 59.7241 40.205L59.9146 40.3192L60.017 40.2943L60.1064 40.0001C59.8187 39.4642 59.535 38.9256 59.2539 38.3845C59.489 38.1126 59.8397 37.9365 60.2009 37.9365C60.3953 37.9365 60.595 37.9878 60.7802 38.1034C60.817 38.1244 60.8524 38.1454 60.8853 38.169C61.6655 42.0662 61.4868 46.1091 60.3993 49.8749C60.1353 50.6486 59.8516 51.4143 59.5731 52.1762C59.5797 52.1249 59.5862 52.0724 59.5941 52.0212C59.4759 52.6293 59.116 53.1875 58.8953 53.7668C58.8835 53.7904 58.873 53.8141 58.8625 53.8377C58.3292 54.9148 57.7119 55.9512 57.0118 56.935C52.6326 63.094 45.1496 66.9018 37.6351 66.9005Z" fill="#DEDEDE"/>
<path d="M36.6131 68.0012C36.1232 68.0012 35.6332 67.9684 35.1433 67.8935L35.1971 67.904L35.0789 67.8856L35.0238 67.8791L35.0408 67.8804C34.6034 67.8187 34.17 67.7372 33.7405 67.6413C33.2006 67.5402 32.9708 66.9465 33.1258 66.4854C34.1227 66.6628 35.142 66.7849 36.1902 66.8532C36.6709 66.8861 37.1529 66.9005 37.635 66.9005C45.1495 66.9018 52.6325 63.094 57.0117 56.935C57.7118 55.9512 58.3291 54.9148 58.8624 53.8378C58.2924 55.0935 57.6514 56.3216 56.8094 57.4184C54.3808 60.7441 51.1732 63.5787 47.4521 65.3663C46.7966 65.6238 46.107 65.8799 45.4096 65.964C45.4752 65.96 45.6526 65.9259 45.6854 65.9259C45.7025 65.9259 45.6815 65.9351 45.5908 65.9614C43.8807 66.4868 42.2033 67.1238 40.4433 67.4653C39.1849 67.7727 37.9016 68.0012 36.6131 68.0012ZM60.3992 49.875C61.4868 46.1092 61.6654 42.0662 60.8852 38.1691C61.2136 38.4042 61.3594 38.8022 61.4053 39.1975C61.5538 39.8911 61.6299 40.5964 61.6812 41.3031C61.8953 42.9909 61.6838 44.6972 61.3699 46.3601C61.3869 46.2366 61.4027 46.1131 61.4198 45.9896C61.2109 47.3136 60.8326 48.6035 60.3992 49.875Z" fill="black"/>
<path d="M34.35 66.0271L34.2161 65.9482C34.2988 65.9561 34.3816 65.964 34.463 65.9719L34.4551 65.9995L34.35 66.0271Z" fill="black"/>
<path d="M41.2012 65.3558L41.0068 65.2363C40.995 65.2126 40.9832 65.1877 40.9713 65.164C41.1119 65.122 41.2524 65.08 41.3917 65.0366C41.393 65.0379 41.3943 65.0406 41.3943 65.0419L41.2984 65.3335L41.2012 65.3558Z" fill="black"/>
<path d="M59.4733 47.9192L59.2763 47.7931C59.0228 47.2454 58.7692 46.6963 58.5184 46.146C58.584 45.9345 58.6458 45.7217 58.7049 45.5076C59.0241 46.2117 59.3459 46.9131 59.6703 47.6119L59.5639 47.8995L59.4733 47.9192Z" fill="black"/>
<path d="M59.9146 40.3193L59.7241 40.205C59.4811 39.7531 59.2407 39.3 59.0043 38.8442C59.0516 38.6735 59.1383 38.5172 59.2539 38.3845C59.535 38.9257 59.8187 39.4642 60.1063 40.0001L60.017 40.2943L59.9146 40.3193Z" fill="black"/>
<path d="M58.0416 52.791L57.8419 52.6596L56.9238 50.5449C56.996 50.3702 57.0656 50.1955 57.1339 50.0195C57.1392 50.0037 57.1444 49.9906 57.1497 49.9748L58.2399 52.4875L58.1269 52.7726L58.0416 52.791Z" fill="black"/>
<path d="M56.1593 56.1929L55.9623 56.0668L55.14 54.2752C55.2294 54.1189 55.3174 53.9626 55.4027 53.8049L56.3563 55.8855L56.2499 56.1732L56.1593 56.1929Z" fill="black"/>
<path d="M53.6137 58.7385L53.4167 58.6137L52.89 57.4722C52.9938 57.3501 53.0975 57.2266 53.1973 57.1045L53.8107 58.4311L53.7043 58.7188L53.6137 58.7385Z" fill="black"/>
<path d="M50.9789 60.8216L50.7819 60.6955L50.4679 60.0165C50.5783 59.9114 50.6886 59.805 50.7989 59.6973L51.1759 60.5143L51.0695 60.8019L50.9789 60.8216Z" fill="black"/>
<path d="M48.1208 62.7669L47.9237 62.6421L47.7582 62.2875C47.8738 62.2074 47.9934 62.1207 48.1168 62.0287L48.3165 62.4596L48.2114 62.7472L48.1208 62.7669Z" fill="black"/>
<path d="M44.6675 64.9368L44.4705 64.8107L44.1329 64.0804C44.1986 64.0555 44.2656 64.0305 44.3312 64.0043C44.4009 63.9806 44.4718 63.9557 44.5414 63.9307L44.8645 64.6282L44.7581 64.9171L44.6675 64.9368Z" fill="black"/>
<path d="M63.5176 69.2557C64.5894 68.2154 65.5955 67.1094 66.5321 65.9417C65.7505 67.024 64.8981 68.0538 63.9642 69.0061C63.8368 69.144 63.6818 69.2242 63.5176 69.2557Z" fill="#DEDEDE"/>
<path d="M37.9201 78.6852C37.9319 78.4789 38.0147 78.2754 38.1828 78.1191C38.3496 77.9483 38.5769 77.8629 38.8133 77.8498C38.9893 77.8248 39.2743 77.7854 39.3374 77.7762C39.3899 77.7644 39.6421 77.7224 39.7616 77.7132C43.9504 77.1746 47.0726 75.8809 50.4548 74.4991C54.0879 73.3156 56.4759 70.9946 59.7202 67.7017C61.8455 65.2061 62.0385 64.9894 64.4081 61.4442C65.4733 59.6329 66.3363 57.7086 67.3332 55.8592C68.5981 53.3899 69.1997 51.79 70.1257 48.6363C71.0281 45.6008 71.4025 43.9051 71.3105 40.9917C71.2921 40.3402 71.8714 39.895 72.4493 39.895C72.6122 39.895 72.7751 39.9304 72.9248 40.0079C73.068 47.86 71.4024 56.3965 67.4712 62.428C61.0994 72.2018 49.844 78.3699 37.9201 78.6852Z" fill="#DEDEDE"/>
<path d="M38.804 79.6979C38.255 79.6979 37.8898 79.1791 37.92 78.6852C49.844 78.37 61.0993 72.2018 67.4711 62.4281C71.4024 56.3965 73.0679 47.8601 72.9247 40.008C73.0219 40.0579 73.1139 40.1249 73.1953 40.2116C73.3989 40.4178 73.5224 40.6989 73.5198 40.9918C73.5592 41.8626 73.5644 42.7348 73.5145 43.6044C73.3201 46.7384 72.7172 50.097 71.5495 53.4201L71.7859 53.6933C72.092 54.2621 71.7373 54.9227 71.6585 55.5151C71.2329 57.1636 70.5802 58.745 69.8604 60.2831C68.9068 62.2455 67.8139 64.1645 66.532 65.9417C65.5954 67.1094 64.5893 68.2153 63.5175 69.2556C63.461 69.2675 63.4032 69.2727 63.3467 69.2727C62.954 69.2727 62.5599 69.0231 62.4391 68.6396C61.6654 69.517 60.855 70.3603 59.971 71.1326C57.9404 73.0214 57.08 73.9028 54.5594 75.324C53.1014 76.1252 51.5003 76.6007 49.9399 77.155C47.6688 78.0626 45.3229 78.8034 42.9166 79.2618C41.5729 79.5259 40.2055 79.6585 38.8369 79.6979C38.8264 79.6979 38.8158 79.6979 38.804 79.6979Z" fill="black"/>
</svg>
