<svg width="677" height="300" viewBox="0 0 677 300" fill="none" xmlns="http://www.w3.org/2000/svg">
<path d="M354.912 80.3118C356.957 89.0886 356.582 99.9247 356.582 99.9247L348.633 103.012C348.633 103.012 343.759 123.053 374.478 116.912C380.446 115.719 397.724 102.597 397.724 102.597L384.061 98.6904C384.061 98.6904 382.751 78.8288 382.23 68.9614C375.05 72.3062 363.528 77.6213 354.912 80.3118Z" fill="white"/>
<path d="M356.582 99.9248H356.587H356.582ZM349.156 103.452C348.927 104.739 348.281 109.903 351.78 113.54C355.686 117.603 363.284 118.539 374.361 116.325C379.329 115.331 392.692 105.596 396.397 102.842L383.897 99.2668C383.653 99.1973 383.48 98.9817 383.463 98.7294C383.451 98.5369 382.223 79.8975 381.679 69.879C375.576 72.7193 364.168 77.9784 355.618 80.7163C357.521 89.3713 357.185 99.8383 357.181 99.9455C357.173 100.184 357.023 100.396 356.799 100.483L349.156 103.452ZM364 118.685C358.054 118.685 353.67 117.241 350.907 114.363C346.45 109.718 347.983 103.149 348.051 102.871C348.097 102.681 348.234 102.525 348.417 102.454L355.993 99.5105C356.033 97.4926 356.115 88.1126 354.329 80.4471C354.257 80.1412 354.435 79.8329 354.733 79.7391C363.645 76.9573 376.027 71.1901 381.978 68.418C382.159 68.334 382.369 68.3449 382.539 68.4473C382.71 68.5496 382.819 68.7312 382.829 68.9298C383.302 77.8882 384.439 95.303 384.632 98.2298L397.889 102.021C398.107 102.084 398.272 102.263 398.313 102.487C398.354 102.71 398.267 102.938 398.086 103.075C397.376 103.613 380.629 116.293 374.595 117.499C370.643 118.29 367.107 118.684 364 118.685Z" fill="black"/>
<path d="M336.094 25.0454C333.289 25.7168 330.486 22.8752 330.43 19.8716C330.374 16.868 332.481 14.1508 335.07 12.8324C337.66 11.5127 340.644 11.3616 343.55 10.9437C342.455 8.03146 343.841 4.52585 346.259 2.66154C348.677 0.796021 351.875 0.351273 354.852 0.71682C356.807 0.956863 358.778 1.54662 360.321 2.81873C361.864 4.09084 362.913 6.13792 362.83 8.33244C365.433 5.05225 369.633 2.84795 373.593 3.79716C377.555 4.74516 380.542 9.58505 380.842 12.9164C382.77 10.5501 385.29 8.60658 388.258 8.7662C394.149 9.08424 395.478 14.0911 392.827 20.5333C395.964 18.9894 400.637 20.3383 402.128 24.8955C403.237 28.2878 401.993 33.6858 399.63 36.3397C399.221 36.8015 398.626 37.2499 397.899 37.6556C396.981 42.6941 395.835 47.969 394.101 54.6184C392.848 59.4229 390.674 64.7478 388.129 69.1258C386.931 71.1863 385.999 72.1855 383.586 73.3102C383.453 71.2241 381.278 70.1884 380.941 68.1145C380.527 65.5642 382.168 63.3173 380.63 61.0582C377.701 56.7532 375.706 52.0315 374.769 47.188C374.002 43.2108 373.974 39.0252 375.85 35.3539C376.519 34.0452 377.471 32.8194 378.633 31.763C378.116 30.7297 377.714 29.6757 377.387 28.6448C375.662 31.607 374.398 33.6455 370.077 35.0627C366.923 36.0972 363.175 34.8421 362.114 31.8349C361.441 34.8689 356.723 39.1532 353.757 39.4541C350.793 39.7551 349.68 38.3879 348.487 35.5427C345.854 37.8737 343.881 40.251 341.196 41.2709C337.091 42.8294 332.012 40.2596 330.653 35.9351C329.294 31.6119 331.915 26.3662 336.094 25.0454Z" fill="#D0E2F2"/>
<path d="M377.387 28.0456C377.407 28.0456 377.429 28.0468 377.451 28.0492C377.688 28.0748 377.885 28.2369 377.957 28.4635C378.315 29.5894 378.712 30.5813 379.169 31.4951C379.29 31.7352 379.235 32.0264 379.037 32.2067C377.931 33.2108 377.014 34.3927 376.384 35.6271C374.802 38.7184 374.467 42.4641 375.358 47.0737C376.284 51.8672 378.225 56.4586 381.126 60.7209C382.186 62.2793 381.932 63.8085 381.686 65.289C381.537 66.1785 381.383 67.0997 381.533 68.0185C381.671 68.8653 382.192 69.5379 382.744 70.2508C383.253 70.9075 383.774 71.5801 384.03 72.4233C385.859 71.4595 386.631 70.5103 387.611 68.8251C390.108 64.5311 392.262 59.2977 393.522 54.4675C395.119 48.3372 396.323 42.9612 397.31 37.5486C397.342 37.372 397.452 37.2196 397.608 37.1319C398.279 36.7566 398.824 36.346 399.183 35.9414C401.452 33.3936 402.584 28.2174 401.558 25.0822C400.935 23.1777 399.646 21.7301 397.929 21.0063C396.34 20.3373 394.533 20.3617 393.092 21.0709C392.87 21.1805 392.601 21.1416 392.418 20.971C392.235 20.8004 392.178 20.536 392.273 20.3057C393.786 16.627 393.945 13.5308 392.718 11.5885C391.859 10.2274 390.348 9.47929 388.226 9.36597C385.86 9.23803 383.535 10.5601 381.308 13.2944C381.153 13.4845 380.9 13.56 380.667 13.4894C380.434 13.4187 380.267 13.2128 380.245 12.9703C379.978 9.99835 377.265 5.2925 373.455 4.37862C370.022 3.55736 366.036 5.25595 363.301 8.7043C363.14 8.90779 362.867 8.98457 362.623 8.89439C362.38 8.80423 362.222 8.56905 362.232 8.30951C362.303 6.43302 361.424 4.50535 359.94 3.28075C358.677 2.24016 356.94 1.57731 354.779 1.31168C351.558 0.916878 348.663 1.5639 346.626 3.13577C344.252 4.96717 343.171 8.23276 344.111 10.7331C344.175 10.9025 344.158 11.0926 344.066 11.2485C343.973 11.4057 343.816 11.5117 343.635 11.5373C343.094 11.6153 342.55 11.6835 342.006 11.753C339.617 12.054 337.36 12.3391 335.342 13.3651C333.156 14.4788 330.975 16.9194 331.03 19.8609C331.057 21.3146 331.816 22.7914 333.009 23.715C333.933 24.4303 334.98 24.6959 335.955 24.4632C336.27 24.3876 336.585 24.5741 336.672 24.886C336.758 25.1967 336.583 25.5196 336.274 25.6171C332.423 26.8344 329.969 31.762 331.225 35.7562C331.84 37.7119 333.322 39.3813 335.29 40.3366C337.153 41.2407 339.229 41.3772 340.983 40.7107C342.89 39.9881 344.43 38.5259 346.213 36.8334C346.81 36.2668 347.427 35.6807 348.089 35.0946C348.234 34.9654 348.433 34.9155 348.62 34.9581C348.809 35.002 348.965 35.1324 349.039 35.3115C350.18 38.03 351.08 39.1229 353.698 38.8585C356.444 38.5795 360.909 34.5012 361.529 31.7047C361.586 31.444 361.811 31.2527 362.077 31.2368C362.348 31.2222 362.59 31.383 362.679 31.6353C363.668 34.4354 367.206 35.3736 369.89 34.4939C374.091 33.1157 375.256 31.1138 376.868 28.3429C376.976 28.1577 377.175 28.0456 377.387 28.0456ZM383.586 73.9099C383.48 73.9099 383.374 73.8819 383.282 73.8258C383.111 73.7247 383.002 73.5468 382.989 73.3482C382.931 72.4489 382.38 71.7373 381.796 70.9843C381.207 70.2227 380.536 69.3588 380.35 68.211C380.168 67.0973 380.339 66.0786 380.502 65.0916C380.729 63.7318 380.925 62.5559 380.136 61.3947C377.142 56.9971 375.139 52.2559 374.182 47.3015C373.238 42.4178 373.609 38.4211 375.316 35.0812C375.949 33.8456 376.837 32.6588 377.902 31.628C377.667 31.132 377.449 30.6142 377.244 30.0658C375.812 32.4261 374.281 34.3147 370.265 35.6319C367.118 36.664 363.804 35.6332 362.205 33.3192C360.704 36.3667 356.642 39.7639 353.818 40.0502C350.812 40.3561 349.454 39.0693 348.273 36.5434C347.849 36.9333 347.438 37.322 347.039 37.7022C345.239 39.4105 343.539 41.0226 341.408 41.8317C339.348 42.614 336.926 42.4629 334.767 41.415C332.503 40.3159 330.795 38.3846 330.082 36.1157C328.859 32.2263 330.589 27.7214 333.817 25.5038C333.284 25.3234 332.764 25.0407 332.275 24.663C330.802 23.5225 329.865 21.6911 329.832 19.884C329.776 16.8877 331.772 13.8391 334.799 12.2977C337.002 11.1754 339.471 10.8647 341.856 10.5625C342.161 10.5247 342.466 10.487 342.77 10.4468C342.076 7.59304 343.336 4.1593 345.893 2.18655C348.182 0.420944 351.39 -0.312592 354.925 0.122414C357.317 0.416077 359.26 1.1679 360.702 2.35715C362.099 3.50864 363.027 5.12314 363.328 6.85707C366.29 3.7962 370.244 2.37666 373.734 3.21376C377.394 4.09109 380.367 8.05241 381.221 11.5702C383.461 9.1783 385.841 8.03535 388.291 8.16817C390.787 8.30343 392.668 9.26361 393.732 10.9476C395.023 12.9934 395.056 16.008 393.847 19.5282C395.311 19.1639 396.934 19.287 398.394 19.9023C400.437 20.7626 401.965 22.4697 402.697 24.7093C403.855 28.2491 402.632 33.87 400.079 36.7383C399.673 37.1941 399.122 37.6303 398.439 38.036C397.457 43.3877 396.26 48.7138 394.681 54.7697C393.395 59.701 391.196 65.0441 388.647 69.427C387.442 71.5009 386.462 72.6317 383.84 73.8539C383.759 73.8916 383.673 73.9099 383.586 73.9099Z" fill="black"/>
<path d="M340.65 41.9168C340.65 41.7645 340.651 41.6073 340.654 41.4489C340.837 41.3965 341.017 41.3392 341.196 41.271C343.882 40.2511 345.854 37.8738 348.487 35.5428C349.68 38.388 350.793 39.7552 353.758 39.4542C356.723 39.1532 361.441 34.869 362.114 31.8349C363.175 34.8422 366.923 36.0972 370.077 35.0627C374.398 33.6456 375.662 31.6071 377.387 28.6449C378.329 31.6107 379.864 34.7703 383.104 37.0879C384.289 37.936 385.58 38.5135 386.902 38.8803C386.949 39.4615 387.001 40.0269 387.063 40.5655C387.291 42.5614 387.809 46.8992 387.344 51.287C390.709 48.4955 393.493 48.9634 395.581 51.0775C397.67 53.1916 397.498 56.529 395.455 58.6078C393.41 60.6878 389.823 61.4762 386.669 60.8096C385.849 66.1211 384.631 76.7598 380.94 81.462C377.016 86.4627 370.073 89.6637 362.895 89.7819C355.716 89.9013 348.49 86.9343 344.113 82.0713C339.142 76.5466 338.035 69.2368 338.453 62.3864C338.872 55.536 340.628 48.7818 340.65 41.9168Z" fill="white"/>
<path d="M340.65 41.9169H340.654H340.65ZM341.248 41.8901C341.248 41.8986 341.248 41.9083 341.248 41.9181C341.237 45.8368 340.66 49.7628 340.1 53.5584C339.674 56.4621 339.232 59.4645 339.051 62.423C338.553 70.5796 340.406 77.056 344.559 81.6692C348.835 86.4213 355.869 89.3043 362.884 89.1837C369.906 89.0667 376.643 85.9668 380.468 81.0928C383.681 76.9987 385.012 67.9343 385.807 62.518C385.904 61.8698 385.991 61.2654 386.077 60.7183C386.101 60.555 386.193 60.41 386.328 60.3162C386.463 60.2224 386.631 60.1895 386.793 60.2224C389.881 60.8755 393.189 60.0579 395.027 58.1887C396.91 56.272 396.967 53.333 395.155 51.4992C393.025 49.3412 390.526 49.4265 387.727 51.7489C387.539 51.9049 387.276 51.9305 387.061 51.8159C386.847 51.7002 386.723 51.4663 386.748 51.2238C387.195 46.998 386.714 42.7905 386.483 40.769L386.467 40.6338C386.423 40.2463 386.381 39.8271 386.339 39.3397C385.028 38.9328 383.824 38.3394 382.755 37.5754C379.66 35.3626 378.124 32.4321 377.241 30.0682C375.811 32.4272 374.279 34.3158 370.264 35.6318C367.118 36.6639 363.804 35.633 362.205 33.3191C360.704 36.3666 356.641 39.7638 353.818 40.0501C350.812 40.3559 349.454 39.0692 348.273 36.5433C347.849 36.9332 347.438 37.3219 347.038 37.7021C345.239 39.4104 343.539 41.0225 341.408 41.8316C341.355 41.8511 341.302 41.8706 341.248 41.8901ZM362.477 90.3851C355.255 90.3851 348.082 87.3754 343.668 82.471C339.293 77.6092 337.336 70.8392 337.855 62.3499C338.039 59.3402 338.485 56.3122 338.915 53.3842C339.467 49.63 340.038 45.7466 340.05 41.9144C340.05 41.7597 340.053 41.6001 340.055 41.4392C340.059 41.176 340.234 40.9457 340.489 40.8726C340.655 40.8251 340.819 40.7727 340.983 40.7118C342.89 39.988 344.43 38.5258 346.212 36.8333C346.809 36.2667 347.427 35.6806 348.089 35.0945C348.234 34.9665 348.431 34.9154 348.62 34.958C348.809 35.0019 348.965 35.1323 349.039 35.3114C350.18 38.0298 351.08 39.1228 353.698 38.8584C356.444 38.5794 360.909 34.5011 361.529 31.7046C361.586 31.4438 361.81 31.2526 362.077 31.2367C362.348 31.2221 362.59 31.3829 362.679 31.6352C363.667 34.4353 367.206 35.3735 369.89 34.4938C374.09 33.1156 375.255 31.1136 376.867 28.3428C376.987 28.1381 377.215 28.0235 377.451 28.0491C377.687 28.0747 377.885 28.2368 377.957 28.4634C378.7 30.8005 380.077 34.1867 383.452 36.6006C384.515 37.3609 385.73 37.9336 387.061 38.3028C387.304 38.3698 387.478 38.5806 387.499 38.8316C387.552 39.4884 387.602 40.0184 387.658 40.4985L387.673 40.6326C387.885 42.4859 388.303 46.1377 388.053 50.0174C390.936 48.1361 393.725 48.3457 396.008 50.6559C398.285 52.9613 398.229 56.6388 395.881 59.0282C393.895 61.0497 390.459 62.0099 387.169 61.5091C387.113 61.8832 387.054 62.2792 386.994 62.6935C386.128 68.5849 384.821 77.4885 381.411 81.8325C377.369 86.9831 370.278 90.2596 362.905 90.3815C362.762 90.3839 362.618 90.3851 362.477 90.3851Z" fill="black"/>
<path d="M347.019 51.8573C346.923 51.0141 347.567 50.2477 348.459 50.1465C349.351 50.0466 350.152 50.6486 350.248 51.493C350.343 52.3374 349.699 53.1039 348.807 53.2038C347.916 53.3049 347.115 52.7017 347.019 51.8573Z" fill="black"/>
<path d="M369.659 53.0796C369.562 52.2352 370.207 51.4688 371.099 51.3676C371.991 51.2677 372.791 51.8697 372.888 52.7141C372.984 53.5585 372.338 54.3249 371.446 54.426C370.555 54.526 369.755 53.9241 369.659 53.0796Z" fill="black"/>
<path d="M362.925 79.6746C362.222 79.6746 361.518 79.5868 360.832 79.4052C360.513 79.3212 360.321 78.9934 360.407 78.6729C360.491 78.3537 360.82 78.1624 361.139 78.2465C363.784 78.9459 366.758 78.0198 368.535 75.9435C368.751 75.6925 369.129 75.662 369.381 75.8789C369.632 76.0934 369.661 76.4723 369.447 76.7233C367.836 78.6035 365.384 79.6746 362.925 79.6746Z" fill="black"/>
<path d="M359.071 71.1669C357.99 71.1669 356.841 70.9512 355.639 70.5198C355.001 70.2908 354.278 69.9764 353.752 69.372C353.077 68.5946 352.837 67.4504 353.096 66.2319C353.276 65.3753 353.656 64.6089 354.023 63.868L354.187 63.5342C356.135 59.5436 357.152 55.0875 357.13 50.6473C357.128 50.3171 357.395 50.0466 357.726 50.0454C357.727 50.0454 357.728 50.0454 357.728 50.0454C358.059 50.0454 358.327 50.311 358.328 50.6412C358.351 55.2642 357.292 59.9043 355.266 64.0593L355.098 64.3993C354.748 65.106 354.418 65.7714 354.268 66.4793C354.091 67.3152 354.236 68.1023 354.657 68.5849C355.001 68.9809 355.551 69.2148 356.043 69.3915C357.493 69.9106 358.839 70.08 360.04 69.8972C361.402 69.6876 362.612 68.9723 363.276 67.9829C363.462 67.7075 363.833 67.6344 364.109 67.8197C364.383 68.0036 364.456 68.3753 364.272 68.6506C363.41 69.9325 361.935 70.8184 360.221 71.0816C359.849 71.1389 359.464 71.1669 359.071 71.1669Z" fill="black"/>
<path d="M386.983 55.3789C386.957 55.3789 386.931 55.3765 386.904 55.3728C386.576 55.3302 386.345 55.0292 386.389 54.7014C386.634 52.8359 386.726 51.8404 386.892 50.0321C386.922 49.7031 387.21 49.457 387.544 49.4911C387.874 49.5203 388.115 49.8128 388.086 50.1418C387.918 51.9647 387.825 52.9687 387.577 54.8574C387.536 55.1596 387.279 55.3789 386.983 55.3789Z" fill="black"/>
<path d="M334.839 37.3669C334.788 37.3669 334.735 37.3462 334.696 37.3072C333.156 35.7256 332.593 33.2594 333.295 31.1697C333.33 31.0649 333.444 31.01 333.547 31.0442C333.652 31.0795 333.708 31.1928 333.674 31.2976C333.019 33.2484 333.544 35.5514 334.983 37.027C335.06 37.1062 335.058 37.2329 334.979 37.3097C334.94 37.3475 334.89 37.3669 334.839 37.3669Z" fill="black"/>
<path d="M394.744 35.2493C394.688 35.2493 394.633 35.2261 394.593 35.181C394.521 35.0982 394.528 34.9727 394.611 34.8995C397.191 32.6209 398.201 28.7595 397.066 25.5098C397.03 25.4062 397.085 25.2929 397.188 25.2563C397.293 25.2186 397.408 25.2746 397.443 25.3782C398.63 28.7778 397.573 32.8159 394.875 35.1993C394.838 35.2322 394.79 35.2493 394.744 35.2493Z" fill="black"/>
<path d="M252.976 148.254C249.612 131.564 247.859 101.804 243.189 85.1919C238.802 80.8613 234.257 73.9293 232.487 67.6357C231.767 65.0745 231.793 64.0314 233.504 62.3097C234.754 61.051 236.953 61.475 238.339 62.328C237.705 60.7159 236.172 59.2476 238.174 57.6172C239.076 56.8825 240.356 56.4974 241.336 57.1225C240.822 53.8643 244.47 51.9549 246.5 55.0937C244.959 51.069 243.542 47.4635 241.94 43.7397C240.95 41.4356 239.996 38.6818 241.438 37.7484C243.288 36.5518 245.152 39.1228 247.202 43.0038C250.698 49.6251 251.855 51.8294 255.72 57.8049C259.358 63.4295 262.305 73.7672 259.475 77.5665C259.644 84.3134 275.089 126.523 281.121 135.852C283.324 139.257 280.456 141.467 278.958 145.236C277.149 149.788 270.132 165.677 259.298 157.696C256.227 155.435 253.177 149.252 252.976 148.254Z" fill="white"/>
<path d="M235.614 62.1195C234.963 62.1195 234.358 62.3011 233.929 62.7324C232.418 64.2531 232.386 65.0634 233.064 67.4736C234.913 74.0535 239.694 80.899 243.61 84.7653C243.684 84.8385 243.738 84.9299 243.766 85.0298C246.511 94.7948 248.23 108.897 249.892 122.535C251.066 132.152 252.172 141.234 253.564 148.136C253.744 149.031 256.722 155.055 259.654 157.214C262.222 159.106 264.748 159.717 267.163 159.026C272.73 157.432 276.593 149.563 278.402 145.014C278.838 143.915 279.394 142.933 279.885 142.067C281.114 139.892 282.004 138.32 280.618 136.178C274.706 127.034 259.058 84.8665 258.875 77.5811C258.873 77.447 258.914 77.3155 258.993 77.2082C261.533 73.8001 259.003 63.9851 255.217 58.1302C251.368 52.1778 250.204 49.9747 246.752 43.4351L246.672 43.284C245.583 41.221 243.98 38.438 242.639 38.0883C242.337 38.0091 242.059 38.0602 241.764 38.2515C240.566 39.0265 242.015 42.3957 242.491 43.5033C244.186 47.4464 245.689 51.3005 247.059 54.8792C247.169 55.1656 247.045 55.4885 246.772 55.6274C246.498 55.7675 246.163 55.6761 245.997 55.419C245.272 54.298 244.265 53.8483 243.306 54.2151C242.479 54.5319 241.694 55.5482 241.928 57.0286C241.965 57.2626 241.863 57.4953 241.665 57.6245C241.468 57.7524 241.213 57.7549 241.014 57.6281C240.276 57.1566 239.246 57.516 238.553 58.0814C237.405 59.0172 237.689 59.702 238.389 61.0424C238.566 61.3836 238.75 61.7369 238.897 62.1073C238.992 62.3474 238.921 62.6216 238.724 62.7873C238.526 62.9518 238.245 62.9737 238.025 62.8372C237.321 62.4047 236.432 62.1195 235.614 62.1195ZM265.199 160.502C263.138 160.502 261.042 159.726 258.942 158.179C255.712 155.799 252.617 149.504 252.389 148.372C250.989 141.426 249.879 132.32 248.703 122.68C247.055 109.157 245.35 95.1774 242.655 85.5062C238.647 81.5095 233.801 74.5251 231.91 67.799C231.131 65.0293 231.192 63.7865 233.078 61.8868C234.099 60.8608 235.662 60.7353 237.09 61.135C236.53 59.9908 236.078 58.5506 237.795 57.1517C238.713 56.4048 239.769 56.0928 240.699 56.25C240.79 54.811 241.609 53.5815 242.878 53.0965C243.515 52.8528 244.304 52.7992 245.092 53.1039C243.96 50.1795 242.735 47.1039 241.391 43.9773C240.241 41.3027 239.309 38.4124 241.113 37.2451C241.694 36.8698 242.31 36.7638 242.942 36.9283C244.368 37.2999 245.754 38.9802 247.732 42.7235L247.812 42.8758C251.246 49.3801 252.404 51.5722 256.224 57.4795C259.766 62.9566 262.964 73.4601 260.083 77.7444C260.525 84.6338 275.487 126.035 281.625 135.527C283.404 138.278 282.201 140.405 280.926 142.656C280.433 143.53 279.921 144.434 279.515 145.456C277.625 150.21 273.552 158.443 267.492 160.177C266.735 160.394 265.969 160.502 265.199 160.502Z" fill="black"/>
<path d="M241.018 72.1321C240.512 72.1321 239.982 71.9725 239.504 71.6605C238.846 71.2316 238.385 70.6114 237.978 70.0655L236.099 67.542C235.902 67.2764 235.957 66.9011 236.222 66.7037C236.488 66.5063 236.863 66.5611 237.06 66.8267L238.939 69.349C239.304 69.8377 239.679 70.3433 240.159 70.6565C240.601 70.9453 241.112 71.0147 241.458 70.8344C241.88 70.6138 242.05 70.0387 242.03 69.5976C242.003 68.9969 241.721 68.4047 241.436 67.8491C240.364 65.7618 240.064 65.3987 239.176 64.3227C238.842 63.9182 238.428 63.4162 237.866 62.696C237.662 62.434 237.71 62.0575 237.971 61.854C238.231 61.6518 238.608 61.6981 238.811 61.9588C239.362 62.6656 239.77 63.1615 240.099 63.5587C241.024 64.6798 241.37 65.0989 242.502 67.3007C242.833 67.9441 243.188 68.702 243.227 69.5428C243.274 70.5627 242.797 71.4875 242.012 71.8969C241.71 72.0541 241.37 72.1321 241.018 72.1321Z" fill="black"/>
<path d="M245.578 71.0098C244.882 71.0098 244.235 70.6454 243.677 70.2677C243.149 69.9119 242.623 69.5342 242.111 69.1455C241.848 68.9444 241.797 68.5691 241.997 68.3059C242.198 68.0415 242.573 67.9903 242.836 68.1914C243.331 68.5667 243.839 68.931 244.348 69.2746C244.814 69.5902 245.349 69.8985 245.768 69.7864C246.292 69.6475 246.565 68.8884 246.562 68.2121C246.56 67.141 245.589 64.4396 240.971 57.6501L240.84 57.4601C240.655 57.1859 240.726 56.813 241 56.6266C241.274 56.4414 241.647 56.5133 241.832 56.7862L241.961 56.9763C245.86 62.7081 247.758 66.3831 247.761 68.2084C247.764 69.3465 247.245 70.6345 246.076 70.9452C245.908 70.989 245.741 71.0098 245.578 71.0098Z" fill="black"/>
<path d="M248.591 75.8302C248.329 75.8302 248.089 75.6584 248.015 75.394C247.183 72.4391 248.94 69.9851 250.223 68.1927C250.669 67.5712 251.414 66.5294 251.279 66.3052C250.795 65.4973 248.099 64.6797 246.804 64.2849C246.066 64.0619 245.733 63.9583 245.54 63.8462C244.152 63.0384 243.699 62.1038 243.564 61.4628C243.444 60.895 243.536 60.3284 243.81 59.9519C244.175 59.4487 245.394 58.4288 246.208 58.3398C247.699 58.1753 250.984 58.9881 253.948 59.7618C254.33 59.8617 254.662 59.9483 254.92 60.0128C256.041 60.2907 259.102 62.2122 259.207 63.6318C259.231 63.962 258.984 64.2496 258.654 64.2752C258.317 64.2995 258.036 64.0509 258.011 63.722C257.963 63.1517 255.688 61.4385 254.631 61.1753C254.369 61.1107 254.033 61.0218 253.645 60.9218C251.579 60.382 247.733 59.3804 246.338 59.5315C246.021 59.5669 245.075 60.2492 244.78 60.6562C244.748 60.7001 244.67 60.8987 244.737 61.2155C244.806 61.5457 245.082 62.1927 246.143 62.8105C246.247 62.8641 246.728 63.0091 247.152 63.1383C249.395 63.8206 251.641 64.5774 252.306 65.6874C252.846 66.5867 252.119 67.6029 251.198 68.8908C249.992 70.5736 248.492 72.6682 249.169 75.0686C249.258 75.3879 249.072 75.7193 248.754 75.8083C248.7 75.8241 248.645 75.8302 248.591 75.8302Z" fill="black"/>
<path d="M248.776 59.7473C248.524 59.7473 248.289 59.5865 248.206 59.333C248.012 58.7359 247.267 57.4797 246.667 56.4708C246.35 55.9395 246.052 55.4363 245.85 55.0597C245.694 54.7673 245.803 54.4042 246.096 54.2482C246.387 54.0922 246.75 54.2019 246.906 54.4931C247.096 54.8465 247.388 55.3388 247.698 55.8591C248.361 56.974 249.111 58.2376 249.347 58.9638C249.449 59.2782 249.276 59.6157 248.962 59.7181C248.901 59.7376 248.838 59.7473 248.776 59.7473Z" fill="black"/>
<path d="M248.078 69.5769C247.784 69.5769 247.498 69.5172 247.243 69.3929C246.945 69.2479 246.822 68.8897 246.967 68.5911C247.111 68.2938 247.469 68.1708 247.767 68.3146C248.032 68.4437 248.519 68.3925 248.905 68.0465C249.5 67.514 249.595 66.5246 249.169 65.3329C249.057 65.0209 249.219 64.6773 249.531 64.5664C249.841 64.4543 250.185 64.6164 250.297 64.9283C251.149 67.3069 250.168 68.5253 249.706 68.9384C249.243 69.3539 248.646 69.5769 248.078 69.5769Z" fill="black"/>
<path d="M452.161 172.139C447.89 149.698 447.859 125.609 429.781 110.519C421.104 103.277 400.533 100.15 388.475 99.3762C387.736 111.051 376.323 113.828 369.018 113.358C356.817 112.576 354.646 110.178 351.546 100.914C348.808 102.004 332.329 102.832 321.628 112.393C301.764 130.138 277.473 128.493 279.155 129.583C280.666 130.561 275.245 155.331 260.093 158.367C252.13 159.962 296.483 166.534 326.896 158.484C325.756 174.4 331.471 220.829 334.771 238.702C366.494 260.825 431.738 235.81 431.738 235.81C431.738 235.81 426.75 221.125 426.75 210.048C426.75 204.555 439.64 216.72 442.191 217.173C443.038 217.323 445.693 215.431 446.032 214.639C448.176 209.622 456.089 192.784 452.161 172.139Z" fill="black"/>
<path d="M335.315 238.351C351.543 249.51 376.737 248.113 395.049 244.962C413.012 241.871 428.015 236.543 430.99 235.45C430.089 232.658 426.151 219.884 426.151 210.048C426.151 208.913 426.643 208.425 427.056 208.215C428.81 207.323 432.273 209.681 437.354 213.382C439.429 214.893 441.575 216.455 442.296 216.583C442.303 216.584 442.312 216.584 442.32 216.584C442.925 216.584 445.222 215.011 445.481 214.404C445.579 214.174 445.69 213.919 445.811 213.64C448.402 207.658 455.286 191.77 451.572 172.251C450.768 168.025 450.105 163.683 449.463 159.483C446.606 140.766 443.906 123.09 429.397 110.98C421.485 104.376 402.851 100.962 389.024 100.014C388.533 105.09 385.939 109.035 381.494 111.448C376.57 114.121 371.102 114.093 368.98 113.957C356.869 113.181 354.274 110.755 351.167 101.662C350.452 101.851 349.407 102.039 348.09 102.275C341.86 103.396 330.262 105.482 322.028 112.84C306.466 126.743 288.441 128.825 281.655 129.61C280.993 129.687 280.354 129.76 279.922 129.827C280.048 130.421 280.049 131.509 279.658 133.559C278.188 141.268 272.256 156.458 260.315 158.933C265.751 160.936 301.102 164.693 326.742 157.906C326.93 157.857 327.13 157.9 327.278 158.023C327.427 158.147 327.507 158.335 327.494 158.527C326.383 174.048 331.956 220.013 335.315 238.351ZM370.703 248.405C357.661 248.405 344.394 246.145 334.428 239.194C334.299 239.104 334.21 238.967 334.182 238.812C330.875 220.901 325.368 175.701 326.246 159.273C298.887 166.235 261.126 161.859 258.806 159.428C258.578 159.189 258.499 158.889 258.588 158.606C258.751 158.09 259.381 157.898 259.974 157.779C267.358 156.3 272.089 149.552 274.758 144.153C278.177 137.232 279.063 130.931 278.744 130.024C278.421 129.763 278.466 129.434 278.491 129.334C278.626 128.753 279.067 128.702 281.517 128.419C288.2 127.647 305.951 125.595 321.228 111.946C329.716 104.362 341.531 102.237 347.877 101.096C349.5 100.804 350.782 100.574 351.324 100.357C351.478 100.296 351.649 100.301 351.798 100.371C351.948 100.44 352.062 100.568 352.115 100.724C355.149 109.795 357.075 111.993 369.056 112.76C371.076 112.891 376.272 112.919 380.923 110.394C385.22 108.062 387.56 104.342 387.877 99.3386C387.886 99.179 387.959 99.0315 388.079 98.9268C388.198 98.8207 388.354 98.7671 388.513 98.7781C402.573 99.6798 421.918 103.176 430.166 110.06C445.022 122.461 447.883 141.189 450.649 159.301C451.289 163.49 451.95 167.823 452.75 172.027C456.533 191.908 449.542 208.042 446.91 214.116C446.79 214.393 446.68 214.646 446.583 214.876C446.159 215.869 443.285 217.979 442.086 217.763C441.141 217.595 439.405 216.357 436.648 214.35C433.724 212.22 428.83 208.66 427.6 209.283C427.393 209.389 427.349 209.757 427.349 210.048C427.349 220.896 432.256 235.472 432.306 235.618C432.409 235.923 432.253 236.255 431.953 236.37C431.789 236.433 415.355 242.684 395.252 246.144C387.846 247.417 379.324 248.405 370.703 248.405Z" fill="black"/>
<path d="M419.425 192.346C419.174 192.346 418.94 192.186 418.856 191.935C412.381 172.327 408.718 159.924 408.718 133.035C408.718 132.705 408.986 132.437 409.316 132.437C409.648 132.437 409.916 132.705 409.916 133.035C409.916 159.739 413.558 172.067 419.995 191.559C420.099 191.873 419.928 192.213 419.614 192.316C419.55 192.336 419.487 192.346 419.425 192.346Z" fill="black"/>
<path d="M327.295 158.038C327.295 158.038 327.295 158.039 327.296 158.039C327.295 158.039 327.295 158.038 327.295 158.038ZM326.895 159.084C326.753 159.084 326.61 159.034 326.497 158.932C326.152 158.624 326.147 158.3 326.09 154.33C326.047 151.388 325.977 146.465 325.7 138.986C325.688 138.656 325.946 138.378 326.276 138.366C326.612 138.35 326.886 138.612 326.898 138.942C327.175 146.435 327.246 151.366 327.289 154.313C327.32 156.417 327.339 157.835 327.412 158.18C327.541 158.399 327.521 158.685 327.343 158.884C327.224 159.016 327.06 159.084 326.895 159.084Z" fill="black"/>
<path d="M361.077 148.097C348.896 148.097 337.832 147.02 331.995 144.049C331.896 143.999 331.857 143.878 331.907 143.78C331.957 143.682 332.078 143.642 332.177 143.693C344.215 149.821 378.804 147.817 399.114 144.973C399.221 144.959 399.324 145.034 399.34 145.143C399.355 145.253 399.279 145.353 399.17 145.369C388.611 146.847 374.198 148.097 361.077 148.097Z" fill="white"/>
<path d="M374.077 165.2C357.91 165.2 343.122 162.626 332.038 159.917C331.93 159.891 331.866 159.783 331.891 159.675C331.918 159.568 332.025 159.502 332.133 159.529C349.139 163.685 374.88 167.521 400.919 162.195C401.029 162.173 401.134 162.244 401.156 162.351C401.178 162.46 401.108 162.566 401 162.587C391.867 164.455 382.772 165.2 374.077 165.2Z" fill="white"/>
<path d="M450.477 201.884C450.409 201.884 450.342 201.849 450.305 201.786C444.482 191.979 435.001 187.037 426.154 189.197C426.049 189.225 425.939 189.158 425.912 189.051C425.887 188.944 425.952 188.837 426.06 188.81C435.083 186.607 444.733 191.62 450.649 201.582C450.705 201.677 450.673 201.8 450.578 201.856C450.547 201.875 450.511 201.884 450.477 201.884Z" fill="white"/>
<path d="M448.181 205.894C448.139 205.894 448.096 205.881 448.061 205.853C446.976 205.03 446.228 203.874 445.503 202.755C445.251 202.365 444.989 201.962 444.718 201.582C443.064 199.251 440.805 197.412 438.187 196.263C438.086 196.219 438.04 196.101 438.085 196C438.129 195.899 438.247 195.855 438.348 195.897C441.031 197.076 443.348 198.961 445.044 201.35C445.32 201.738 445.584 202.145 445.838 202.538C446.544 203.628 447.274 204.755 448.302 205.535C448.39 205.602 448.407 205.726 448.34 205.815C448.301 205.866 448.241 205.894 448.181 205.894Z" fill="white"/>
<path d="M279.155 146.768C279.129 146.768 279.104 146.763 279.079 146.753C278.977 146.712 278.928 146.595 278.97 146.492C280.972 141.604 281.954 136.229 281.811 130.949C281.807 130.838 281.895 130.747 282.005 130.743C282.118 130.745 282.207 130.827 282.211 130.938C282.355 136.274 281.362 141.705 279.34 146.644C279.308 146.722 279.234 146.768 279.155 146.768Z" fill="white"/>
<path d="M285.979 136.899C285.965 136.899 285.949 136.898 285.934 136.894C285.827 136.87 285.759 136.763 285.783 136.655C286.211 134.776 286.33 132.851 286.139 130.936C286.128 130.826 286.209 130.727 286.318 130.716C286.429 130.704 286.525 130.786 286.536 130.895C286.732 132.855 286.611 134.823 286.173 136.744C286.152 136.837 286.07 136.899 285.979 136.899Z" fill="white"/>
<path d="M421.031 193.511C420.768 193.511 420.525 193.335 420.453 193.068C416.07 176.954 413.079 160.387 411.561 143.826C411.531 143.496 411.774 143.205 412.103 143.175C412.426 143.146 412.726 143.388 412.755 143.717C414.266 160.208 417.245 176.706 421.61 192.754C421.696 193.073 421.509 193.402 421.188 193.489C421.136 193.503 421.083 193.511 421.031 193.511Z" fill="white"/>
<path d="M325.588 162.094C325.584 162.094 325.582 162.094 325.578 162.094C325.248 162.089 324.984 161.818 324.989 161.486L325.268 143.179C325.273 142.85 325.539 142.588 325.867 142.588C325.87 142.588 325.873 142.588 325.876 142.588C326.207 142.593 326.472 142.866 326.467 143.197L326.188 161.504C326.182 161.832 325.915 162.094 325.588 162.094Z" fill="white"/>
<path d="M423.588 197.691C425.952 195.416 430.438 196.28 433.399 197.691C434.856 198.386 446.569 209.213 442.289 218.279C438.604 226.08 436.173 229.02 416.677 257.844C415.952 258.915 415.195 260.018 414.096 260.7C410.602 262.871 406.035 259.52 404.521 255.694C401.314 247.585 405.585 238.641 409.518 230.859C413.503 222.975 421.225 199.965 423.588 197.691Z" fill="white"/>
<path d="M423.588 197.691H423.592H423.588ZM427.683 196.898C426.23 196.898 424.908 197.253 424.004 198.123C422.782 199.298 419.591 207.55 416.775 214.829C414.344 221.114 411.83 227.614 410.053 231.129C406.595 237.969 401.861 247.337 405.078 255.474C405.996 257.794 408.04 259.824 410.164 260.526C411.082 260.829 412.451 261.017 413.781 260.192C414.788 259.564 415.528 258.472 416.181 257.507C420.275 251.454 423.618 246.542 426.376 242.486C436.707 227.303 438.856 224.144 441.747 218.023C445.938 209.148 434.061 198.671 433.14 198.232C431.49 197.445 429.486 196.898 427.683 196.898ZM411.697 261.985C411.077 261.985 410.438 261.878 409.788 261.664C407.345 260.857 405.005 258.546 403.965 255.915C400.548 247.276 405.424 237.631 408.984 230.588C410.733 227.126 413.236 220.656 415.656 214.398C419.454 204.581 421.855 198.527 423.173 197.259C425.625 194.901 430.204 195.504 433.657 197.149C435.48 198.019 447.287 209.099 442.83 218.535C439.901 224.741 437.741 227.914 427.367 243.161C424.608 247.215 421.267 252.126 417.173 258.179C416.454 259.243 415.639 260.448 414.413 261.209C413.582 261.726 412.663 261.985 411.697 261.985Z" fill="black"/>
<path d="M556.84 140.672C556.613 150.567 562.669 160.671 572.016 163.929C577.105 165.703 582.684 165.452 587.9 166.814C593.114 168.176 598.429 172.102 598.463 177.491C598.486 181.072 596.455 189.192 607.175 193.949C616.018 197.874 613.905 219.105 586.52 228.033C578.13 230.767 583.537 223.887 574.815 222.545C566.203 221.219 558.39 216.349 552.449 209.975C546.506 203.601 542.301 195.787 539.026 187.712C535.253 178.413 532.615 168.141 534.947 158.382C537.279 148.623 545.883 139.805 556.84 140.672Z" fill="black"/>
<path d="M555.357 141.212C545.153 141.212 537.588 149.912 535.53 158.523C533.582 166.671 534.869 175.874 539.581 187.488C543.354 196.787 547.706 204.01 552.887 209.566C559.201 216.341 567.022 220.74 574.907 221.953C579.363 222.638 580.431 224.768 581.212 226.321C581.996 227.879 582.426 228.737 586.334 227.463C604.079 221.679 610.829 210.777 611.218 203.199C611.429 199.099 609.786 195.764 606.931 194.498C597.175 190.167 597.569 183.177 597.806 179C597.839 178.423 597.867 177.925 597.864 177.496C597.831 172.361 592.597 168.661 587.748 167.394C585.478 166.801 583.079 166.513 580.76 166.234C577.788 165.875 574.715 165.505 571.819 164.495C562.718 161.323 556.237 151.601 556.234 141.234C555.939 141.219 555.647 141.212 555.357 141.212ZM583.403 229.262C581.538 229.262 580.842 228.253 580.143 226.86C579.404 225.393 578.569 223.73 574.724 223.138C566.575 221.884 558.507 217.355 552.01 210.384C546.728 204.717 542.3 197.376 538.47 187.938C533.66 176.083 532.355 166.647 534.365 158.244C536.634 148.752 545.306 139.155 556.886 140.074C557.204 140.099 557.446 140.367 557.439 140.685C557.208 150.761 563.422 160.299 572.214 163.364C574.988 164.332 577.996 164.693 580.903 165.043C583.262 165.327 585.703 165.622 588.051 166.235C593.329 167.613 599.026 171.722 599.062 177.488C599.066 177.954 599.035 178.495 599.002 179.068C598.77 183.185 598.419 189.408 607.417 193.402C610.737 194.876 612.652 198.653 612.414 203.26C612.006 211.218 605.028 222.631 586.705 228.603C585.302 229.061 584.235 229.262 583.403 229.262Z" fill="black"/>
<path d="M503.304 118.066C506.188 132.127 508.976 147.261 503.216 160.41C501.345 164.684 498.624 168.575 497.086 172.979C495.258 178.216 495.201 183.907 495.7 189.431C496.646 199.872 499.781 210.583 507.124 218.067C514.465 225.55 526.749 228.812 535.806 223.533C543.753 218.9 547.383 208.948 546.882 199.763C546.383 190.578 542.464 181.957 538.327 173.739C528.392 153.999 516.81 135.088 503.304 118.066Z" fill="black"/>
<path d="M523.639 186.653C523.896 179.156 522.973 174.957 522.671 169.352C525.695 167.838 528.962 166.784 532.303 166.244C533.805 166.002 535.497 165.908 536.652 166.814C537.376 167.382 540.804 164.358 541.16 165.191C543.601 170.913 543.808 179.071 546.249 184.793C546.437 185.234 554.988 184.441 555.177 184.883C555.971 186.748 555.305 202.262 554.712 202.655C523.425 223.457 508.354 193.707 508.354 193.707C508.354 193.707 514.03 190.227 523.639 186.653Z" fill="white"/>
<path d="M523.638 186.653H523.643H523.638ZM509.161 193.927C510.474 196.214 516.527 205.794 527.319 208.632C535.52 210.788 544.582 208.638 554.254 202.24C554.764 200.592 555.253 187.779 554.7 185.365C554.018 185.304 552.143 185.379 550.728 185.437C546.355 185.613 545.933 185.578 545.698 185.028C544.451 182.108 543.773 178.547 543.116 175.104C542.491 171.83 541.845 168.447 540.719 165.691C540.372 165.82 539.75 166.184 539.312 166.441C537.998 167.212 536.96 167.818 536.281 167.286C535.272 166.494 533.676 166.63 532.399 166.835C529.234 167.347 526.171 168.314 523.292 169.714C523.393 171.425 523.549 172.99 523.713 174.638C524.056 178.087 524.411 181.652 524.238 186.673C524.229 186.916 524.076 187.129 523.848 187.214C515.993 190.135 510.734 193.023 509.161 193.927ZM533.653 210.643C531.384 210.643 529.168 210.359 527.002 209.787C514.256 206.43 508.077 194.484 507.821 193.977C507.679 193.698 507.776 193.358 508.041 193.195C508.099 193.161 513.726 189.737 523.053 186.231C523.191 181.5 522.85 178.073 522.52 174.757C522.35 173.047 522.174 171.279 522.072 169.384C522.059 169.147 522.189 168.924 522.403 168.816C525.494 167.269 528.792 166.204 532.208 165.652C533.698 165.412 535.576 165.269 536.945 166.284C537.278 166.244 538.164 165.724 538.705 165.407C539.92 164.697 540.635 164.303 541.208 164.493C541.437 164.569 541.616 164.733 541.711 164.956C542.956 167.877 543.636 171.437 544.293 174.88C544.919 178.161 545.565 181.55 546.696 184.308C547.349 184.373 549.251 184.296 550.679 184.239C555.066 184.062 555.492 184.098 555.727 184.648C556.284 185.952 556.148 191.861 556.064 194.341C555.781 202.665 555.284 202.995 555.045 203.154C547.55 208.137 540.382 210.643 533.653 210.643Z" fill="black"/>
<path d="M500.066 121.517C500.986 128.458 502.39 135.741 500.594 142.653C499.614 146.423 499.707 165.584 515.083 171.04C523.164 173.909 532.449 173.318 540.786 168.262C546.441 164.832 553.306 154.176 551.94 143.6C556.621 144.898 561.246 141.741 561.301 137.533C561.331 135.108 558.657 132.068 555.83 132.205C553.643 132.313 553.382 132.334 551.717 133.607C550.581 128.645 549.891 123.593 549.983 117.884C544.665 112.027 536.139 109.033 527.611 107.755C524.791 107.333 521.897 107.073 519.035 107.43C510.849 108.452 499.122 114.388 500.066 121.517Z" fill="white"/>
<path d="M500.661 121.438C500.772 122.279 500.89 123.125 501.009 123.974C501.881 130.188 502.781 136.615 501.174 142.804C500.502 145.389 499.656 164.929 515.283 170.476C523.703 173.463 532.65 172.496 540.475 167.749C545.775 164.536 552.693 154.114 551.347 143.676C551.32 143.476 551.397 143.278 551.548 143.146C551.7 143.014 551.906 142.967 552.101 143.022C554.275 143.625 556.614 143.204 558.357 141.897C559.825 140.795 560.679 139.202 560.701 137.525C560.715 136.45 560.091 135.173 559.073 134.191C558.103 133.257 556.936 132.755 555.859 132.803C553.738 132.908 553.611 132.914 552.08 134.083C551.92 134.206 551.705 134.239 551.514 134.169C551.322 134.1 551.179 133.939 551.134 133.739C549.874 128.246 549.316 123.273 549.38 118.114C543.601 111.889 534.321 109.367 527.521 108.348C525.192 107.998 522.13 107.646 519.108 108.024C513.538 108.72 505.749 111.879 502.285 116.367C500.985 118.052 500.438 119.758 500.661 121.438ZM525.046 173.378C521.642 173.378 518.223 172.791 514.882 171.605C499.481 166.14 498.814 147.122 500.014 142.503C501.561 136.544 500.678 130.238 499.823 124.141C499.703 123.288 499.584 122.439 499.472 121.596C499.206 119.587 499.834 117.582 501.337 115.635C504.999 110.89 513.151 107.56 518.96 106.835C522.126 106.439 525.294 106.802 527.699 107.162C534.753 108.22 544.422 110.868 550.427 117.482C550.529 117.594 550.584 117.741 550.583 117.894C550.504 122.759 550.987 127.449 552.102 132.579C553.278 131.764 553.847 131.702 555.8 131.607C557.193 131.536 558.699 132.166 559.906 133.329C561.153 134.532 561.917 136.147 561.899 137.54C561.873 139.592 560.844 141.529 559.077 142.856C557.264 144.215 554.906 144.757 552.627 144.366C553.603 155.143 546.667 165.396 541.097 168.773C536.06 171.828 530.573 173.378 525.046 173.378Z" fill="black"/>
<path d="M533.187 128.818C532.846 128.818 532.503 128.84 532.159 128.883C527.345 129.506 523.991 134.38 524.685 139.75C525.022 142.362 526.254 144.698 528.155 146.325C530.038 147.938 532.355 148.658 534.674 148.361C536.995 148.061 539.051 146.775 540.463 144.736C541.888 142.679 542.486 140.108 542.15 137.495C541.812 134.882 540.579 132.547 538.679 130.92C537.075 129.546 535.155 128.818 533.187 128.818ZM533.641 149.626C531.389 149.627 529.201 148.799 527.375 147.235C525.249 145.415 523.871 142.811 523.496 139.904C522.718 133.878 526.536 128.401 532.006 127.695C534.667 127.351 537.313 128.173 539.458 130.009C541.585 131.83 542.962 134.435 543.338 137.341C543.713 140.25 543.041 143.118 541.448 145.418C539.84 147.74 537.489 149.207 534.828 149.549C534.432 149.602 534.036 149.626 533.641 149.626Z" fill="black"/>
<path d="M505.386 130.092C505.049 130.092 504.709 130.113 504.368 130.158C499.552 130.78 496.199 135.654 496.892 141.023C497.23 143.637 498.462 145.972 500.362 147.6C502.246 149.213 504.564 149.933 506.881 149.636C509.203 149.336 511.258 148.048 512.67 146.011C514.095 143.954 514.694 141.382 514.357 138.769C513.713 133.781 509.8 130.092 505.386 130.092ZM505.849 150.901C503.596 150.901 501.408 150.073 499.582 148.51C497.456 146.689 496.079 144.086 495.703 141.178C494.925 135.153 498.743 129.676 504.214 128.969C509.685 128.263 514.767 132.59 515.546 138.616C515.921 141.523 515.25 144.391 513.656 146.693C512.048 149.013 509.697 150.48 507.036 150.824C506.639 150.875 506.243 150.901 505.849 150.901Z" fill="black"/>
<path d="M558.082 79.1018C555.241 69.7572 545.363 64.4823 536.018 67.3226C526.672 70.1617 521.399 80.0401 524.238 89.386C527.078 98.7319 536.955 104.006 546.301 101.166C555.647 98.3261 560.921 88.4477 558.082 79.1018Z" fill="black"/>
<path d="M551.108 134.332C546.622 127.37 543.876 122.357 542.403 113.884C525.832 123.695 510.102 125.221 494.237 124.616C493.902 121.917 494.469 115.944 495.59 113.387C498.34 107.116 501.769 101.687 511.347 97.4049C518.06 94.405 527.095 92.4103 534.36 93.4558C541.579 94.4951 547.785 98.398 552.837 103.086C556.857 106.817 560.254 112.932 561.45 118.977C562.473 124.155 561.205 127.973 558.885 133.248C557.582 132.546 556.357 131.837 554.849 132.129C553.339 132.42 552.367 133.186 551.108 134.332Z" fill="black"/>
<path d="M527.067 160.906C525.87 160.906 524.764 160.534 523.89 159.807C523.636 159.595 523.602 159.217 523.814 158.962C524.026 158.709 524.403 158.675 524.658 158.885C525.788 159.827 527.479 159.968 529.18 159.257C531.083 158.464 532.645 156.929 533.577 154.938C533.718 154.638 534.075 154.507 534.374 154.649C534.674 154.789 534.803 155.146 534.663 155.444C533.603 157.707 531.82 159.455 529.642 160.364C528.772 160.727 527.898 160.906 527.067 160.906Z" fill="black"/>
<path d="M532.951 139.096C532.839 138.227 532.006 137.619 531.089 137.737C530.174 137.856 529.523 138.656 529.635 139.525C529.747 140.392 530.58 141.002 531.495 140.882C532.412 140.764 533.063 139.965 532.951 139.096Z" fill="black"/>
<path d="M508.198 140.397C508.086 139.53 507.253 138.922 506.337 139.04C505.421 139.158 504.77 139.957 504.882 140.826C504.994 141.695 505.827 142.303 506.744 142.185C507.659 142.066 508.311 141.266 508.198 140.397Z" fill="black"/>
<path d="M517.488 150.525C517.417 150.525 517.346 150.513 517.275 150.486L515.017 149.629C514.74 149.523 514.222 149.325 514.022 148.806C513.779 148.175 514.191 147.622 514.413 147.324C516.11 145.043 516.676 142.09 515.926 139.422C515.837 139.103 516.023 138.773 516.341 138.683C516.659 138.594 516.99 138.779 517.08 139.097C517.93 142.12 517.292 145.464 515.374 148.04C515.327 148.103 515.192 148.283 515.156 148.383C515.188 148.399 515.27 148.442 515.444 148.508L517.702 149.365C518.01 149.484 518.166 149.83 518.049 150.139C517.958 150.378 517.73 150.525 517.488 150.525Z" fill="black"/>
<path d="M514.548 137.061C514.222 137.061 513.955 136.799 513.949 136.471C513.923 134.917 515.433 133.832 516.941 133.448C519.393 132.822 522.176 133.464 524.033 135.081C524.283 135.299 524.308 135.677 524.09 135.927C523.873 136.177 523.495 136.203 523.245 135.985C521.677 134.619 519.32 134.078 517.238 134.61C516.188 134.878 515.133 135.595 515.148 136.451C515.153 136.782 514.889 137.055 514.558 137.061C514.556 137.061 514.552 137.061 514.548 137.061Z" fill="black"/>
<path d="M542.154 134.432C541.824 134.432 541.556 134.165 541.555 133.834C541.554 133.503 541.821 133.234 542.152 133.233L550.342 133.208C550.343 133.208 550.344 133.208 550.344 133.208C550.674 133.208 550.942 133.476 550.944 133.806C550.945 134.137 550.677 134.406 550.346 134.407L542.156 134.432H542.154Z" fill="black"/>
<path d="M551.837 140.096C551.835 140.096 551.833 140.096 551.831 140.096C551.5 140.093 551.235 139.821 551.238 139.491C551.259 137.495 550.858 135.468 550.08 133.631C549.95 133.326 550.093 132.975 550.398 132.846C550.701 132.716 551.054 132.858 551.184 133.164C552.026 135.152 552.459 137.344 552.436 139.503C552.433 139.832 552.166 140.096 551.837 140.096Z" fill="black"/>
<path d="M611.836 250.655C604.595 230.861 600.597 211.332 583.514 197.072C575.314 190.228 565.423 185.372 554.028 184.641C553.329 195.673 540.512 202.944 533.643 203.764C529.905 204.211 516.018 206.058 516.018 189.685C511.487 191.49 496.41 193.342 490.363 211.92C487.891 219.518 483.462 248.597 468.861 265.45C465.412 269.431 462.226 242.942 457.263 244.707C452.395 246.437 446.787 249.333 446.421 254.489C446.137 258.505 449.445 262.004 453.146 263.593C461.095 267.009 464.073 283.56 472.64 284.769C481.548 286.025 495.772 289.307 506.54 255.645C512.043 261.149 515.594 267.059 521.765 270.386C539.555 279.977 598.748 290.745 608.391 292.456C609.192 292.599 611.01 291.943 611.329 291.195C613.355 286.454 618.658 269.306 611.836 250.655Z" fill="#D0E2F2"/>
<path d="M506.54 255.047C506.698 255.047 506.851 255.108 506.964 255.222C508.749 257.008 510.327 258.83 511.852 260.594C514.994 264.225 517.961 267.655 522.051 269.859C539.598 279.32 597.138 289.851 608.496 291.866C609.106 291.973 610.598 291.38 610.778 290.96C611.112 290.179 618.862 271.606 611.273 250.861C610.003 247.39 608.821 243.89 607.677 240.505C602.234 224.401 597.093 209.188 583.13 197.533C574.323 190.181 564.719 186.062 554.576 185.279C553.953 191.393 549.885 195.828 546.522 198.501C542.63 201.595 537.604 203.894 533.715 204.359L533.589 204.374C531.029 204.682 524.232 205.497 519.7 201.477C517.013 199.092 515.579 195.414 515.432 190.534C514.933 190.7 514.366 190.871 513.745 191.059C507.558 192.928 496.042 196.407 490.934 212.106C490.452 213.584 489.894 215.893 489.189 218.816C486.372 230.487 481.126 252.209 469.314 265.844C468.775 266.464 468.236 266.507 467.876 266.431C466.257 266.093 465.131 262.725 463.281 256.802C461.812 252.099 459.984 246.247 458.143 245.327C457.906 245.209 457.692 245.192 457.464 245.271C450.707 247.673 447.291 250.702 447.019 254.53C446.746 258.383 450.126 261.644 453.382 263.043C457.258 264.709 459.967 269.284 462.587 273.708C465.589 278.778 468.424 283.569 472.725 284.175C473.021 284.216 473.324 284.261 473.632 284.306C482.425 285.587 495.715 287.523 505.97 255.464C506.033 255.264 506.196 255.113 506.399 255.063C506.447 255.052 506.493 255.047 506.54 255.047ZM608.615 293.073C608.496 293.073 608.385 293.064 608.286 293.046C596.898 291.026 539.191 280.461 521.482 270.914C517.2 268.605 514.161 265.095 510.946 261.378C509.635 259.863 508.286 258.304 506.806 256.771C502.222 270.73 496.653 279.473 489.796 283.482C483.785 286.996 478.06 286.163 473.459 285.491C473.152 285.447 472.851 285.404 472.556 285.362C467.687 284.675 464.57 279.41 461.555 274.319C459.033 270.059 456.426 265.655 452.909 264.144C449.154 262.531 445.507 258.907 445.824 254.445C446.132 250.09 449.809 246.72 457.063 244.143C457.602 243.95 458.145 243.988 458.679 244.255C460.977 245.403 462.729 251.015 464.424 256.445C465.559 260.075 467.112 265.047 468.121 265.258C468.21 265.27 468.364 265.111 468.409 265.058C480.029 251.644 485.23 230.107 488.024 218.536C488.736 215.587 489.299 213.257 489.793 211.734C495.096 195.44 507.458 191.707 513.398 189.912C514.361 189.622 515.192 189.37 515.797 189.129C515.981 189.055 516.191 189.079 516.355 189.19C516.52 189.302 516.617 189.487 516.617 189.685C516.617 194.631 517.922 198.297 520.496 200.58C524.625 204.244 531.032 203.474 533.446 203.184L533.573 203.169C540.142 202.383 552.752 195.316 553.429 184.603C553.439 184.443 553.512 184.296 553.632 184.191C553.751 184.085 553.911 184.033 554.066 184.043C564.685 184.724 574.721 188.953 583.898 196.613C598.122 208.484 603.314 223.852 608.813 240.122C609.953 243.499 611.134 246.992 612.399 250.448C618.586 267.365 614.984 284.169 611.88 291.43C611.473 292.384 609.69 293.073 608.615 293.073Z" fill="black"/>
<path d="M590.595 269.747C574.347 268.842 558.001 267.722 541.654 266.598C540.189 266.357 532.918 265.317 531.124 265.053C529.603 264.83 528.152 264.27 526.756 263.625C521.895 261.382 511.462 256.976 509.136 258.279C503.773 259.857 498.911 263.728 495.113 268.63C492.981 271.381 491.232 275.938 492.116 276.72C492.677 277.219 493.524 277.426 494.146 276.908C496.675 271.492 501.181 267.025 506.619 264.543C504.09 265.972 501.732 267.707 499.616 269.697C497.47 271.715 495.499 274.148 495.017 277.052C494.979 277.279 494.955 277.527 495.073 277.722C495.365 278.204 496.107 277.923 496.551 277.576C497.42 276.897 508.596 267.819 510.686 268.06C507.909 269.109 498.007 277.142 497.967 277.997C497.947 278.406 498.025 278.836 498.283 279.154C498.633 279.59 499.256 279.729 499.808 279.638C500.359 279.546 500.857 279.261 501.335 278.971C504.531 277.03 507.458 274.596 510.91 273.159C512.634 272.442 514.741 272.028 516.272 273.094C513.192 274.262 510.31 275.96 507.895 278.18C507.51 278.534 507.186 278.952 506.931 279.41C506.551 280.088 506.124 281.072 506.651 281.633C507.513 282.551 508.241 282.089 508.98 281.657C511.943 279.703 514.971 278.093 518.137 276.831C519.12 276.439 520.291 276.097 521.183 276.667C521.953 277.16 525.684 279.475 533.35 279.874C535.966 280.009 538.487 280.691 541.759 281.592C584.839 293.463 597.707 298.2 608.142 293.714C610.185 292.835 610.874 291.762 610.193 288.255C608.375 278.89 606.597 273.567 590.595 269.747Z" fill="white"/>
<path d="M520.074 275.767C520.569 275.767 521.058 275.875 521.506 276.161C522.782 276.979 526.492 278.918 533.381 279.276C536.122 279.418 538.807 280.158 541.917 281.015C547.661 282.597 552.942 284.074 557.602 285.377C588.61 294.048 599.056 296.967 607.905 293.163C609.556 292.453 610.261 291.75 609.605 288.37C607.805 279.099 606.137 274.084 590.507 270.343C574.04 269.424 557.555 268.293 541.612 267.197C541.593 267.196 541.575 267.193 541.556 267.191C540.485 267.014 536.227 266.398 533.408 265.991C532.374 265.841 531.512 265.717 531.037 265.647C529.305 265.392 527.706 264.723 526.505 264.17C517.763 260.136 510.9 257.977 509.429 258.802C509.389 258.823 509.348 258.84 509.305 258.854C504.413 260.293 499.541 263.895 495.586 268.996C493.407 271.809 492.166 275.713 492.529 276.291C492.827 276.553 493.305 276.728 493.669 276.513C496.259 271.059 500.88 266.504 506.371 263.998C506.665 263.863 507.008 263.985 507.153 264.271C507.299 264.558 507.193 264.907 506.914 265.065C504.426 266.471 502.109 268.177 500.025 270.135C497.395 272.608 495.992 274.837 495.608 277.151C495.587 277.273 495.584 277.342 495.585 277.381C495.699 277.373 495.945 277.29 496.182 277.105C496.249 277.052 496.379 276.947 496.563 276.801C508.584 267.213 510.159 267.396 510.754 267.464C511.029 267.496 511.246 267.711 511.28 267.986C511.314 268.261 511.156 268.523 510.898 268.62C508.324 269.591 499.339 276.861 498.563 278.115C498.563 278.395 498.627 278.628 498.749 278.778C498.959 279.04 499.383 279.101 499.709 279.047C500.152 278.974 500.583 278.728 501.024 278.459C502.076 277.821 503.121 277.112 504.133 276.427C506.192 275.032 508.322 273.588 510.68 272.606C512.374 271.9 514.781 271.326 516.615 272.603C516.798 272.73 516.895 272.949 516.867 273.169C516.84 273.389 516.693 273.577 516.486 273.655C513.346 274.845 510.592 276.516 508.301 278.622C507.97 278.926 507.684 279.29 507.454 279.701C506.833 280.814 507.017 281.148 507.087 281.224C507.577 281.746 507.848 281.627 508.624 281.172L508.678 281.14C511.721 279.132 514.753 277.534 517.915 276.275C518.566 276.015 519.326 275.767 520.074 275.767ZM599.4 296.001C591.146 296.001 579.389 292.713 557.279 286.531C552.62 285.228 547.341 283.751 541.599 282.17C538.556 281.331 535.929 280.608 533.319 280.473C526.143 280.1 522.215 278.041 520.86 277.172C520.194 276.745 519.174 277.063 518.359 277.388C515.272 278.618 512.314 280.178 509.31 282.158L509.231 282.206C508.495 282.637 507.382 283.289 506.214 282.044C505.311 281.082 506.136 279.603 506.407 279.118C506.7 278.594 507.064 278.13 507.491 277.739C509.552 275.845 511.967 274.286 514.685 273.096C513.503 272.902 512.172 273.284 511.14 273.712C508.893 274.648 506.814 276.057 504.804 277.419C503.782 278.112 502.723 278.83 501.646 279.484C501.123 279.801 500.559 280.121 499.906 280.229C499.075 280.367 498.274 280.099 497.816 279.531C497.493 279.131 497.338 278.591 497.367 277.97C497.374 277.864 497.436 277.721 497.55 277.547C497.471 277.61 497.392 277.674 497.311 277.738C497.123 277.888 496.99 277.995 496.92 278.049C496.519 278.362 495.887 278.658 495.325 278.558C495.001 278.498 494.731 278.312 494.561 278.034C494.448 277.848 494.403 277.653 494.389 277.475C493.611 278.011 492.536 277.897 491.717 277.169C490.277 275.892 492.826 270.602 494.639 268.262C498.791 262.905 503.724 259.262 508.909 257.721C511.72 256.318 522.483 260.994 527.007 263.082C528.135 263.602 529.631 264.229 531.21 264.46C531.685 264.531 532.546 264.655 533.58 264.805C536.379 265.21 540.596 265.819 541.722 266.003C557.67 267.099 574.16 268.232 590.628 269.149C590.663 269.152 590.698 269.156 590.734 269.165C607.095 273.07 608.936 278.637 610.782 288.141C611.463 291.653 610.857 293.198 608.379 294.264C605.664 295.432 602.835 296.001 599.4 296.001Z" fill="black"/>
<path d="M483.049 290.728C496.533 291.017 510.018 291.307 523.502 291.596L523.554 284.725L478.528 283.626L483.049 290.728Z" fill="black"/>
<path d="M368.098 227.99L456.038 228.473L486.348 290.728L399.234 290.508L368.098 227.99Z" fill="white"/>
<path d="M399.606 289.91L485.39 290.125L455.663 229.07L369.069 228.596L399.606 289.91ZM486.349 291.325H486.347L399.232 291.107C399.005 291.106 398.798 290.978 398.698 290.775L367.562 228.259C367.469 228.072 367.48 227.85 367.59 227.674C367.699 227.498 367.892 227.391 368.098 227.391C368.099 227.391 368.1 227.391 368.102 227.391L456.042 227.874C456.27 227.875 456.478 228.005 456.578 228.211L486.888 290.464C486.978 290.651 486.966 290.87 486.857 291.046C486.747 291.22 486.556 291.325 486.349 291.325Z" fill="black"/>
<path d="M423.722 253.357C421.226 253.113 418.497 253.78 417.481 256.073C416.464 258.366 417.244 261.24 419.096 262.931C420.949 264.621 423.688 265.166 426.135 264.615C427.457 264.318 428.767 263.677 429.527 262.556C430.055 261.778 430.279 260.822 430.285 259.882C430.306 256.795 428.899 253.865 423.722 253.357Z" fill="white"/>
<path d="M422.781 253.913C421.331 253.913 418.946 254.248 418.028 256.317C417.145 258.308 417.764 260.903 419.5 262.487C421.131 263.975 423.623 264.565 426.003 264.03C427.373 263.722 428.448 263.079 429.031 262.219C429.565 261.433 429.682 260.512 429.687 259.878C429.71 256.291 427.741 254.354 423.664 253.954C423.456 253.933 423.147 253.913 422.781 253.913ZM424.263 265.421C422.168 265.421 420.145 264.699 418.692 263.372C416.587 261.45 415.847 258.279 416.933 255.831C417.93 253.586 420.491 252.439 423.781 252.761C429.688 253.34 430.904 256.955 430.885 259.886C430.877 261.034 430.579 262.073 430.023 262.892C429.056 264.319 427.446 264.934 426.267 265.2C425.603 265.348 424.929 265.421 424.263 265.421Z" fill="black"/>
<path d="M580.901 269.784C580.65 269.784 580.416 269.624 580.332 269.372C574.211 250.84 570.749 239.115 570.749 213.702C570.749 213.372 571.017 213.104 571.349 213.104C571.679 213.104 571.947 213.372 571.947 213.702C571.947 238.933 575.388 250.58 581.47 268.996C581.574 269.311 581.403 269.65 581.089 269.753C581.026 269.774 580.963 269.784 580.901 269.784Z" fill="black"/>
<path d="M506.54 256.245C506.351 256.245 506.165 256.156 506.048 255.988C498.15 244.626 500.286 236.305 502.351 228.258C503.383 224.238 504.449 220.082 504.281 215.539C504.269 215.208 504.527 214.93 504.857 214.918C505.175 214.905 505.467 215.164 505.479 215.494C505.653 220.211 504.565 224.454 503.512 228.555C501.421 236.7 499.447 244.392 507.032 255.304C507.221 255.576 507.154 255.949 506.883 256.137C506.778 256.211 506.658 256.245 506.54 256.245Z" fill="black"/>
<path d="M532.248 228.312C524.263 228.312 516.271 227.591 508.51 225.646C508.403 225.619 508.339 225.511 508.365 225.404C508.392 225.296 508.502 225.232 508.608 225.259C528.29 230.191 549.528 227.218 568.266 224.596C568.372 224.58 568.475 224.656 568.491 224.765C568.506 224.875 568.43 224.976 568.321 224.991C556.92 226.587 544.595 228.312 532.248 228.312Z" fill="black"/>
<path d="M539.447 243.661C527.714 243.661 515.976 242.269 504.619 239.493C504.511 239.468 504.447 239.359 504.472 239.252C504.498 239.145 504.605 239.079 504.714 239.106C525.554 244.199 547.678 244.62 568.697 240.32C568.805 240.298 568.91 240.367 568.932 240.475C568.954 240.584 568.885 240.689 568.776 240.712C559.156 242.679 549.302 243.661 539.447 243.661Z" fill="black"/>
<path d="M613.18 274.822C613.124 274.822 613.068 274.798 613.027 274.751C605.665 266.084 593.662 261.717 582.452 263.634C582.346 263.653 582.24 263.579 582.221 263.47C582.203 263.361 582.276 263.258 582.385 263.239C593.734 261.304 605.88 265.72 613.332 274.493C613.404 274.577 613.393 274.702 613.309 274.774C613.272 274.806 613.226 274.822 613.18 274.822Z" fill="black"/>
<path d="M611.838 266.823C611.813 266.823 611.788 266.818 611.763 266.808C610.569 266.328 609.596 265.459 608.657 264.618C608.33 264.326 607.991 264.024 607.65 263.745C605.563 262.034 603.048 260.92 600.377 260.524C600.269 260.508 600.193 260.407 600.209 260.297C600.226 260.189 600.33 260.112 600.436 260.129C603.178 260.535 605.76 261.679 607.904 263.435C608.251 263.72 608.593 264.025 608.924 264.321C609.837 265.137 610.783 265.983 611.913 266.437C612.015 266.479 612.065 266.595 612.023 266.697C611.992 266.775 611.917 266.823 611.838 266.823Z" fill="black"/>
<path d="M611.872 291.073C611.542 291.073 611.274 290.807 611.273 290.478C611.271 290.146 611.538 289.877 611.869 289.875C633.301 289.767 654.211 289.767 675.797 289.875C676.127 289.877 676.394 290.146 676.393 290.478C676.392 290.807 676.124 291.073 675.794 291.073C675.792 291.073 675.792 291.073 675.791 291.073C654.209 290.966 633.302 290.966 611.875 291.073C611.873 291.073 611.872 291.073 611.872 291.073Z" fill="black"/>
<path d="M573.648 291.292C389.112 291.185 201.988 291.185 17.4745 291.292C17.1443 291.292 16.875 291.024 16.875 290.693C16.875 290.361 17.1431 290.093 17.4745 290.093C201.988 289.988 389.112 289.988 573.648 290.093C573.979 290.093 574.247 290.361 574.247 290.693C574.247 291.024 573.979 291.292 573.648 291.292Z" fill="black"/>
<path d="M340.115 291.033C340.099 291.033 340.085 291.033 340.069 291.032C339.739 291.006 339.491 290.719 339.517 290.388C340.221 281.219 339.095 267.105 338.006 253.456C337.503 247.151 337.027 241.196 336.729 235.758C336.712 235.428 336.964 235.146 337.295 235.127C337.618 235.107 337.908 235.362 337.925 235.694C338.224 241.116 338.698 247.063 339.201 253.361C340.293 267.055 341.424 281.218 340.712 290.48C340.688 290.794 340.426 291.033 340.115 291.033Z" fill="black"/>
<path d="M185.011 144.758C182.966 153.535 182.942 165.76 182.942 165.76L188.094 167.859C188.094 167.859 192.968 187.899 162.249 181.758C156.282 180.565 139.004 167.443 139.004 167.443L152.667 163.537C152.667 163.537 153.976 143.675 154.497 133.808C161.677 137.151 176.396 142.068 185.011 144.758Z" fill="white"/>
<path d="M140.33 167.687C144.036 170.442 157.399 180.176 162.368 181.171C173.451 183.387 181.052 182.448 184.955 178.379C188.462 174.725 187.801 169.566 187.571 168.292L182.715 166.316C182.49 166.223 182.342 166.003 182.342 165.759C182.342 165.639 182.389 153.863 184.304 145.165C174.897 142.215 162.023 137.845 155.048 134.718C154.506 144.735 153.278 163.383 153.264 163.576C153.248 163.828 153.074 164.044 152.832 164.113L140.33 167.687ZM172.727 183.53C169.619 183.53 166.085 183.136 162.132 182.345C156.098 181.139 139.351 168.459 138.641 167.921C138.461 167.783 138.373 167.555 138.414 167.332C138.457 167.109 138.62 166.929 138.838 166.867L152.096 163.076C152.288 160.149 153.425 142.734 153.899 133.776C153.909 133.577 154.017 133.396 154.189 133.293C154.358 133.191 154.57 133.18 154.75 133.264C161.567 136.44 175.408 141.132 185.19 144.186C185.49 144.279 185.667 144.588 185.595 144.894C183.795 152.619 183.572 163.178 183.545 165.358L188.32 167.303C188.498 167.376 188.631 167.53 188.676 167.717C188.744 167.994 190.277 174.564 185.82 179.209C183.059 182.087 178.674 183.53 172.727 183.53Z" fill="black"/>
<path d="M169.983 71.0803C156.232 70.5406 142.842 79.399 143.885 86.6101C137.318 84.6776 129.795 97.2695 130.057 103.168C130.394 110.746 145.159 135.73 148.308 139.705C149.789 141.573 150.855 142.428 153.404 143.196C153.237 141.112 155.241 139.776 155.278 137.675C155.323 135.091 151.842 130.578 154.575 130.645C167.583 130.965 165.913 133.909 190.609 109.88C193.755 106.818 195.82 99.4117 196.515 93.8261C197.191 88.3879 193.296 71.9942 169.983 71.0803Z" fill="black"/>
<path d="M142.504 87.0124C140.855 87.0124 139.309 87.9177 138.216 88.7743C133.827 92.2117 130.492 99.4459 130.656 103.142C130.986 110.574 145.557 135.27 148.779 139.332C149.99 140.86 150.889 141.689 152.838 142.381C152.971 141.511 153.391 140.769 153.8 140.046C154.244 139.263 154.664 138.522 154.679 137.664C154.695 136.788 154.198 135.529 153.759 134.419C153.134 132.839 152.595 131.473 153.183 130.632C153.464 130.228 153.942 130.036 154.59 130.047C155.989 130.081 157.229 130.146 158.325 130.203C167.374 130.677 168.322 130.728 190.191 109.45C193.159 106.561 195.207 99.4837 195.92 93.7519C196.211 91.4075 195.602 85.6062 191.21 80.4325C186.593 74.9955 179.444 72.0504 169.96 71.6787C159.86 71.2754 150.989 75.8424 147.023 80.246C145.077 82.4076 144.197 84.579 144.479 86.525C144.508 86.7272 144.433 86.9295 144.278 87.0635C144.124 87.1976 143.912 87.2439 143.716 87.1854C143.309 87.066 142.903 87.0124 142.504 87.0124ZM153.404 143.796C153.346 143.796 153.289 143.787 153.231 143.77C150.46 142.935 149.328 141.957 147.839 140.077C144.574 135.958 129.798 110.832 129.458 103.195C129.257 98.6831 133.155 91.2162 137.477 87.8312C139.44 86.2922 141.409 85.6221 143.229 85.8609C143.21 83.7894 144.202 81.5888 146.132 79.4442C150.28 74.8395 159.52 70.0654 170.006 70.4809C179.701 70.8611 187.348 74.0341 192.122 79.6563C196.172 84.4267 197.547 90.3827 197.11 93.8993C196.371 99.8395 194.203 107.218 191.026 110.309C168.783 131.952 167.586 131.892 158.261 131.401C157.174 131.344 155.942 131.279 154.561 131.245C154.283 131.241 154.181 131.296 154.165 131.318C153.947 131.631 154.527 133.101 154.873 133.978C155.376 135.253 155.897 136.569 155.877 137.686C155.857 138.847 155.317 139.799 154.842 140.637C154.373 141.466 153.93 142.249 154.001 143.149C154.017 143.346 153.934 143.539 153.781 143.662C153.672 143.749 153.54 143.796 153.404 143.796Z" fill="black"/>
<path d="M191.402 105.975C191.38 105.824 186.696 106.421 182.732 100.789C181.959 103.776 181.547 106.898 175.423 106.607C172.446 106.466 168.086 101.622 166.986 98.7144C166.986 98.7144 173.495 97.1486 145.193 109.596C145.228 110.178 145.259 110.745 145.274 111.287C145.334 113.294 145.443 117.662 146.531 121.938C142.802 119.657 140.113 120.518 138.349 122.91C136.584 125.302 137.232 128.58 139.554 130.344C141.874 132.11 145.538 132.375 148.563 131.264C150.135 136.404 152.866 146.759 157.191 150.884C161.791 155.271 169.121 157.445 176.243 156.533C183.364 155.623 190.09 151.652 193.726 146.213C197.854 140.033 197.903 132.64 196.508 125.92C195.112 119.2 192.406 112.767 191.402 105.975Z" fill="white"/>
<path d="M190.81 106.063C190.81 106.064 190.81 106.064 190.81 106.064V106.063ZM191.258 106.547H191.262H191.258ZM148.563 130.665C148.655 130.665 148.746 130.687 148.83 130.728C148.977 130.801 149.088 130.932 149.136 131.09C149.298 131.619 149.472 132.204 149.66 132.832C151.223 138.078 153.839 146.859 157.604 150.449C162.089 154.728 169.201 156.832 176.166 155.94C183.139 155.047 189.677 151.193 193.227 145.88C196.676 140.717 197.582 134.044 195.921 126.042C195.318 123.139 194.451 120.231 193.612 117.418C192.56 113.886 191.471 110.237 190.879 106.519C187.829 106.268 185.186 104.797 183.007 102.141C182.303 104.783 181.153 107.477 175.395 107.206C172.481 107.068 168.61 103.135 166.943 100.044C166.322 100.42 165.421 100.905 164.13 101.558C160.474 103.403 154.313 106.235 145.815 109.976C145.842 110.455 145.862 110.881 145.874 111.269L145.878 111.403C145.939 113.438 146.064 117.671 147.112 121.79C147.172 122.027 147.083 122.275 146.887 122.42C146.69 122.564 146.426 122.576 146.218 122.448C143.115 120.551 140.631 120.825 138.831 123.266C137.301 125.341 137.777 128.24 139.917 129.868C142.003 131.454 145.394 131.789 148.356 130.702C148.423 130.677 148.494 130.665 148.563 130.665ZM173.003 157.339C166.805 157.339 160.801 155.154 156.777 151.318C152.782 147.507 150.212 138.882 148.511 133.175C148.391 132.774 148.278 132.391 148.168 132.029C144.984 132.998 141.446 132.538 139.19 130.822C136.524 128.793 135.943 125.162 137.866 122.553C139.794 119.942 142.524 119.334 145.647 120.783C144.844 116.977 144.735 113.304 144.68 111.438L144.675 111.305C144.662 110.821 144.635 110.274 144.595 109.632C144.579 109.382 144.721 109.148 144.95 109.047C160.058 102.403 164.897 99.8939 166.436 98.9544C166.432 98.9447 166.429 98.9362 166.425 98.9264C166.364 98.7656 166.375 98.5865 166.456 98.4341C166.536 98.2818 166.679 98.1722 166.846 98.132C167.595 97.9516 168.048 98.0844 168.197 98.5243C168.283 98.779 168.311 98.9934 167.932 99.3456C169.382 102.095 173.05 105.895 175.452 106.008C180.741 106.256 181.333 103.893 182.022 101.154L182.152 100.64C182.211 100.414 182.396 100.242 182.625 100.201C182.857 100.157 183.088 100.255 183.222 100.445C185.367 103.492 188.036 105.138 191.161 105.338C191.445 105.356 191.921 105.387 191.995 105.888C192.556 109.678 193.677 113.44 194.761 117.076C195.607 119.913 196.482 122.846 197.095 125.798C198.824 134.126 197.858 141.106 194.224 146.545C190.486 152.138 183.624 156.193 176.318 157.128C175.214 157.269 174.104 157.339 173.003 157.339Z" fill="black"/>
<path d="M186.523 116.727C186.496 115.877 185.748 115.212 184.851 115.24C183.955 115.268 183.249 115.98 183.275 116.829C183.3 117.678 184.048 118.344 184.945 118.316C185.842 118.288 186.549 117.576 186.523 116.727Z" fill="black"/>
<path d="M164.292 121.178C164.265 120.329 163.517 119.663 162.62 119.691C161.723 119.719 161.017 120.431 161.043 121.28C161.069 122.13 161.817 122.795 162.714 122.767C163.61 122.739 164.317 122.027 164.292 121.178Z" fill="black"/>
<path d="M173.529 146.624C171.483 146.624 169.437 145.905 167.887 144.549C167.639 144.331 167.613 143.952 167.831 143.703C168.049 143.453 168.428 143.429 168.677 143.646C170.734 145.448 173.809 145.938 176.328 144.867C176.633 144.735 176.985 144.878 177.114 145.184C177.243 145.487 177.102 145.839 176.797 145.97C175.761 146.41 174.645 146.624 173.529 146.624Z" fill="black"/>
<path d="M176.268 137.643C176.249 137.643 176.229 137.643 176.209 137.643C174.476 137.629 172.888 136.964 171.852 135.817C171.631 135.572 171.65 135.193 171.895 134.971C172.141 134.748 172.52 134.769 172.742 135.014C173.541 135.899 174.841 136.433 176.218 136.444C177.441 136.437 178.742 136.095 180.102 135.373C180.564 135.127 181.074 134.818 181.359 134.375C181.705 133.838 181.737 133.037 181.442 132.236C181.192 131.557 180.769 130.944 180.322 130.295L180.109 129.983C177.508 126.161 175.794 121.721 175.156 117.143C175.11 116.814 175.339 116.512 175.666 116.467C175.992 116.421 176.296 116.649 176.343 116.978C176.957 121.374 178.602 125.639 181.1 129.309L181.309 129.615C181.78 130.296 182.266 131.001 182.567 131.823C182.997 132.992 182.924 134.159 182.367 135.024C181.933 135.699 181.263 136.114 180.663 136.431C179.148 137.236 177.67 137.643 176.268 137.643Z" fill="black"/>
<path d="M147.389 125.941C147.128 125.941 146.887 125.769 146.812 125.505C146.297 123.673 146.06 122.692 145.633 120.911C145.556 120.589 145.755 120.265 146.076 120.188C146.397 120.114 146.721 120.309 146.799 120.631C147.223 122.398 147.457 123.371 147.966 125.179C148.056 125.499 147.871 125.829 147.552 125.919C147.497 125.935 147.442 125.941 147.389 125.941Z" fill="black"/>
<path d="M147.368 243.064C150.888 212.241 150.784 181.763 148.254 164.221C136.194 164.995 115.623 168.123 106.946 175.366C88.8688 190.455 88.8371 214.544 84.5663 236.985C80.6378 257.63 78.8454 277.978 84.3737 285.078C84.9014 285.758 88.9626 288.446 89.8095 288.295C92.361 287.843 109.978 269.401 109.978 274.894C109.978 285.971 108.585 290.435 108.585 290.435H139.059C139.059 290.435 146.169 253.566 147.368 243.064Z" fill="#D0E2F2"/>
<path d="M109.358 289.835H138.564C139.407 285.443 145.664 252.703 146.773 242.996C150.027 214.503 150.4 183.93 147.738 164.856C133.908 165.802 115.248 169.216 107.33 175.825C92.8217 187.936 90.1228 205.612 87.2642 224.327C86.6232 228.528 85.9591 232.872 85.1549 237.097C80.3528 262.336 80.2456 278.8 84.8467 284.71C85.3462 285.352 89.0432 287.694 89.7341 287.703C90.4652 287.57 93.7015 284.755 96.5565 282.271C103.346 276.365 107.935 272.557 109.788 273.4C110.149 273.563 110.577 273.956 110.577 274.894C110.577 283.495 109.75 288.122 109.358 289.835ZM139.059 291.033H108.585C108.394 291.033 108.215 290.943 108.103 290.789C107.99 290.635 107.957 290.438 108.013 290.257C108.026 290.212 109.379 285.713 109.379 274.894C109.379 274.618 109.32 274.504 109.292 274.49C108.003 273.904 101.069 279.935 97.3436 283.175C93.2933 286.699 90.9514 288.702 89.9144 288.885C88.6703 289.104 84.4226 286.118 83.9011 285.446C77.8123 277.627 80.5819 254.716 83.9779 236.873C84.7784 232.669 85.4401 228.336 86.0798 224.147C88.8458 206.035 91.7056 187.307 106.563 174.905C114.808 168.023 134.154 164.526 148.215 163.624C148.528 163.601 148.802 163.826 148.846 164.136C151.607 183.263 151.26 214.27 147.964 243.132C146.774 253.537 139.718 290.179 139.647 290.548C139.593 290.83 139.347 291.033 139.059 291.033Z" fill="black"/>
<path d="M239.382 274.419C248.813 273.267 257.278 238.173 242.969 235.727C240.995 235.389 232.665 201.933 215.899 180.834C206.971 169.6 187.92 166.851 185.182 165.76C197.481 187.038 178.042 290.435 178.042 290.435L203.504 290.486C203.504 290.486 209.281 252.401 210.363 243.614C211.183 248.589 217.599 259.863 224.856 268.481C227.559 271.692 229.985 271.067 231.669 272.751C233.618 274.7 237.216 274.683 239.382 274.419Z" fill="#D0E2F2"/>
<path d="M239.382 274.419H239.385H239.382ZM178.763 289.836L202.989 289.886C203.68 285.321 208.767 251.666 209.768 243.541C209.805 243.245 210.052 243.021 210.351 243.015C210.652 243.007 210.905 243.223 210.954 243.517C211.79 248.588 218.366 259.843 225.314 268.096C226.809 269.872 228.162 270.373 229.469 270.861C230.416 271.213 231.31 271.546 232.091 272.327C234.004 274.24 237.777 274.012 239.309 273.824C244.34 273.21 249.738 261.223 250.005 250.071C250.095 246.318 249.579 237.464 242.869 236.316C241.987 236.167 241.373 234.702 238.63 227.301C234.53 216.234 226.897 195.637 215.43 181.207C208.208 172.12 193.958 168.612 187.873 167.114C187.301 166.973 186.794 166.848 186.359 166.735C190.89 176.533 191.047 199.863 186.819 236.146C183.836 261.748 179.562 285.483 178.763 289.836ZM203.504 291.085H203.503L178.041 291.033C177.863 291.033 177.695 290.954 177.581 290.816C177.467 290.68 177.421 290.498 177.454 290.324C177.648 289.292 196.712 186.903 184.663 166.06C184.535 165.84 184.561 165.562 184.728 165.368C184.895 165.175 185.166 165.108 185.403 165.204C185.849 165.381 186.869 165.632 188.161 165.95C194.364 167.477 208.891 171.054 216.368 180.462C227.953 195.041 235.63 215.755 239.755 226.885C241.222 230.845 242.611 234.592 243.164 235.152C248.478 236.118 251.407 241.558 251.202 250.1C250.948 260.766 245.651 274.257 239.454 275.015C237.335 275.273 233.448 275.378 231.245 273.173C230.647 272.578 229.908 272.303 229.051 271.985C227.734 271.494 226.095 270.885 224.398 268.867C218.433 261.784 212.729 252.468 210.579 246.581C208.93 258.689 204.15 290.228 204.096 290.575C204.052 290.868 203.8 291.085 203.504 291.085Z" fill="black"/>
<path d="M115.488 267.888C115.438 267.888 115.388 267.882 115.337 267.87C115.017 267.786 114.824 267.459 114.907 267.139C117.407 257.497 118.926 247.518 121.028 233.708C122.458 224.308 124.237 212.612 126.82 197.779C126.878 197.453 127.187 197.232 127.514 197.292C127.84 197.348 128.058 197.658 128.001 197.985C125.42 212.804 123.641 224.495 122.212 233.888C120.105 247.734 118.583 257.738 116.068 267.44C115.998 267.709 115.755 267.888 115.488 267.888Z" fill="black"/>
<path d="M209.963 243.167C209.963 243.168 209.962 243.168 209.962 243.168C209.962 243.168 209.963 243.168 209.963 243.167ZM209.962 243.168L209.961 243.169L209.962 243.168ZM210.363 244.213C210.199 244.213 210.034 244.145 209.916 244.014C209.753 243.83 209.722 243.574 209.818 243.363C210.038 242.438 210.791 233.414 211.586 223.867C212.082 217.927 212.643 211.196 213.16 205.41C213.189 205.08 213.481 204.835 213.81 204.866C214.139 204.895 214.383 205.186 214.354 205.516C213.837 211.299 213.277 218.029 212.782 223.966C211.133 243.728 211.084 243.772 210.763 244.06C210.648 244.162 210.506 244.213 210.363 244.213Z" fill="black"/>
<path d="M83.5745 267.488C83.5233 267.488 83.4721 267.469 83.4331 267.43C83.3551 267.352 83.3551 267.225 83.4331 267.147C90.4029 260.215 101.762 256.725 112.368 258.253C112.477 258.269 112.553 258.37 112.537 258.48C112.521 258.589 112.422 258.662 112.31 258.649C101.824 257.136 90.5991 260.584 83.7158 267.431C83.6768 267.469 83.6256 267.488 83.5745 267.488Z" fill="black"/>
<path d="M84.4373 270.819C84.3594 270.819 84.2838 270.772 84.2521 270.694C84.2107 270.593 84.2607 270.476 84.363 270.434C85.5608 269.953 86.5612 269.059 87.5287 268.193C87.8784 267.88 88.2403 267.558 88.6083 267.257C90.8747 265.398 93.6053 264.19 96.5054 263.761C96.615 263.745 96.7162 263.819 96.732 263.929C96.7478 264.037 96.6723 264.14 96.5639 264.155C93.7357 264.575 91.0721 265.753 88.8605 267.565C88.4998 267.861 88.1416 268.182 87.7943 268.492C86.8012 269.379 85.774 270.297 84.5129 270.805C84.4885 270.815 84.4629 270.819 84.4373 270.819Z" fill="black"/>
<path d="M172.22 190.056C166.619 190.056 161.013 188.773 155.991 186.295C155.892 186.246 155.851 186.125 155.901 186.027C155.95 185.928 156.069 185.888 156.168 185.936C162.851 189.235 170.584 190.394 177.942 189.197C181.837 188.563 184.574 187.302 186.307 185.342C186.381 185.259 186.507 185.252 186.589 185.325C186.672 185.398 186.68 185.525 186.607 185.607C184.809 187.639 181.996 188.942 178.006 189.592C176.095 189.903 174.157 190.056 172.22 190.056Z" fill="black"/>
<path d="M280.198 207.646C286.204 201.64 283.69 197.486 290.422 189.534C293.226 186.224 295.93 183.355 298.412 180.737C299.714 179.363 300.888 177.594 302.229 178.726C303.829 180.076 302.071 183.724 301.274 184.895C298.186 189.438 298.423 190.931 298.565 192.613C303.867 188.522 312.093 183.071 318.465 181.008C318.942 180.854 320.172 180.94 320.474 181.351C320.902 181.932 320.497 183.423 319.561 184.088C315.769 186.784 310.195 190.676 306.403 193.373C313.263 189.019 322.277 183.509 323.718 185.309C324.172 185.875 323.918 187.413 322.954 188.111C318.836 191.093 313.42 194.813 309.303 197.794C312.83 194.779 323.755 188.349 324.617 190.647C325.482 192.952 315.392 199.315 311.128 201.902C314.575 199.756 322.649 194.704 323.561 196.843C324.248 198.455 321.827 199.929 321.011 200.562C314.58 205.551 306.999 212.382 299.973 214.891C298.295 215.49 295.746 215.764 294.307 216.814C292.787 217.923 291.97 219.232 290.728 220.645C256.159 260.016 245.211 273.389 238.982 272.062C233.756 270.949 237.645 249.642 242.969 235.726C245.801 235.832 267.453 220.39 280.198 207.646Z" fill="white"/>
<path d="M243.404 236.269C238.819 248.409 235.464 265.871 237.973 270.489C238.281 271.056 238.653 271.38 239.107 271.476C244.404 272.597 254.412 261.182 281.152 230.659C283.996 227.411 287.034 223.945 290.278 220.249C290.62 219.86 290.932 219.475 291.235 219.101C292.039 218.111 292.798 217.174 293.953 216.33C294.999 215.568 296.471 215.203 297.894 214.851C298.581 214.681 299.23 214.521 299.771 214.327C305.357 212.333 311.451 207.438 316.828 203.119C318.155 202.054 319.409 201.047 320.645 200.088C320.746 200.01 320.873 199.918 321.014 199.815C321.857 199.201 323.426 198.058 323.01 197.078C322.995 197.045 322.976 197.001 322.861 196.965C321.453 196.522 316.608 199.265 313.499 201.145C312.849 201.554 312.163 201.976 311.439 202.415C311.157 202.586 310.791 202.497 310.618 202.217C310.445 201.936 310.532 201.568 310.811 201.394L310.908 201.334C311.539 200.941 312.153 200.563 312.749 200.201C322.162 194.316 324.322 191.567 324.056 190.856C324.052 190.847 324.041 190.817 323.935 190.789C322.547 190.431 317.874 192.748 313.988 195.192C312.471 196.262 310.986 197.316 309.654 198.28C309.394 198.468 309.031 198.417 308.831 198.165C308.633 197.913 308.669 197.547 308.913 197.339C309.88 196.511 311.45 195.389 313.237 194.255C314.082 193.659 314.938 193.057 315.784 192.462C318.125 190.816 320.547 189.114 322.602 187.626C323.045 187.305 323.264 186.744 323.32 186.327C323.368 185.979 323.305 185.751 323.25 185.683C323.184 185.6 322.452 184.944 317.367 187.566C314.099 189.25 310.152 191.702 306.723 193.878C306.449 194.053 306.086 193.976 305.904 193.706C305.724 193.437 305.79 193.072 306.056 192.884C307.954 191.534 310.3 189.884 312.645 188.234C314.983 186.589 317.322 184.945 319.214 183.599C319.674 183.274 319.953 182.674 320.024 182.225C320.076 181.905 320.018 181.742 319.992 181.705C319.828 181.567 318.967 181.475 318.65 181.578C312.548 183.554 304.463 188.819 298.931 193.088C298.758 193.222 298.524 193.25 298.324 193.162C298.123 193.073 297.987 192.883 297.968 192.663L297.955 192.515C297.805 190.78 297.663 189.142 300.779 184.559C301.576 183.386 303.015 180.174 301.843 179.184C301.241 178.676 300.738 179.049 299.431 180.51C299.238 180.725 299.044 180.941 298.847 181.15C296.184 183.957 293.572 186.743 290.88 189.922C287.575 193.826 286.568 196.733 285.594 199.544C284.627 202.34 283.712 204.98 280.622 208.07C269.017 219.674 247.922 235.21 243.404 236.269ZM239.825 272.748C239.491 272.748 239.17 272.716 238.858 272.648C238.051 272.477 237.399 271.943 236.92 271.062C234.115 265.9 237.562 248.183 242.41 235.512C242.501 235.272 242.739 235.118 242.992 235.127C242.999 235.127 243.007 235.127 243.014 235.127C245.535 235.129 266.959 220.038 279.774 207.222C282.67 204.327 283.5 201.929 284.461 199.152C285.424 196.373 286.514 193.223 289.965 189.147C292.678 185.943 295.304 183.146 297.977 180.325C298.167 180.125 298.353 179.917 298.539 179.71C299.647 178.47 301.029 176.929 302.616 178.268C304.632 179.97 302.63 183.967 301.77 185.233C299.489 188.588 299.095 190.183 299.095 191.456C304.66 187.262 312.358 182.356 318.281 180.438C318.908 180.235 320.44 180.293 320.957 180.995C321.21 181.341 321.3 181.844 321.208 182.415C321.099 183.091 320.701 184.015 319.909 184.576C319.342 184.98 318.734 185.41 318.099 185.859C321.605 184.178 323.411 183.966 324.186 184.935C324.479 185.301 324.594 185.853 324.509 186.488C324.392 187.347 323.942 188.136 323.305 188.596C322.626 189.087 321.908 189.601 321.167 190.129C322.461 189.666 323.547 189.453 324.233 189.629C324.822 189.78 325.071 190.151 325.179 190.436C325.391 191.003 325.849 192.225 321.042 195.984C321.953 195.718 322.687 195.652 323.222 195.822C323.641 195.953 323.948 196.225 324.111 196.608C324.903 198.466 322.832 199.973 321.718 200.784C321.589 200.879 321.473 200.963 321.379 201.036C320.152 201.987 318.902 202.991 317.579 204.054C312.127 208.432 305.95 213.394 300.174 215.456C299.576 215.669 298.899 215.837 298.183 216.014C296.87 216.339 295.516 216.674 294.66 217.298C293.632 218.05 292.952 218.887 292.166 219.857C291.855 220.238 291.535 220.634 291.179 221.04C287.934 224.736 284.898 228.202 282.054 231.448C255.675 261.56 245.875 272.747 239.825 272.748Z" fill="black"/>
<path d="M298.219 206.913C298.047 206.913 297.878 206.84 297.759 206.698C297.547 206.445 297.58 206.066 297.833 205.854C300.274 203.807 301.177 200.179 299.981 197.227C299.752 196.662 299.457 196.125 299.145 195.559C298.713 194.774 298.267 193.963 298.002 193.059C297.91 192.74 298.093 192.408 298.409 192.315C298.729 192.223 299.06 192.404 299.153 192.722C299.381 193.5 299.775 194.22 300.194 194.981C300.51 195.554 300.837 196.146 301.091 196.776C302.477 200.196 301.431 204.4 298.603 206.773C298.491 206.867 298.355 206.913 298.219 206.913Z" fill="black"/>
<path d="M230.344 268.869C230.247 268.869 230.162 268.798 230.147 268.699C228.687 259.354 229.991 249.444 233.819 240.797C233.864 240.696 233.982 240.649 234.084 240.694C234.183 240.738 234.23 240.856 234.185 240.958C230.387 249.537 229.093 259.368 230.541 268.637C230.558 268.747 230.484 268.849 230.374 268.866C230.365 268.867 230.354 268.869 230.344 268.869Z" fill="black"/>
<path d="M226.121 267.351C226.035 267.351 225.956 267.295 225.929 267.208C224.949 263.892 224.844 260.358 225.627 256.99C225.652 256.883 225.759 256.815 225.866 256.841C225.973 256.866 226.04 256.973 226.016 257.081C225.248 260.383 225.351 263.844 226.313 267.094C226.344 267.2 226.284 267.311 226.178 267.343C226.16 267.348 226.14 267.351 226.121 267.351Z" fill="black"/>
<path d="M109.842 267.152C126.821 270.02 143.952 272.69 161.087 275.356C162.654 275.45 170.401 276.078 172.315 276.226C173.937 276.352 175.565 276.113 177.157 275.774C182.699 274.597 194.497 272.492 196.593 274.38C201.758 277.263 205.868 282.397 208.641 288.344C210.199 291.683 210.936 296.795 209.842 297.396C209.146 297.779 208.223 297.794 207.702 297.113C206.359 290.933 202.755 285.267 197.724 281.433C200 283.501 202.026 285.842 203.745 288.393C205.487 290.976 206.951 293.948 206.77 297.059C206.756 297.301 206.722 297.563 206.554 297.737C206.14 298.165 205.44 297.702 205.064 297.241C204.325 296.336 194.916 284.353 192.705 284.111C195.324 285.844 203.663 296.452 203.504 297.344C203.429 297.77 203.247 298.196 202.907 298.464C202.443 298.83 201.768 298.829 201.221 298.605C200.672 298.382 200.225 297.973 199.8 297.561C196.956 294.809 194.506 291.612 191.279 289.321C189.667 288.177 187.591 287.258 185.759 288C188.665 289.926 191.242 292.353 193.214 295.208C193.529 295.665 193.766 296.172 193.923 296.703C194.156 297.494 194.367 298.609 193.692 299.065C192.588 299.809 191.943 299.163 191.281 298.543C188.68 295.833 185.933 293.463 182.961 291.42C182.038 290.785 180.91 290.157 179.857 290.537C178.945 290.866 174.554 292.383 166.549 290.999C163.818 290.526 161.056 290.64 157.469 290.804C110.232 292.973 95.8423 294.851 86.1236 287.778C84.2215 286.394 83.7609 285.125 85.284 281.664C89.3526 272.426 92.433 267.348 109.842 267.152Z" fill="white"/>
<path d="M180.526 289.822C181.54 289.822 182.517 290.386 183.3 290.926C186.267 292.965 189.019 295.321 191.714 298.128L191.738 298.15C192.433 298.802 192.707 299.005 193.355 298.567C193.478 298.484 193.725 298.152 193.348 296.872C193.205 296.39 192.995 295.945 192.722 295.549C190.848 292.836 188.394 290.464 185.428 288.498C185.243 288.377 185.14 288.161 185.163 287.939C185.185 287.719 185.328 287.527 185.535 287.445C187.711 286.564 190.048 287.713 191.625 288.834C193.827 290.396 195.686 292.383 197.484 294.305C198.367 295.248 199.28 296.224 200.217 297.13C200.611 297.512 201.003 297.87 201.446 298.05C201.781 298.187 202.248 298.221 202.535 297.994C202.705 297.86 202.832 297.624 202.897 297.323C202.421 295.872 194.831 286.235 192.373 284.61C192.143 284.459 192.047 284.168 192.14 283.907C192.234 283.648 192.496 283.487 192.769 283.515C193.335 283.577 195.058 283.765 205.21 296.466C205.362 296.656 205.472 296.793 205.528 296.862C205.777 297.167 206.076 297.308 206.156 297.307C206.132 297.307 206.158 297.246 206.172 297.025C206.318 294.539 205.388 291.902 203.248 288.726C201.556 286.216 199.561 283.911 197.32 281.877C197.083 281.661 197.057 281.296 197.263 281.05C197.468 280.802 197.831 280.762 198.087 280.956C203.163 284.825 206.862 290.605 208.254 296.836C208.593 297.163 209.151 297.091 209.553 296.871C210.068 296.392 209.717 292.069 208.098 288.597C205.209 282.4 201.018 277.537 196.3 274.903C196.261 274.881 196.225 274.855 196.191 274.825C194.858 273.623 187.258 274.24 177.281 276.36C175.915 276.65 174.11 276.966 172.269 276.823C171.745 276.783 170.786 276.706 169.636 276.615C166.669 276.378 162.184 276.021 161.05 275.954C161.032 275.953 161.013 275.95 160.994 275.948C144.275 273.345 126.987 270.655 109.795 267.751C92.7657 267.953 89.8669 272.747 85.8325 281.907C84.3544 285.263 84.9247 286.163 86.477 287.293C94.7287 293.298 106.197 292.729 140.236 291.037C145.349 290.783 151.145 290.495 157.442 290.206C160.848 290.049 163.791 289.913 166.652 290.408C173.851 291.653 178.142 290.519 179.653 289.973C179.945 289.868 180.237 289.822 180.526 289.822ZM192.762 300C191.959 300 191.362 299.439 190.918 299.024L190.872 298.98C188.212 296.211 185.52 293.906 182.622 291.913C181.85 291.383 180.862 290.811 180.06 291.1C178.459 291.678 173.929 292.883 166.447 291.59C163.715 291.117 160.834 291.25 157.497 291.403C151.203 291.692 145.407 291.98 140.295 292.234C105.939 293.942 94.3656 294.517 85.7715 288.262C83.4515 286.573 83.1993 284.911 84.7358 281.423C88.8592 272.06 92.0578 266.753 109.836 266.552C109.871 266.552 109.906 266.555 109.942 266.561C127.134 269.464 144.426 272.156 161.15 274.759C162.337 274.832 166.607 275.172 169.731 275.421C170.88 275.512 171.839 275.587 172.362 275.628C174.051 275.759 175.746 275.461 177.032 275.188C182.188 274.092 194.385 271.787 196.938 273.886C201.923 276.687 206.157 281.596 209.185 288.091C210.504 290.918 211.898 296.949 210.13 297.921C209.107 298.483 207.963 298.335 207.301 297.569C207.247 297.775 207.155 297.979 206.985 298.154C206.753 298.394 206.437 298.517 206.101 298.505C205.506 298.479 204.935 298.031 204.6 297.619C204.541 297.548 204.43 297.409 204.274 297.215C204.162 297.075 204.053 296.938 203.944 296.801C204.068 297.091 204.12 297.308 204.094 297.448C203.981 298.088 203.699 298.601 203.279 298.934C202.683 299.405 201.808 299.491 200.994 299.16C200.352 298.898 199.846 298.439 199.383 297.992C198.426 297.065 197.502 296.077 196.609 295.124C194.852 293.246 193.035 291.303 190.932 289.81C189.934 289.101 188.596 288.372 187.285 288.333C189.848 290.209 192.005 292.403 193.707 294.867C194.054 295.369 194.319 295.929 194.497 296.533C194.662 297.091 195.164 298.792 194.027 299.56C193.556 299.877 193.137 300 192.762 300Z" fill="black"/>
<path d="M5.39447 31.5526H108.205C111.133 31.5526 113.373 34.1626 112.93 37.0576L107.007 75.6501C106.649 77.9826 104.643 79.7051 102.283 79.7051H96.4733L96.2782 101.33L81.5145 79.7051H11.307C8.94696 79.7051 6.94072 77.9813 6.58322 75.6488L0.670715 37.0563C0.226965 34.1626 2.46697 31.5526 5.39447 31.5526Z" fill="white"/>
<path d="M5.39452 32.1675C4.17827 32.1675 3.02702 32.6963 2.23452 33.6201C1.44202 34.5426 1.09327 35.7613 1.27827 36.9638L7.19077 75.5551C7.50452 77.6038 9.23577 79.0901 11.307 79.0901H81.5145C81.7183 79.0901 81.9083 79.1901 82.0233 79.3576L95.6808 99.3651L95.8583 79.6988C95.8621 79.3613 96.1358 79.0901 96.4733 79.0901H102.283C104.355 79.0901 106.086 77.6038 106.4 75.5563L112.322 36.9638C112.506 35.7626 112.157 34.5426 111.366 33.6201C110.573 32.6976 109.421 32.1675 108.205 32.1675H5.39452ZM96.2783 101.945C96.0796 101.945 95.8871 101.848 95.7708 101.676L81.1908 80.3188H11.307C8.62452 80.3188 6.38078 78.3938 5.97453 75.7413L0.0620178 37.1501C-0.175482 35.5926 0.275773 34.0138 1.30202 32.8188C2.32702 31.6238 3.81952 30.9375 5.39452 30.9375H108.205C109.78 30.9375 111.272 31.6238 112.298 32.8188C113.325 34.015 113.776 35.5938 113.537 37.1513L107.615 75.7426C107.208 78.3951 104.966 80.3188 102.283 80.3188H97.0821L96.8933 101.335C96.8908 101.604 96.7146 101.84 96.4571 101.918C96.3983 101.936 96.3383 101.945 96.2783 101.945Z" fill="black"/>
<path d="M35.9208 55.0312C35.9208 54.0125 36.747 53.1875 37.7658 53.1875C38.7845 53.1875 39.6095 54.0125 39.6095 55.0312C39.6095 56.05 38.7845 56.875 37.7658 56.875C36.747 56.875 35.9208 56.05 35.9208 55.0312Z" fill="black"/>
<path d="M37.7659 53.8012C37.0884 53.8012 36.5359 54.3537 36.5359 55.0312C36.5359 55.7087 37.0884 56.2612 37.7659 56.2612C38.4434 56.2612 38.9959 55.7087 38.9959 55.0312C38.9959 54.3537 38.4434 53.8012 37.7659 53.8012ZM37.7659 57.49C36.4096 57.49 35.3071 56.3875 35.3071 55.0312C35.3071 53.675 36.4096 52.5725 37.7659 52.5725C39.1221 52.5725 40.2246 53.675 40.2246 55.0312C40.2246 56.3875 39.1221 57.49 37.7659 57.49Z" fill="black"/>
<path d="M54.6696 55.0312C54.6696 54.0125 55.4946 53.1875 56.5133 53.1875C57.5321 53.1875 58.3571 54.0125 58.3571 55.0312C58.3571 56.05 57.5321 56.875 56.5133 56.875C55.4946 56.875 54.6696 56.05 54.6696 55.0312Z" fill="black"/>
<path d="M56.5133 53.8012C55.8358 53.8012 55.2833 54.3537 55.2833 55.0312C55.2833 55.7087 55.8358 56.2612 56.5133 56.2612C57.1908 56.2612 57.7433 55.7087 57.7433 55.0312C57.7433 54.3537 57.1908 53.8012 56.5133 53.8012ZM56.5133 57.49C55.1571 57.49 54.0546 56.3875 54.0546 55.0312C54.0546 53.675 55.1571 52.5725 56.5133 52.5725C57.8696 52.5725 58.9721 53.675 58.9721 55.0312C58.9721 56.3875 57.8696 57.49 56.5133 57.49Z" fill="black"/>
<path d="M73.4171 55.0312C73.4171 54.0125 74.2421 53.1875 75.2609 53.1875C76.2796 53.1875 77.1046 54.0125 77.1046 55.0312C77.1046 56.05 76.2796 56.875 75.2609 56.875C74.2421 56.875 73.4171 56.05 73.4171 55.0312Z" fill="black"/>
<path d="M75.2609 53.8012C74.5834 53.8012 74.0309 54.3537 74.0309 55.0312C74.0309 55.7087 74.5834 56.2612 75.2609 56.2612C75.9384 56.2612 76.4909 55.7087 76.4909 55.0312C76.4909 54.3537 75.9384 53.8012 75.2609 53.8012ZM75.2609 57.49C73.9046 57.49 72.8021 56.3875 72.8021 55.0312C72.8021 53.675 73.9046 52.5725 75.2609 52.5725C76.6171 52.5725 77.7196 53.675 77.7196 55.0312C77.7196 56.3875 76.6171 57.49 75.2609 57.49Z" fill="black"/>
</svg>
